<svg width="383" height="69" viewBox="0 0 383 69" fill="none" xmlns="http://www.w3.org/2000/svg">
<path d="M68.8548 63.8428C66.6272 65.3464 64.0274 66.5291 61.3447 66.8975C59.3333 67.1757 57.0076 66.9326 55.3733 65.6095C54.081 64.562 53.3418 62.9758 52.8918 61.377C52.3889 59.5678 52.1903 57.6808 51.5818 55.8992C51.1695 54.6863 50.5485 53.0124 49.4799 52.228C46.3144 49.8975 43.4456 57.4378 42.7341 59.2019C36.6999 73.9716 25.1343 63.0409 25.1343 63.0409C21.6773 59.6719 18.455 56.0718 15.4896 52.2656C13.1016 49.1967 10.9339 45.9636 9.00279 42.5904C3.52925 32.9703 -1.70292 20.3055 5.55827 10.2419C7.40305 7.7004 9.82426 5.62937 12.6245 4.19753C15.4248 2.76569 18.5249 2.01359 21.6722 2.00251C26.9334 2.00251 31.9791 4.08556 35.6994 7.79343C39.4197 11.5013 41.5097 16.5302 41.5097 21.774C41.5126 24.0923 41.1049 26.3929 40.3054 28.5699C39.272 32.3613 37.2003 36.9672 33.2252 42.0491C31.254 44.57 31.2465 47.9805 33.2579 49.9452C33.6768 50.3511 34.1623 50.6825 34.6935 50.925C35.6071 51.3304 36.618 51.467 37.6069 51.3187C38.5959 51.1704 39.5217 50.7434 40.2752 50.088C42.3067 48.3339 42.455 45.5148 43.1892 43.1241C43.9837 40.533 45.9348 38.0347 48.1448 36.4535C50.1286 35.0351 52.7484 34.326 55.0641 35.0953C57.2716 35.8295 58.7701 37.7716 59.5093 39.8991C60.4295 42.5453 59.6702 45.4947 60.5024 48.1936C61.6389 51.8822 66.3858 55.5609 70.3081 53.6363C70.9376 53.322 71.4871 52.8689 71.9149 52.3114C72.3427 51.7539 72.6376 51.1067 72.7771 50.4188C72.9049 49.7289 72.8735 49.0191 72.6853 48.3431C72.4971 47.6671 72.1571 47.0427 71.6909 46.5171C70.9693 45.7152 69.9913 45.199 69.0534 44.6577C66.3124 43.0755 63.7788 41.1606 61.5107 38.9568C60.4675 37.9486 59.4932 36.872 58.5941 35.7343C58.0912 35.0852 57.6085 34.4162 57.1635 33.7296C56.7939 33.1532 56.4871 32.226 56.0119 31.7424C56.0111 31.7366 56.0111 31.7307 56.0119 31.7248C54.2412 28.7051 53.3108 25.2691 53.3167 21.7715C53.3163 19.1751 53.8291 16.6042 54.8258 14.2054C55.8224 11.8067 57.2834 9.62706 59.1253 7.79107C60.9672 5.95509 63.1539 4.4987 65.5605 3.50506C67.9672 2.51142 70.5467 2 73.1517 2C76.7944 2.00115 80.3667 3.00068 83.4777 4.88928C86.5082 6.73781 88.9889 9.35895 90.6635 12.4821C92.5794 16.063 93.0445 19.8645 92.9967 23.8689C92.9565 27.4899 92.1394 31.0733 90.8973 34.4663C89.6319 37.8403 88.0219 41.0757 86.0926 44.1215C84.2674 47.0362 82.2517 49.8279 80.0584 52.4786C76.7999 56.4504 73.2497 60.8758 68.8548 63.8428Z" fill="url(#paint0_linear_710_1498)"/>
<path d="M109.1 47L102.656 21.8H107.786L111.89 37.91L115.994 21.8H120.548L124.652 37.91L128.756 21.8H133.886L127.478 47H121.862L118.28 32.996L114.716 47H109.1ZM142.158 47.468C140.502 47.468 138.99 47.042 137.622 46.19C136.266 45.338 135.18 44.192 134.364 42.752C133.56 41.312 133.158 39.722 133.158 37.982C133.158 36.674 133.392 35.45 133.86 34.31C134.328 33.158 134.97 32.15 135.786 31.286C136.614 30.41 137.574 29.726 138.666 29.234C139.758 28.742 140.922 28.496 142.158 28.496C143.586 28.496 144.888 28.802 146.064 29.414C147.252 30.026 148.254 30.86 149.07 31.916C149.898 32.972 150.486 34.166 150.834 35.498C151.194 36.83 151.254 38.216 151.014 39.656H138.522C138.678 40.184 138.918 40.664 139.242 41.096C139.578 41.516 139.986 41.852 140.466 42.104C140.958 42.356 141.522 42.488 142.158 42.5C142.782 42.512 143.358 42.368 143.886 42.068C144.414 41.768 144.864 41.366 145.236 40.862L150.312 42.032C149.58 43.628 148.488 44.936 147.036 45.956C145.584 46.964 143.958 47.468 142.158 47.468ZM138.342 35.984H145.992C145.836 35.384 145.572 34.844 145.2 34.364C144.828 33.884 144.378 33.506 143.85 33.23C143.334 32.954 142.77 32.816 142.158 32.816C141.558 32.816 140.994 32.954 140.466 33.23C139.95 33.506 139.506 33.884 139.134 34.364C138.774 34.832 138.51 35.372 138.342 35.984ZM163.366 28.496C165.118 28.496 166.708 28.922 168.136 29.774C169.576 30.626 170.722 31.772 171.574 33.212C172.426 34.64 172.852 36.224 172.852 37.964C172.852 39.272 172.606 40.502 172.114 41.654C171.622 42.806 170.938 43.82 170.062 44.696C169.198 45.56 168.19 46.238 167.038 46.73C165.898 47.222 164.674 47.468 163.366 47.468C162.334 47.468 161.416 47.24 160.612 46.784C159.808 46.328 159.118 45.752 158.542 45.056V47H153.574V20H158.542V30.908C159.118 30.2 159.808 29.624 160.612 29.18C161.416 28.724 162.334 28.496 163.366 28.496ZM163.294 42.662C164.122 42.662 164.872 42.452 165.544 42.032C166.228 41.612 166.768 41.048 167.164 40.34C167.56 39.62 167.758 38.828 167.758 37.964C167.758 37.1 167.554 36.314 167.146 35.606C166.75 34.898 166.21 34.334 165.526 33.914C164.854 33.482 164.11 33.266 163.294 33.266C162.478 33.266 161.74 33.482 161.08 33.914C160.432 34.334 159.916 34.904 159.532 35.624C159.16 36.332 158.974 37.112 158.974 37.964C158.974 38.84 159.16 39.632 159.532 40.34C159.916 41.048 160.432 41.612 161.08 42.032C161.74 42.452 162.478 42.662 163.294 42.662ZM174.44 40.412V29H179.408V39.044C179.408 39.68 179.558 40.256 179.858 40.772C180.17 41.276 180.584 41.678 181.1 41.978C181.616 42.278 182.18 42.428 182.792 42.428C183.416 42.428 183.986 42.278 184.502 41.978C185.018 41.678 185.426 41.276 185.726 40.772C186.026 40.256 186.176 39.68 186.176 39.044V29H191.144L191.162 47H186.194L186.176 45.632C185.576 46.208 184.868 46.658 184.052 46.982C183.248 47.306 182.396 47.468 181.496 47.468C180.2 47.468 179.018 47.15 177.95 46.514C176.882 45.878 176.03 45.032 175.394 43.976C174.758 42.908 174.44 41.72 174.44 40.412ZM194.795 47L194.777 29H199.745L199.763 30.332C200.363 29.756 201.065 29.306 201.869 28.982C202.685 28.658 203.543 28.496 204.443 28.496C205.103 28.496 205.763 28.592 206.423 28.784L204.461 33.806C204.029 33.626 203.591 33.536 203.147 33.536C202.523 33.536 201.953 33.686 201.437 33.986C200.921 34.286 200.513 34.694 200.213 35.21C199.913 35.714 199.763 36.284 199.763 36.92V47H194.795ZM215.459 47.468C213.803 47.468 212.291 47.042 210.923 46.19C209.567 45.338 208.481 44.192 207.665 42.752C206.861 41.312 206.459 39.722 206.459 37.982C206.459 36.674 206.693 35.45 207.161 34.31C207.629 33.158 208.271 32.15 209.087 31.286C209.915 30.41 210.875 29.726 211.967 29.234C213.059 28.742 214.223 28.496 215.459 28.496C216.887 28.496 218.189 28.802 219.365 29.414C220.553 30.026 221.555 30.86 222.371 31.916C223.199 32.972 223.787 34.166 224.135 35.498C224.495 36.83 224.555 38.216 224.315 39.656H211.823C211.979 40.184 212.219 40.664 212.543 41.096C212.879 41.516 213.287 41.852 213.767 42.104C214.259 42.356 214.823 42.488 215.459 42.5C216.083 42.512 216.659 42.368 217.187 42.068C217.715 41.768 218.165 41.366 218.537 40.862L223.613 42.032C222.881 43.628 221.789 44.936 220.337 45.956C218.885 46.964 217.259 47.468 215.459 47.468ZM211.643 35.984H219.293C219.137 35.384 218.873 34.844 218.501 34.364C218.129 33.884 217.679 33.506 217.151 33.23C216.635 32.954 216.071 32.816 215.459 32.816C214.859 32.816 214.295 32.954 213.767 33.23C213.251 33.506 212.807 33.884 212.435 34.364C212.075 34.832 211.811 35.372 211.643 35.984ZM240.544 29H245.512V47H240.526L240.292 45.128C239.824 45.824 239.224 46.388 238.492 46.82C237.76 47.252 236.902 47.468 235.918 47.468C234.574 47.468 233.32 47.216 232.156 46.712C230.992 46.208 229.966 45.512 229.078 44.624C228.19 43.736 227.494 42.71 226.99 41.546C226.498 40.37 226.252 39.11 226.252 37.766C226.252 36.482 226.486 35.282 226.954 34.166C227.422 33.05 228.082 32.066 228.934 31.214C229.786 30.362 230.764 29.696 231.868 29.216C232.984 28.736 234.184 28.496 235.468 28.496C236.572 28.496 237.562 28.73 238.438 29.198C239.326 29.666 240.1 30.26 240.76 30.98L240.544 29ZM235.792 42.698C236.608 42.698 237.346 42.488 238.006 42.068C238.666 41.648 239.188 41.084 239.572 40.376C239.956 39.656 240.148 38.864 240.148 38C240.148 37.124 239.956 36.332 239.572 35.624C239.188 34.916 238.666 34.352 238.006 33.932C237.346 33.512 236.608 33.302 235.792 33.302C234.964 33.302 234.214 33.512 233.542 33.932C232.87 34.352 232.336 34.922 231.94 35.642C231.544 36.35 231.346 37.136 231.346 38C231.346 38.864 231.544 39.656 231.94 40.376C232.348 41.084 232.888 41.648 233.56 42.068C234.232 42.488 234.976 42.698 235.792 42.698ZM266.201 21.8H271.853L280.997 47H275.723L274.211 42.824H263.843L262.331 47H257.057L266.201 21.8ZM265.661 37.856H272.393L269.009 28.622L265.661 37.856ZM295.876 29H300.844V47.252C300.844 48.584 300.574 49.784 300.034 50.852C299.494 51.932 298.756 52.856 297.82 53.624C296.896 54.392 295.828 54.98 294.616 55.388C293.416 55.796 292.144 56 290.8 56C289.528 56 288.31 55.748 287.146 55.244C285.982 54.752 284.95 54.068 284.05 53.192C283.15 52.316 282.448 51.308 281.944 50.168L286.48 48.098C286.732 48.698 287.074 49.214 287.506 49.646C287.95 50.078 288.454 50.408 289.018 50.636C289.594 50.876 290.188 50.996 290.8 50.996C291.46 50.996 292.09 50.918 292.69 50.762C293.302 50.606 293.848 50.372 294.328 50.06C294.808 49.748 295.186 49.358 295.462 48.89C295.738 48.422 295.876 47.876 295.876 47.252V45.164C295.324 45.848 294.652 46.406 293.86 46.838C293.08 47.258 292.174 47.468 291.142 47.468C289.846 47.468 288.628 47.222 287.488 46.73C286.36 46.238 285.364 45.56 284.5 44.696C283.636 43.82 282.958 42.812 282.466 41.672C281.974 40.532 281.728 39.308 281.728 38C281.728 36.692 281.974 35.468 282.466 34.328C282.958 33.188 283.636 32.186 284.5 31.322C285.364 30.446 286.36 29.762 287.488 29.27C288.628 28.778 289.846 28.532 291.142 28.532C292.174 28.532 293.08 28.748 293.86 29.18C294.652 29.6 295.324 30.152 295.876 30.836V29ZM291.214 42.698C292.03 42.698 292.768 42.488 293.428 42.068C294.088 41.636 294.604 41.066 294.976 40.358C295.36 39.65 295.552 38.864 295.552 38C295.552 37.136 295.36 36.35 294.976 35.642C294.604 34.922 294.088 34.352 293.428 33.932C292.768 33.512 292.03 33.302 291.214 33.302C290.41 33.302 289.672 33.512 289 33.932C288.34 34.352 287.812 34.922 287.416 35.642C287.02 36.35 286.822 37.136 286.822 38C286.822 38.864 287.02 39.656 287.416 40.376C287.812 41.084 288.34 41.648 289 42.068C289.672 42.488 290.41 42.698 291.214 42.698ZM312.596 47.468C310.94 47.468 309.428 47.042 308.06 46.19C306.704 45.338 305.618 44.192 304.802 42.752C303.998 41.312 303.596 39.722 303.596 37.982C303.596 36.674 303.83 35.45 304.298 34.31C304.766 33.158 305.408 32.15 306.224 31.286C307.052 30.41 308.012 29.726 309.104 29.234C310.196 28.742 311.36 28.496 312.596 28.496C314.024 28.496 315.326 28.802 316.502 29.414C317.69 30.026 318.692 30.86 319.508 31.916C320.336 32.972 320.924 34.166 321.272 35.498C321.632 36.83 321.692 38.216 321.452 39.656H308.96C309.116 40.184 309.356 40.664 309.68 41.096C310.016 41.516 310.424 41.852 310.904 42.104C311.396 42.356 311.96 42.488 312.596 42.5C313.22 42.512 313.796 42.368 314.324 42.068C314.852 41.768 315.302 41.366 315.674 40.862L320.75 42.032C320.018 43.628 318.926 44.936 317.474 45.956C316.022 46.964 314.396 47.468 312.596 47.468ZM308.78 35.984H316.43C316.274 35.384 316.01 34.844 315.638 34.364C315.266 33.884 314.816 33.506 314.288 33.23C313.772 32.954 313.208 32.816 312.596 32.816C311.996 32.816 311.432 32.954 310.904 33.23C310.388 33.506 309.944 33.884 309.572 34.364C309.212 34.832 308.948 35.372 308.78 35.984ZM341.05 35.552V47H336.082V36.92C336.082 36.284 335.926 35.714 335.614 35.21C335.314 34.694 334.906 34.286 334.39 33.986C333.886 33.686 333.322 33.536 332.698 33.536C332.074 33.536 331.504 33.686 330.988 33.986C330.472 34.286 330.064 34.694 329.764 35.21C329.464 35.714 329.314 36.284 329.314 36.92V47H324.346L324.328 29H329.296L329.314 30.332C329.914 29.756 330.616 29.306 331.42 28.982C332.236 28.658 333.094 28.496 333.994 28.496C335.302 28.496 336.484 28.814 337.54 29.45C338.608 30.086 339.46 30.938 340.096 32.006C340.732 33.062 341.05 34.244 341.05 35.552ZM354.953 41.312L359.417 43.724C358.589 44.852 357.551 45.758 356.303 46.442C355.055 47.126 353.693 47.468 352.217 47.468C350.561 47.468 349.049 47.042 347.681 46.19C346.325 45.338 345.239 44.198 344.423 42.77C343.619 41.33 343.217 39.74 343.217 38C343.217 36.68 343.451 35.45 343.919 34.31C344.387 33.158 345.029 32.15 345.845 31.286C346.673 30.41 347.633 29.726 348.725 29.234C349.817 28.742 350.981 28.496 352.217 28.496C353.693 28.496 355.055 28.838 356.303 29.522C357.551 30.206 358.589 31.124 359.417 32.276L354.953 34.688C354.581 34.292 354.155 33.992 353.675 33.788C353.207 33.572 352.721 33.464 352.217 33.464C351.449 33.464 350.759 33.674 350.147 34.094C349.547 34.514 349.067 35.072 348.707 35.768C348.359 36.452 348.185 37.196 348.185 38C348.185 38.792 348.365 39.53 348.725 40.214C349.085 40.898 349.565 41.45 350.165 41.87C350.777 42.29 351.461 42.5 352.217 42.5C352.733 42.5 353.225 42.392 353.693 42.176C354.161 41.96 354.581 41.672 354.953 41.312ZM373.379 29H378.671L368.807 56H363.551L366.791 47L360.311 29H365.747L369.275 40.214L373.379 29Z" fill="#1A1A1A"/>
<defs>
<linearGradient id="paint0_linear_710_1498" x1="47.8029" y1="-6.98361" x2="47.0386" y2="71.7139" gradientUnits="userSpaceOnUse">
<stop stop-color="#FBC31C"/>
<stop offset="1" stop-color="#EA3E3A"/>
</linearGradient>
</defs>
</svg>
