<svg width="87" height="61" viewBox="0 0 87 61" fill="none" xmlns="http://www.w3.org/2000/svg">
<path d="M63.9161 58.0371C61.7864 59.4481 59.3009 60.5581 56.7361 60.9038C54.8131 61.1649 52.5897 60.9367 51.0272 59.6951C49.7917 58.712 49.085 57.2234 48.6548 55.723C48.174 54.0252 47.9841 52.2543 47.4024 50.5823C47.0082 49.4441 46.4145 47.8732 45.3929 47.137C42.3665 44.95 39.6238 52.0262 38.9436 53.6818C33.1746 67.5426 22.1174 57.2845 22.1174 57.2845C18.8124 54.1228 15.7317 50.7443 12.8966 47.1723C10.6136 44.2923 8.5412 41.2581 6.69497 38.0925C1.46203 29.0644 -3.54015 17.179 3.40186 7.7347C5.16555 5.34961 7.48033 3.40602 10.1575 2.0623C12.8347 0.71857 15.7985 0.0127538 18.8075 0.0023556C23.8374 0.0023556 28.6613 1.95722 32.2181 5.43691C35.7748 8.9166 37.773 13.636 37.773 18.5571C37.7758 20.7328 37.386 22.8918 36.6216 24.9348C35.6337 28.4929 33.653 32.8154 29.8527 37.5845C27.9681 39.9503 27.9609 43.1509 29.8839 44.9947C30.2844 45.3756 30.7486 45.6866 31.2564 45.9142C32.1299 46.2947 33.0963 46.4229 34.0417 46.2837C34.9873 46.1445 35.8724 45.7438 36.5928 45.1287C38.535 43.4826 38.6767 40.837 39.3787 38.5934C40.1382 36.1617 42.0036 33.8172 44.1164 32.3333C46.013 31.0022 48.5177 30.3367 50.7316 31.0587C52.8421 31.7477 54.2747 33.5703 54.9814 35.5668C55.8611 38.0502 55.1352 40.8181 55.9308 43.3509C57.0174 46.8125 61.5556 50.2648 65.3055 48.4587C65.9073 48.1637 66.4327 47.7385 66.8417 47.2153C67.2507 46.6921 67.5326 46.0847 67.666 45.4392C67.7882 44.7917 67.7582 44.1256 67.5782 43.4912C67.3983 42.8568 67.0732 42.2708 66.6275 41.7776C65.9377 41.025 65.0026 40.5406 64.106 40.0326C61.4855 38.5478 59.0632 36.7507 56.8948 34.6825C55.8975 33.7364 54.966 32.726 54.1064 31.6583C53.6256 31.0492 53.1641 30.4213 52.7387 29.777C52.3854 29.2361 52.092 28.3659 51.6377 27.9121C51.637 27.9066 51.637 27.9011 51.6377 27.8956C49.9449 25.0617 49.0554 21.8371 49.061 18.5548C49.0606 16.1182 49.5509 13.7055 50.5038 11.4543C51.4566 9.20321 52.8533 7.1577 54.6143 5.4347C56.3752 3.7117 58.4658 2.34493 60.7666 1.41244C63.0675 0.479948 65.5336 0 68.0241 0C71.5067 0.00107923 74.922 0.939099 77.8962 2.71148C80.7935 4.44625 83.1652 6.90609 84.7662 9.83704C86.5978 13.1976 87.0425 16.7651 86.9969 20.5231C86.9584 23.9213 86.1772 27.2842 84.9897 30.4684C83.7799 33.6347 82.2407 36.671 80.3962 39.5294C78.6512 42.2647 76.7241 44.8846 74.6272 47.3722C71.512 51.0996 68.1178 55.2527 63.9161 58.0371Z" fill="url(#paint0_linear_3211_2743)"/>
<defs>
<linearGradient id="paint0_linear_3211_2743" x1="43.7896" y1="-8.43077" x2="43.0855" y2="65.424" gradientUnits="userSpaceOnUse">
<stop stop-color="#FBC31C"/>
<stop offset="1" stop-color="#EA3E3A"/>
</linearGradient>
</defs>
</svg>
