<svg width="41" height="29" viewBox="0 0 41 29" fill="none" xmlns="http://www.w3.org/2000/svg">
<path d="M30.1214 27.5914C29.1177 28.2622 27.9464 28.7899 26.7377 28.9543C25.8315 29.0784 24.7836 28.9699 24.0473 28.3796C23.4651 27.9123 23.132 27.2046 22.9293 26.4913C22.7027 25.6841 22.6132 24.8422 22.339 24.0473C22.1533 23.5062 21.8735 22.7594 21.392 22.4094C19.9658 21.3696 18.6733 24.7338 18.3527 25.5208C15.634 32.1104 10.4231 27.2336 10.4231 27.2336C8.86559 25.7305 7.41379 24.1243 6.07773 22.4262C5.00182 21.057 4.02516 19.6145 3.1551 18.1096C0.689002 13.8175 -1.66835 8.16707 1.60318 3.67715C2.43434 2.54325 3.52521 1.61926 4.78686 0.980436C6.04853 0.341615 7.44528 0.00606326 8.8633 0.00111988C11.2337 0.00111988 13.5071 0.93048 15.1832 2.58476C16.8594 4.23904 17.8011 6.4827 17.8011 8.82224C17.8024 9.85656 17.6187 10.883 17.2585 11.8543C16.7929 13.5458 15.8595 15.6007 14.0685 17.8681C13.1804 18.9928 13.177 20.5144 14.0832 21.3909C14.272 21.572 14.4907 21.7199 14.73 21.8281C15.1417 22.0089 15.5971 22.0699 16.0427 22.0037C16.4883 21.9376 16.9054 21.7471 17.2449 21.4546C18.1602 20.672 18.227 19.4143 18.5578 18.3477C18.9157 17.1916 19.7948 16.077 20.7905 15.3716C21.6843 14.7387 22.8647 14.4224 23.908 14.7656C24.9026 15.0932 25.5777 15.9596 25.9108 16.9088C26.3254 18.0894 25.9833 19.4053 26.3582 20.6094C26.8703 22.2551 29.009 23.8964 30.7762 23.0377C31.0598 22.8975 31.3074 22.6954 31.5001 22.4466C31.6929 22.1979 31.8257 21.9091 31.8886 21.6022C31.9462 21.2944 31.932 20.9777 31.8472 20.6761C31.7624 20.3745 31.6092 20.096 31.3992 19.8615C31.0741 19.5037 30.6334 19.2734 30.2109 19.0319C28.9759 18.326 27.8344 17.4716 26.8125 16.4884C26.3425 16.0386 25.9035 15.5583 25.4984 15.0507C25.2718 14.7611 25.0544 14.4626 24.8539 14.1563C24.6874 13.8991 24.5491 13.4854 24.335 13.2697C24.3347 13.2671 24.3347 13.2645 24.335 13.2618C23.5372 11.9146 23.118 10.3816 23.1207 8.82113C23.1205 7.66273 23.3516 6.51572 23.8006 5.44548C24.2496 4.3753 24.9079 3.40284 25.7378 2.58371C26.5676 1.76458 27.5528 1.1148 28.6371 0.671488C29.7215 0.228172 30.8837 0 32.0573 0C33.6986 0.000513077 35.3081 0.446457 36.7097 1.28906C38.0751 2.11379 39.1928 3.28322 39.9473 4.67663C40.8105 6.27426 41.02 7.97031 40.9985 9.75689C40.9804 11.3724 40.6122 12.9712 40.0526 14.485C39.4825 15.9903 38.7571 17.4338 37.8879 18.7927C37.0655 20.0931 36.1573 21.3386 35.1692 22.5212C33.701 24.2932 32.1015 26.2677 30.1214 27.5914Z" fill="url(#paint0_linear_3211_2743)"/>
<defs>
<linearGradient id="paint0_linear_3211_2743" x1="20.6365" y1="-4.00807" x2="20.2988" y2="31.1032" gradientUnits="userSpaceOnUse">
<stop stop-color="#FBC31C"/>
<stop offset="1" stop-color="#EA3E3A"/>
</linearGradient>
</defs>
</svg>
