<svg width="55" height="45" viewBox="0 0 55 45" fill="none" xmlns="http://www.w3.org/2000/svg">
<path d="M40.4068 42.8143C39.0604 43.8552 37.4891 44.674 35.8677 44.929C34.652 45.1216 33.2463 44.9533 32.2586 44.0373C31.4775 43.3122 31.0308 42.214 30.7588 41.1072C30.4548 39.8546 30.3348 38.5483 29.967 37.3148C29.7178 36.4751 29.3425 35.3163 28.6966 34.7733C26.7835 33.1598 25.0496 38.38 24.6195 39.6013C20.9725 49.8265 13.9823 42.2591 13.9823 42.2591C11.8929 39.9267 9.94531 37.4343 8.15306 34.7993C6.70975 32.6746 5.39963 30.4363 4.23246 28.101C0.92427 21.441 -2.23803 12.673 2.1506 5.7059C3.26558 3.94643 4.72895 2.51264 6.42142 1.52137C8.1139 0.530096 9.98759 0.00940833 11.8898 0.00173654C15.0697 0.00173654 18.1193 1.44385 20.3678 4.01084C22.6163 6.57782 23.8795 10.0594 23.8795 13.6897C23.8813 15.2946 23.6348 16.8874 23.1516 18.3946C22.527 21.0194 21.2749 24.208 18.8724 27.7263C17.681 29.4716 17.6764 31.8327 18.8921 33.1928C19.1453 33.4738 19.4388 33.7032 19.7598 33.8711C20.312 34.1518 20.923 34.2464 21.5207 34.1437C22.1184 34.041 22.678 33.7454 23.1334 33.2917C24.3612 32.0773 24.4508 30.1256 24.8946 28.4706C25.3748 26.6767 26.554 24.9471 27.8897 23.8524C29.0887 22.8705 30.6721 22.3795 32.0717 22.9121C33.4059 23.4204 34.3116 24.7649 34.7584 26.2378C35.3146 28.0698 34.8556 30.1117 35.3586 31.9802C36.0455 34.5338 38.9145 37.0806 41.2851 35.7482C41.6656 35.5306 41.9977 35.2169 42.2563 34.831C42.5148 34.445 42.693 33.9969 42.7774 33.5207C42.8546 33.0431 42.8356 32.5517 42.7219 32.0837C42.6082 31.6157 42.4026 31.1834 42.1209 30.8195C41.6847 30.2644 41.0936 29.907 40.5268 29.5323C38.8701 28.4369 37.3388 27.1112 35.968 25.5855C35.3375 24.8875 34.7486 24.1422 34.2052 23.3545C33.9013 22.9052 33.6095 22.442 33.3406 21.9666C33.1172 21.5676 32.9318 20.9257 32.6446 20.5909C32.6441 20.5869 32.6441 20.5828 32.6446 20.5787C31.5744 18.4881 31.012 16.1094 31.0156 13.6879C31.0154 11.8905 31.3253 10.1106 31.9277 8.44992C32.53 6.78923 33.4131 5.28027 34.5263 4.00921C35.6395 2.73814 36.9611 1.72987 38.4157 1.04197C39.8703 0.354062 41.4293 -1.44405e-08 43.0038 0C45.2054 0.000795645 47.3645 0.692778 49.2448 2.00027C51.0764 3.28002 52.5757 5.09465 53.5878 7.25685C54.7458 9.73595 55.0269 12.3677 54.998 15.14C54.9737 17.6469 54.4798 20.1277 53.7292 22.4767C52.9643 24.8125 51.9912 27.0524 50.8252 29.161C49.7221 31.1789 48.5038 33.1117 47.1781 34.9467C45.2087 37.6965 43.063 40.7602 40.4068 42.8143Z" fill="url(#paint0_linear_1723_13388)"/>
<defs>
<linearGradient id="paint0_linear_1723_13388" x1="27.6831" y1="-6.21942" x2="27.077" y2="48.2618" gradientUnits="userSpaceOnUse">
<stop stop-color="#FBC31C"/>
<stop offset="1" stop-color="#EA3E3A"/>
</linearGradient>
</defs>
</svg>
