<svg width="50" height="50" viewBox="0 0 50 50" fill="none" xmlns="http://www.w3.org/2000/svg">
<g clip-path="url(#clip0_1723_13390)">
<path d="M29.492 0.292965C29.5893 0.311847 29.6866 0.33073 29.7869 0.350185C34.3234 1.24655 38.5034 3.29033 41.8943 6.44531C42.0302 6.56378 42.1665 6.68181 42.3033 6.79931C42.9351 7.35119 43.5042 7.95114 44.0428 8.59375C44.0842 8.64306 44.1256 8.69238 44.1683 8.74319C45.3663 10.179 46.3995 11.7214 47.2654 13.3789C47.3231 13.488 47.3231 13.488 47.382 13.5992C48.5078 15.7532 49.2674 18.1202 49.7068 20.5078C49.7225 20.586 49.7382 20.6642 49.7544 20.7447C50.2908 23.4867 50.2668 26.7568 49.7068 29.4922C49.6879 29.5895 49.6691 29.6868 49.6496 29.7871C48.8742 33.7112 47.2491 37.4128 44.7264 40.5273C44.6578 40.6147 44.5891 40.7021 44.5185 40.7921C42.3644 43.4975 39.6776 45.6589 36.6209 47.2656C36.5478 47.3044 36.4746 47.3431 36.3993 47.3831C34.2458 48.5085 31.879 49.2677 29.492 49.707C29.4138 49.7227 29.3356 49.7384 29.255 49.7546C26.5131 50.291 23.243 50.267 20.5076 49.707C20.3616 49.6787 20.3616 49.6787 20.2127 49.6498C16.2886 48.8744 12.587 47.2493 9.47245 44.7266C9.38509 44.658 9.29773 44.5893 9.20771 44.5187C6.50226 42.3646 4.34085 39.6778 2.73417 36.6211C2.69542 36.5479 2.65666 36.4748 2.61673 36.3995C1.49133 34.246 0.732061 31.8792 0.292766 29.4922C0.26921 29.3749 0.26921 29.3749 0.245178 29.2552C-0.291164 26.5133 -0.267192 23.2432 0.292766 20.5078C0.32109 20.3618 0.32109 20.3618 0.349987 20.2129C1.2464 15.6762 3.29027 11.4968 6.44511 8.10546C6.56154 7.97159 6.67752 7.83732 6.79301 7.70263C7.38091 7.03132 8.01129 6.44381 8.70799 5.88607C8.88396 5.74461 9.05815 5.60088 9.22984 5.45425C10.4922 4.38166 11.9128 3.50024 13.3787 2.73437C13.4514 2.6959 13.5241 2.65742 13.5991 2.61778C15.753 1.49195 18.12 0.732374 20.5076 0.292965C20.5858 0.27726 20.664 0.261556 20.7446 0.245376C23.4865 -0.290966 26.7566 -0.266993 29.492 0.292965Z" fill="#362619"/>
<path d="M29.492 0.292965C29.5893 0.311847 29.6866 0.33073 29.7869 0.350185C34.3234 1.24655 38.5034 3.29033 41.8943 6.44531C42.0302 6.56378 42.1665 6.68181 42.3033 6.79931C42.9351 7.35119 43.5042 7.95114 44.0428 8.59375C44.0842 8.64306 44.1256 8.69238 44.1683 8.74319C45.3663 10.179 46.3995 11.7214 47.2654 13.3789C47.3231 13.488 47.3231 13.488 47.382 13.5992C48.5078 15.7532 49.2674 18.1202 49.7068 20.5078C49.7225 20.586 49.7382 20.6642 49.7544 20.7447C50.2908 23.4867 50.2668 26.7568 49.7068 29.4922C49.6879 29.5895 49.6691 29.6868 49.6496 29.7871C48.8742 33.7112 47.2491 37.4128 44.7264 40.5273C44.6578 40.6147 44.5891 40.7021 44.5185 40.7921C42.3644 43.4975 39.6776 45.6589 36.6209 47.2656C36.5478 47.3044 36.4746 47.3431 36.3993 47.3831C34.2458 48.5085 31.879 49.2677 29.492 49.707C29.4138 49.7227 29.3356 49.7384 29.255 49.7546C26.5131 50.291 23.243 50.267 20.5076 49.707C20.3616 49.6787 20.3616 49.6787 20.2127 49.6498C16.2886 48.8744 12.587 47.2493 9.47245 44.7266C9.38509 44.658 9.29773 44.5893 9.20771 44.5187C6.50226 42.3646 4.34085 39.6778 2.73417 36.6211C2.69542 36.5479 2.65666 36.4748 2.61673 36.3995C1.49133 34.246 0.732061 31.8792 0.292766 29.4922C0.26921 29.3749 0.26921 29.3749 0.245178 29.2552C-0.291164 26.5133 -0.267192 23.2432 0.292766 20.5078C0.32109 20.3618 0.32109 20.3618 0.349987 20.2129C1.2464 15.6762 3.29027 11.4968 6.44511 8.10546C6.56154 7.97159 6.67752 7.83732 6.79301 7.70263C7.38091 7.03132 8.01129 6.44381 8.70799 5.88607C8.88396 5.74461 9.05815 5.60088 9.22984 5.45425C10.4922 4.38166 11.9128 3.50024 13.3787 2.73437C13.4514 2.6959 13.5241 2.65742 13.5991 2.61778C15.753 1.49195 18.12 0.732374 20.5076 0.292965C20.5858 0.27726 20.664 0.261556 20.7446 0.245376C23.4865 -0.290966 26.7566 -0.266993 29.492 0.292965ZM9.27714 7.42187C9.2277 7.46514 9.17826 7.50842 9.12732 7.553C5.95428 10.3429 3.49058 14.1883 2.34355 18.2617C2.31991 18.3448 2.29628 18.4279 2.27193 18.5135C1.66219 20.6962 1.4394 22.7891 1.43412 25.0488C1.43376 25.1363 1.43339 25.2238 1.43301 25.3139C1.43063 26.4301 1.48765 27.5097 1.65995 28.6133C1.68211 28.7559 1.68211 28.7559 1.7047 28.9015C1.88069 29.9674 2.11665 31.0015 2.46915 32.0228C2.54441 32.2428 2.61604 32.4638 2.68763 32.6851C4.0505 36.8223 6.70856 40.6769 10.156 43.3594C10.2965 43.473 10.2965 43.473 10.4399 43.589C15.3637 47.5057 21.6419 49.1173 27.8623 48.4604C28.5081 48.3791 29.1464 48.2697 29.785 48.1445C29.9013 48.1234 29.9013 48.1234 30.02 48.1018C34.4615 47.2865 38.4709 44.7596 41.699 41.6992C41.7727 41.6297 41.8463 41.5602 41.9222 41.4886C42.4484 40.9782 42.9047 40.4181 43.3592 39.8437C43.4356 39.7495 43.512 39.6552 43.5907 39.558C45.1401 37.6071 46.3074 35.4372 47.1678 33.1055C47.1982 33.0239 47.2287 32.9423 47.2601 32.8583C48.1856 30.3512 48.5776 27.7432 48.5716 25.0793C48.5715 24.99 48.5715 24.9006 48.5714 24.8086C48.565 22.4608 48.2863 20.2102 47.5584 17.9687C47.5302 17.8816 47.502 17.7945 47.473 17.7048C46.0572 13.4167 43.4263 9.42832 39.8435 6.64062C39.7499 6.56484 39.6562 6.48906 39.5597 6.41098C32.228 0.578932 21.7207 -0.21006 9.27714 7.42187Z" fill="#F57A18"/>
<path d="M20.7729 16.3448C20.8642 16.3446 20.9556 16.3444 21.0497 16.3441C21.2425 16.3442 21.4352 16.3455 21.6279 16.348C21.9224 16.3513 22.2167 16.35 22.5112 16.3481C22.6988 16.3487 22.8864 16.3497 23.0739 16.3509C23.2056 16.3502 23.2056 16.3502 23.34 16.3495C23.7086 16.3564 23.9666 16.3788 24.301 16.5413C24.6179 16.9265 24.7566 17.3492 24.9195 17.8169C24.9568 17.9202 24.9941 18.0234 25.0325 18.1298C25.1534 18.4662 25.272 18.8033 25.3902 19.1406C25.4699 19.3657 25.5497 19.5907 25.6295 19.8157C25.8596 20.4672 26.0868 21.1197 26.3136 21.7723C26.5165 22.3559 26.7204 22.9392 26.9241 23.5226C26.9465 23.5867 26.9688 23.6508 26.9919 23.7168C27.3628 24.779 27.7375 25.8397 28.1167 26.8989C28.2033 27.1406 28.2897 27.3824 28.376 27.6242C28.6589 28.4157 28.9437 29.2066 29.2309 29.9966C29.3784 30.403 29.5251 30.8097 29.6716 31.2165C29.7422 31.4117 29.8132 31.6068 29.8846 31.8017C29.9834 32.0715 30.0808 32.3418 30.178 32.6122C30.2075 32.6918 30.2371 32.7713 30.2675 32.8533C30.4284 33.306 30.5349 33.6931 30.4683 34.1797C30.3253 34.4145 30.3253 34.4145 30.0777 34.5703C29.7866 34.6092 29.5324 34.6251 29.2415 34.6222C29.1202 34.6228 29.1202 34.6228 28.9964 34.6233C28.8257 34.6236 28.6549 34.6229 28.4842 34.6212C28.2231 34.6191 27.9622 34.6212 27.7011 34.6237C27.5351 34.6235 27.369 34.623 27.2029 34.6222C27.125 34.623 27.0471 34.6238 26.9668 34.6246C26.6485 34.6192 26.4154 34.6003 26.1416 34.4316C25.8931 34.0533 25.7605 33.6506 25.6176 33.223C25.575 33.0997 25.575 33.0997 25.5315 32.974C25.4262 32.6683 25.3229 32.3619 25.2193 32.0557C24.9857 31.3708 24.752 30.686 24.5113 29.9805C22.8355 29.9805 21.1597 29.9805 19.4332 29.9805C19.0036 31.3078 19.0036 31.3078 18.5773 32.6361C18.5225 32.8032 18.4677 32.9702 18.4127 33.1371C18.3857 33.2232 18.3587 33.3093 18.3309 33.3979C18.1662 33.8926 18.02 34.2602 17.5777 34.5703C17.305 34.6192 17.0927 34.6391 16.8209 34.6352C16.7131 34.6359 16.7131 34.6359 16.6031 34.6366C16.4518 34.6369 16.3004 34.636 16.1491 34.634C15.9181 34.6314 15.6877 34.6339 15.4567 34.6371C15.3092 34.6367 15.1617 34.6361 15.0142 34.6352C14.9114 34.6366 14.9114 34.6366 14.8064 34.6382C14.4485 34.6297 14.259 34.5714 13.9598 34.3709C13.7475 34.0493 13.7341 33.8883 13.809 33.5137C13.9128 33.1311 14.0376 32.76 14.1742 32.3879C14.2217 32.2555 14.2217 32.2555 14.2701 32.1205C14.3389 31.9289 14.408 31.7374 14.4774 31.546C14.668 31.0206 14.8558 30.4942 15.044 29.9679C15.0836 29.8574 15.1231 29.7469 15.1639 29.6331C15.6043 28.4015 16.0296 27.1647 16.4547 25.9277C17.1347 23.9504 17.8262 21.9774 18.5295 20.0083C18.5793 19.8685 18.5793 19.8685 18.6301 19.7259C18.6914 19.5537 18.7529 19.3817 18.8147 19.2097C19.0636 18.5109 19.2578 17.8791 19.2733 17.1318C19.4783 16.3498 20.0946 16.3348 20.7729 16.3448Z" fill="#392719"/>
<path d="M20.7729 16.3448C20.8642 16.3446 20.9556 16.3444 21.0497 16.3441C21.2425 16.3442 21.4352 16.3455 21.6279 16.348C21.9224 16.3513 22.2167 16.35 22.5112 16.3481C22.6988 16.3487 22.8864 16.3497 23.0739 16.3509C23.2056 16.3502 23.2056 16.3502 23.34 16.3495C23.7086 16.3564 23.9666 16.3788 24.301 16.5413C24.6179 16.9265 24.7566 17.3492 24.9195 17.8169C24.9568 17.9202 24.9941 18.0234 25.0325 18.1298C25.1534 18.4662 25.272 18.8033 25.3902 19.1406C25.4699 19.3657 25.5497 19.5907 25.6295 19.8157C25.8596 20.4672 26.0868 21.1197 26.3136 21.7723C26.5165 22.3559 26.7204 22.9392 26.9241 23.5226C26.9465 23.5867 26.9688 23.6508 26.9919 23.7168C27.3628 24.779 27.7375 25.8397 28.1167 26.8989C28.2033 27.1406 28.2897 27.3824 28.376 27.6242C28.6589 28.4157 28.9437 29.2066 29.2309 29.9966C29.3784 30.403 29.5251 30.8097 29.6716 31.2165C29.7422 31.4117 29.8132 31.6068 29.8846 31.8017C29.9834 32.0715 30.0808 32.3418 30.178 32.6122C30.2075 32.6918 30.2371 32.7713 30.2675 32.8533C30.4284 33.306 30.5349 33.6931 30.4683 34.1797C30.3253 34.4145 30.3253 34.4145 30.0777 34.5703C29.7866 34.6092 29.5324 34.6251 29.2415 34.6222C29.1202 34.6228 29.1202 34.6228 28.9964 34.6233C28.8257 34.6236 28.6549 34.6229 28.4842 34.6212C28.2231 34.6191 27.9622 34.6212 27.7011 34.6237C27.5351 34.6235 27.369 34.623 27.2029 34.6222C27.125 34.623 27.0471 34.6238 26.9668 34.6246C26.6485 34.6192 26.4154 34.6003 26.1416 34.4316C25.8931 34.0533 25.7605 33.6506 25.6176 33.223C25.575 33.0997 25.575 33.0997 25.5315 32.974C25.4262 32.6683 25.3229 32.3619 25.2193 32.0557C24.9857 31.3708 24.752 30.686 24.5113 29.9805C22.8355 29.9805 21.1597 29.9805 19.4332 29.9805C19.0036 31.3078 19.0036 31.3078 18.5773 32.6361C18.5225 32.8032 18.4677 32.9702 18.4127 33.1371C18.3857 33.2232 18.3587 33.3093 18.3309 33.3979C18.1662 33.8926 18.02 34.2602 17.5777 34.5703C17.305 34.6192 17.0927 34.6391 16.8209 34.6352C16.7131 34.6359 16.7131 34.6359 16.6031 34.6366C16.4518 34.6369 16.3004 34.636 16.1491 34.634C15.9181 34.6314 15.6877 34.6339 15.4567 34.6371C15.3092 34.6367 15.1617 34.6361 15.0142 34.6352C14.9114 34.6366 14.9114 34.6366 14.8064 34.6382C14.4485 34.6297 14.259 34.5714 13.9598 34.3709C13.7475 34.0493 13.7341 33.8883 13.809 33.5137C13.9128 33.1311 14.0376 32.76 14.1742 32.3879C14.2217 32.2555 14.2217 32.2555 14.2701 32.1205C14.3389 31.9289 14.408 31.7374 14.4774 31.546C14.668 31.0206 14.8558 30.4942 15.044 29.9679C15.0836 29.8574 15.1231 29.7469 15.1639 29.6331C15.6043 28.4015 16.0296 27.1647 16.4547 25.9277C17.1347 23.9504 17.8262 21.9774 18.5295 20.0083C18.5793 19.8685 18.5793 19.8685 18.6301 19.7259C18.6914 19.5537 18.7529 19.3817 18.8147 19.2097C19.0636 18.5109 19.2578 17.8791 19.2733 17.1318C19.4783 16.3498 20.0946 16.3348 20.7729 16.3448ZM20.4097 17.5781C20.3131 18.0293 20.2164 18.4805 20.1168 18.9453C19.9814 19.3741 19.8416 19.7958 19.6903 20.2187C19.6486 20.3374 19.6068 20.4562 19.5638 20.5786C19.451 20.8996 19.3373 21.2203 19.2233 21.541C19.1032 21.8794 18.9841 22.2181 18.8649 22.5569C18.6915 23.0496 18.5178 23.5422 18.3437 24.0347C18.0267 24.9314 17.7116 25.8287 17.3976 26.7265C17.3747 26.7921 17.3518 26.8577 17.3282 26.9253C17.2372 27.1855 17.1462 27.4457 17.0552 27.706C16.8654 28.2489 16.6754 28.7916 16.4852 29.3343C16.3699 29.6637 16.2548 29.9932 16.1397 30.3226C15.9892 30.753 15.8377 31.183 15.6855 31.6128C15.6131 31.8184 15.5406 32.024 15.4682 32.2296C15.4177 32.3712 15.4177 32.3712 15.3662 32.5156C15.3206 32.6453 15.3206 32.6453 15.2741 32.7776C15.2474 32.8531 15.2207 32.9285 15.1931 33.0063C15.1228 33.2159 15.1228 33.2159 15.1363 33.4961C15.7808 33.4961 16.4254 33.4961 17.0894 33.4961C17.2826 32.9071 17.4756 32.318 17.6682 31.7288C17.7337 31.5284 17.7994 31.3281 17.8651 31.1278C17.9597 30.8397 18.0539 30.5514 18.148 30.2631C18.1774 30.1738 18.2068 30.0845 18.2371 29.9924C18.2645 29.9084 18.2918 29.8244 18.32 29.7378C18.3561 29.6275 18.3561 29.6275 18.393 29.515C18.4606 29.2831 18.5069 29.0454 18.5543 28.8086C20.8101 28.8086 23.066 28.8086 25.3902 28.8086C25.4869 29.1631 25.5836 29.5176 25.6832 29.8828C25.7823 30.1829 25.8832 30.4807 25.9895 30.7781C26.0311 30.8961 26.0311 30.8961 26.0736 31.0165C26.1608 31.2634 26.2485 31.51 26.3362 31.7566C26.3961 31.9258 26.4559 32.0949 26.5157 32.2641C26.6609 32.675 26.8068 33.0855 26.9527 33.4961C27.6939 33.4961 28.4351 33.4961 29.1988 33.4961C28.9702 32.645 28.9702 32.645 28.7001 31.8139C28.6621 31.7067 28.6241 31.5996 28.585 31.4892C28.5444 31.3763 28.5039 31.2634 28.4622 31.147C28.4191 31.0261 28.3761 30.9051 28.3318 30.7805C28.216 30.455 28.0997 30.1296 27.9833 29.8043C27.8612 29.4629 27.7396 29.1212 27.6179 28.7796C27.4224 28.2307 27.2266 27.6818 27.0307 27.1329C26.7942 26.4706 26.5583 25.808 26.3229 25.1453C26.2902 25.0533 26.2575 24.9613 26.2238 24.8665C26.1601 24.6871 26.0963 24.5076 26.0326 24.3282C25.8789 23.8954 25.7249 23.4628 25.571 23.0301C25.1881 21.9537 24.8054 20.8772 24.4226 19.8007C24.2548 19.3288 24.087 18.8568 23.9193 18.3849C23.8246 18.1187 23.7299 17.8524 23.6324 17.5781C22.5689 17.5781 21.5054 17.5781 20.4097 17.5781Z" fill="#FB7D18"/>
<path d="M32.902 20.9511C32.9764 20.9512 33.0507 20.9513 33.1274 20.9513C33.2843 20.9519 33.4413 20.9535 33.5982 20.9559C33.838 20.9595 34.0777 20.9599 34.3176 20.9598C34.4703 20.9608 34.623 20.9619 34.7757 20.9633C34.8473 20.9635 34.9188 20.9637 34.9925 20.9639C35.3522 20.9706 35.6404 20.9782 35.9385 21.1914C36.1543 21.5151 36.1584 21.6141 36.1592 21.9909C36.1599 22.0957 36.1606 22.2006 36.1613 22.3087C36.1611 22.4237 36.1608 22.5388 36.1606 22.6573C36.1611 22.7785 36.1616 22.8997 36.1621 23.0245C36.1632 23.3571 36.1635 23.6896 36.1632 24.0221C36.1631 24.2997 36.1636 24.5774 36.1641 24.855C36.1652 25.5101 36.1652 26.1651 36.1646 26.8202C36.164 27.4958 36.1652 28.1714 36.1673 28.847C36.169 29.4271 36.1696 30.0073 36.1693 30.5874C36.1691 30.9339 36.1694 31.2803 36.1707 31.6267C36.1722 32.0132 36.1713 32.3997 36.1701 32.7861C36.1713 32.9581 36.1713 32.9581 36.1724 33.1336C36.1717 33.239 36.171 33.3445 36.1703 33.4531C36.1703 33.5444 36.1704 33.6358 36.1704 33.7299C36.1262 34.0373 36.0214 34.2221 35.8408 34.4726C35.5348 34.6257 35.2073 34.5903 34.8711 34.5936C34.7943 34.5944 34.7175 34.5952 34.6383 34.596C34.4756 34.5973 34.3129 34.5984 34.1502 34.5991C33.9015 34.6008 33.653 34.6051 33.4044 34.6094C33.2463 34.6104 33.0882 34.6112 32.9302 34.6119C32.8559 34.6136 32.7817 34.6153 32.7051 34.6171C32.3794 34.6157 32.1774 34.6068 31.9149 34.4053C31.7005 34.1299 31.6902 33.9955 31.6896 33.6497C31.6885 33.542 31.6874 33.4344 31.6863 33.3236C31.6871 33.206 31.6879 33.0883 31.6887 32.9672C31.688 32.843 31.6873 32.7188 31.6866 32.5908C31.6848 32.2504 31.6855 31.9101 31.6868 31.5697C31.6878 31.2134 31.6868 30.8571 31.6862 30.5008C31.6855 29.9025 31.6865 29.3042 31.6883 28.7059C31.6904 28.0143 31.6898 27.3227 31.6876 26.631C31.6858 26.0371 31.6856 25.4432 31.6866 24.8493C31.6872 24.4946 31.6873 24.14 31.686 23.7853C31.6847 23.3899 31.6865 22.9946 31.6887 22.5992C31.6879 22.4816 31.6871 22.364 31.6863 22.2428C31.6874 22.1352 31.6885 22.0276 31.6896 21.9167C31.6898 21.8233 31.6899 21.7298 31.6901 21.6335C31.822 20.9712 32.3223 20.9397 32.902 20.9511Z" fill="#FB7D18"/>
<path d="M21.4844 19.043C21.7744 19.043 22.0645 19.043 22.3633 19.043C22.5803 19.529 22.757 20.0144 22.9137 20.5227C22.949 20.6353 22.949 20.6353 22.9849 20.7503C23.035 20.9103 23.0849 21.0703 23.1346 21.2304C23.2647 21.6487 23.3959 22.0667 23.5271 22.4846C23.553 22.5671 23.5789 22.6495 23.6056 22.7345C23.8191 23.4128 24.0406 24.0881 24.2676 24.762C24.6744 25.9729 24.6744 25.9729 24.8535 26.5381C24.8827 26.6302 24.9119 26.7224 24.942 26.8173C25 27.0508 25 27.0508 25 27.4414C23.002 27.4414 21.0039 27.4414 18.9453 27.4414C19.0104 26.9855 19.0562 26.6702 19.2062 26.2581C19.2549 26.1222 19.2549 26.1222 19.3045 25.9835C19.3563 25.8411 19.3563 25.8411 19.4092 25.6958C19.6739 24.9529 19.9216 24.2106 20.1371 23.4521C20.2813 22.9478 20.4431 22.451 20.6116 21.9543C20.8612 21.2175 21.082 20.4767 21.2891 19.7266C21.3538 19.4986 21.419 19.2708 21.4844 19.043Z" fill="#F97C18"/>
<path d="M32.8125 22.0703C33.5215 22.0703 34.2305 22.0703 34.9609 22.0703C34.9609 25.8408 34.9609 29.6113 34.9609 33.4961C34.252 33.4961 33.543 33.4961 32.8125 33.4961C32.8125 29.7256 32.8125 25.9551 32.8125 22.0703Z" fill="#3B2819"/>
<path d="M34.949 15.5823C35.5073 15.8695 35.8127 16.2871 36.1209 16.8213C36.3275 17.5101 36.3308 18.1199 36.0293 18.7805C35.7227 19.3253 35.3505 19.675 34.7964 19.9585C34.0875 20.0923 33.3447 20.1488 32.7037 19.772C32.1764 19.3617 31.6539 18.8419 31.5432 18.1641C31.4501 17.4127 31.5874 16.8302 32.0315 16.2109C32.8345 15.4274 33.8826 15.1611 34.949 15.5823Z" fill="#FA7C18"/>
<path d="M21.875 21.6797C21.9395 21.6797 22.0039 21.6797 22.0703 21.6797C22.0926 21.7537 22.1148 21.8277 22.1377 21.904C22.3206 22.506 22.5105 23.1046 22.7127 23.7003C22.7447 23.7948 22.7447 23.7948 22.7774 23.8912C22.8651 24.1501 22.953 24.4089 23.0417 24.6675C23.1076 24.8596 23.1726 25.0521 23.2376 25.2445C23.276 25.3571 23.3145 25.4697 23.3541 25.5858C23.4375 25.8789 23.4375 25.8789 23.4375 26.2695C22.4707 26.2695 21.5039 26.2695 20.5078 26.2695C20.6371 25.6229 20.7725 25.0265 20.9785 24.4072C21.0171 24.289 21.0171 24.289 21.0565 24.1684C21.1376 23.9205 21.2194 23.6729 21.3013 23.4253C21.3569 23.2557 21.4125 23.0861 21.468 22.9164C21.6031 22.504 21.7388 22.0918 21.875 21.6797Z" fill="#3B2819"/>
<path d="M33.8683 16.5833C33.9535 16.5819 34.0387 16.5805 34.1265 16.5791C34.3901 16.6029 34.5429 16.6566 34.7655 16.7969C35.0734 17.1818 35.1105 17.4834 35.0585 17.9688C34.8835 18.3738 34.6839 18.5783 34.2772 18.75C33.6398 18.8309 33.6398 18.8309 33.319 18.6504C33.0559 18.4412 32.9193 18.2897 32.8124 17.9688C32.7631 17.4594 32.7631 17.4594 32.8124 17.1875C33.0504 16.9006 33.0504 16.9006 33.3006 16.6992C33.4615 16.5383 33.6476 16.5849 33.8683 16.5833Z" fill="#392719"/>
</g>
<defs>
<clipPath id="clip0_1723_13390">
<rect width="50" height="50" fill="white"/>
</clipPath>
</defs>
</svg>
