<svg width="50" height="50" viewBox="0 0 50 50" fill="none" xmlns="http://www.w3.org/2000/svg">
<g clip-path="url(#clip0_1722_1943)">
<path d="M0 0C16.5 0 33 0 50 0C50 16.5 50 33 50 50C33.5 50 17 50 0 50C0 33.5 0 17 0 0Z" fill="#1F0040"/>
<path d="M0 0C16.5 0 33 0 50 0C50 16.5 50 33 50 50C33.5 50 17 50 0 50C0 33.5 0 17 0 0ZM2.24609 2.24609C2.23715 7.25803 2.23027 12.27 2.22615 17.2819C2.22566 17.874 2.22515 18.4661 2.22464 19.0582C2.22453 19.1761 2.22443 19.2939 2.22433 19.4154C2.22263 21.3224 2.21955 23.2294 2.21596 25.1364C2.2123 27.0941 2.21013 29.0517 2.20934 31.0094C2.20881 32.2168 2.20712 33.4242 2.20394 34.6315C2.20187 35.4602 2.20125 36.2888 2.20176 37.1175C2.20201 37.5951 2.20163 38.0727 2.19953 38.5504C2.19761 38.9886 2.19754 39.4268 2.19887 39.8651C2.19903 40.0227 2.19855 40.1803 2.19731 40.3379C2.18204 42.4067 2.73029 44.2753 4.19922 45.8008C5.78271 47.3255 7.65747 47.8175 9.78683 47.8009C9.95164 47.8011 10.1164 47.8014 10.2812 47.8019C10.73 47.8028 11.1787 47.8012 11.6275 47.7992C12.1129 47.7975 12.5984 47.7981 13.0839 47.7984C13.9236 47.7986 14.7633 47.7974 15.6031 47.7952C16.8172 47.792 18.0313 47.791 19.2454 47.7905C21.2154 47.7897 23.1855 47.7871 25.1556 47.7834C27.0687 47.7798 28.9817 47.777 30.8947 47.7754C31.0718 47.7752 31.0718 47.7752 31.2524 47.7751C31.8447 47.7745 32.4369 47.774 33.0291 47.7736C37.9374 47.7695 42.8457 47.7626 47.7539 47.7539C47.7629 42.7279 47.7697 37.7018 47.7739 32.6758C47.7743 32.0821 47.7748 31.4884 47.7754 30.8947C47.7755 30.7765 47.7756 30.6584 47.7757 30.5366C47.7774 28.6241 47.7805 26.7117 47.784 24.7992C47.7877 22.8362 47.7899 20.8731 47.7907 18.91C47.7912 17.6992 47.7929 16.4884 47.7961 15.2775C47.7981 14.4467 47.7987 13.6158 47.7982 12.7849C47.798 12.3059 47.7984 11.8269 47.8005 11.3479C47.8024 10.9085 47.8025 10.4692 47.8011 10.0298C47.801 9.87164 47.8015 9.7135 47.8027 9.55536C47.8176 7.52053 47.2428 5.69676 45.8008 4.19922C44.1919 2.65003 42.2679 2.18217 40.1075 2.19912C39.943 2.19895 39.7785 2.19861 39.614 2.19811C39.1666 2.19724 38.7192 2.19879 38.2718 2.20076C37.7876 2.20245 37.3034 2.20187 36.8192 2.20158C35.9818 2.20137 35.1444 2.20259 34.307 2.20479C33.0963 2.20798 31.8856 2.20899 30.6749 2.20948C28.7103 2.21033 26.7457 2.21292 24.7811 2.21663C22.8734 2.22021 20.9658 2.22298 19.0582 2.22464C18.9405 2.22474 18.8227 2.22484 18.7014 2.22495C18.1108 2.22546 17.5201 2.22595 16.9295 2.22644C12.035 2.23048 7.14056 2.23736 2.24609 2.24609Z" fill="#D190FE"/>
<path d="M16.4064 16.4062C17.76 16.4062 19.1135 16.4062 20.508 16.4062C21.3288 18.666 22.1358 20.9304 22.9365 23.1973C23.748 25.4948 24.5658 27.7899 25.3903 30.0827C25.4913 30.3639 25.592 30.6452 25.6926 30.9265C25.8145 31.267 25.9383 31.6066 26.0637 31.9458C26.0919 32.023 26.1201 32.1003 26.1491 32.1798C26.2011 32.3223 26.2538 32.4645 26.3073 32.6064C26.4761 33.0724 26.4761 33.0724 26.3674 33.3984C25.9138 33.4105 25.4603 33.4194 25.0066 33.4253C24.8523 33.4277 24.698 33.431 24.5437 33.4353C24.3219 33.4412 24.1002 33.444 23.8783 33.4461C23.7748 33.4499 23.7748 33.4499 23.6693 33.4538C23.4738 33.4539 23.4738 33.4539 23.1447 33.3984C22.8138 33.0299 22.685 32.4829 22.5241 32.0183C22.4941 31.933 22.4642 31.8476 22.4334 31.7597C22.3705 31.5801 22.3079 31.4003 22.2455 31.2205C22.1499 30.9448 22.0531 30.6696 21.9563 30.3944C21.8952 30.2195 21.8342 30.0447 21.7733 29.8698C21.7299 29.7462 21.7299 29.7462 21.6855 29.6201C21.6591 29.5435 21.6327 29.4669 21.6054 29.388C21.582 29.3207 21.5586 29.2535 21.5345 29.1841C21.4846 29.0039 21.4846 29.0039 21.4846 28.7109C19.4865 28.7109 17.4885 28.7109 15.4299 28.7109C15.3654 29.001 15.301 29.291 15.2346 29.5898C15.192 29.7371 15.1471 29.8837 15.0974 30.0287C15.0723 30.1026 15.0472 30.1766 15.0214 30.2527C14.9949 30.329 14.9685 30.4054 14.9412 30.484C14.9135 30.5649 14.8859 30.6458 14.8574 30.7291C14.7994 30.8983 14.7412 31.0673 14.6828 31.2363C14.5931 31.496 14.5042 31.756 14.4154 32.016C14.3588 32.1808 14.3021 32.3456 14.2454 32.5104C14.2188 32.5883 14.1921 32.6662 14.1647 32.7465C13.9763 33.2895 13.9763 33.2895 13.8674 33.3984C13.6507 33.407 13.4338 33.4089 13.217 33.408C13.1196 33.4078 13.1196 33.4078 13.0203 33.4076C12.8124 33.407 12.6044 33.4058 12.3964 33.4045C12.2557 33.4041 12.115 33.4036 11.9743 33.4032C11.6288 33.4021 11.2832 33.4004 10.9377 33.3984C10.8149 33.0513 10.8659 32.8519 10.9878 32.5093C11.0229 32.4088 11.0581 32.3084 11.0943 32.2048C11.1337 32.0954 11.1732 31.986 11.2139 31.8733C11.2545 31.7582 11.2951 31.643 11.3369 31.5244C11.4482 31.2094 11.5604 30.8948 11.673 30.5804C11.7912 30.2494 11.9082 29.918 12.0253 29.5866C12.2185 29.0404 12.4123 28.4944 12.6065 27.9485C12.8689 27.211 13.1294 26.4728 13.389 25.7343C13.4282 25.623 13.4673 25.5116 13.5077 25.3968C13.6618 24.9585 13.8158 24.5201 13.9698 24.0816C14.0827 23.7601 14.1957 23.4386 14.3087 23.1171C14.3452 23.0134 14.3816 22.9096 14.4192 22.8028C14.6359 22.1867 14.8543 21.5711 15.0741 20.9561C15.212 20.5699 15.349 20.1835 15.4858 19.797C15.5491 19.6191 15.6127 19.4415 15.6767 19.2639C15.7645 19.0206 15.8508 18.7769 15.9369 18.5329C15.962 18.4644 15.9871 18.3959 16.013 18.3253C16.2393 17.6757 16.2967 17.1199 16.4064 16.4062Z" fill="#D08FFD"/>
<path d="M37.2741 21.6797C38.0778 22.3504 38.6591 23.3234 38.9648 24.3164C38.9866 24.3804 39.0084 24.4443 39.0308 24.5102C39.1784 25.0282 39.18 25.5517 39.1845 26.0864C39.1855 26.1611 39.1864 26.2357 39.1873 26.3126C39.1846 26.7896 39.1161 27.1842 38.9648 27.6367C38.5549 27.7363 38.1592 27.7476 37.7398 27.7455C37.6311 27.7455 37.6311 27.7455 37.5202 27.7455C37.2819 27.7454 37.0436 27.7447 36.8053 27.7439C36.6396 27.7437 36.4739 27.7436 36.3082 27.7435C35.873 27.7431 35.4377 27.7422 35.0025 27.7411C34.558 27.7401 34.1135 27.7396 33.6691 27.7391C32.7976 27.7381 31.9261 27.7364 31.0547 27.7344C31.0854 27.8913 31.1163 28.0482 31.1473 28.2051C31.1645 28.2924 31.1817 28.3798 31.1994 28.4698C31.367 29.2689 31.7062 29.9272 32.3242 30.4688C32.5749 30.6317 32.8261 30.7539 33.1054 30.8594C33.1865 30.8944 33.2676 30.9294 33.3511 30.9654C33.8456 31.0951 34.3237 31.0829 34.8327 31.0791C34.9329 31.0799 35.033 31.0806 35.1362 31.0814C35.9383 31.0794 36.753 31.0334 37.4939 30.7007C37.7929 30.5664 37.7929 30.5664 38.1836 30.5664C38.1836 31.3076 38.1836 32.0488 38.1836 32.8125C37.1854 33.2562 37.1854 33.2562 36.8042 33.3679C36.692 33.4017 36.692 33.4017 36.5776 33.4362C34.8997 33.839 32.6354 33.8408 31.0547 33.1055C30.9711 33.0691 30.8875 33.0327 30.8014 32.9952C29.3232 32.2688 28.575 30.95 28.0433 29.4628C27.4838 27.6846 27.6747 25.5611 28.474 23.8991C29.1752 22.6013 30.2706 21.4724 31.6818 20.9709C33.5357 20.4372 35.6607 20.5489 37.2741 21.6797Z" fill="#D08FFD"/>
<path d="M18.3594 19.043C18.5547 19.1406 18.5547 19.1406 18.6315 19.3433C18.6584 19.4383 18.6853 19.5333 18.713 19.6312C18.902 20.2726 19.1058 20.908 19.315 21.5431C19.3836 21.7522 19.4522 21.9612 19.5208 22.1703C19.6269 22.4934 19.7332 22.8165 19.8396 23.1396C19.9437 23.4557 20.0474 23.772 20.1511 24.0883C20.1983 24.231 20.1983 24.231 20.2464 24.3766C20.2764 24.4682 20.3064 24.5598 20.3373 24.6542C20.3632 24.733 20.3892 24.8118 20.4159 24.893C20.5545 25.3488 20.6754 25.8099 20.8008 26.2695C19.2861 26.2695 17.7715 26.2695 16.2109 26.2695C16.2847 25.7535 16.3812 25.3196 16.5504 24.836C16.6001 24.6905 16.6497 24.5449 16.6993 24.3994C16.7252 24.324 16.7511 24.2487 16.7779 24.171C17.2688 22.7419 17.7122 21.3096 18.1027 19.8495C18.1785 19.5771 18.2657 19.3097 18.3594 19.043Z" fill="#240445"/>
<path d="M0 42.3828C0.0322266 42.3828 0.0644531 42.3828 0.0976562 42.3828C0.12019 42.482 0.142723 42.5812 0.165939 42.6834C0.731451 45.1012 1.90533 47.1739 4.02107 48.5401C5.11863 49.2128 6.33628 49.7238 7.61719 49.9023C7.61719 49.9346 7.61719 49.9668 7.61719 50C5.10352 50 2.58984 50 0 50C0 47.4863 0 44.9727 0 42.3828Z" fill="black"/>
<path d="M42.3828 0C44.8965 0 47.4102 0 50 0C50 2.51367 50 5.02734 50 7.61719C49.9678 7.61719 49.9355 7.61719 49.9023 7.61719C49.8832 7.51661 49.8641 7.41602 49.8444 7.31239C49.5311 5.77901 48.9489 4.43884 47.9492 3.22266C47.8893 3.14687 47.8294 3.07109 47.7676 2.99301C46.4504 1.40911 44.4067 0.393911 42.3828 0.0976562C42.3828 0.0654297 42.3828 0.0332031 42.3828 0Z" fill="black"/>
<path d="M35.1402 23.1739C35.5826 23.5212 35.8589 23.983 36.0352 24.5117C36.0352 24.9307 36.0352 25.3496 36.0352 25.7812C34.3916 25.7812 32.748 25.7812 31.0547 25.7812C31.1582 24.85 31.3567 24.0335 32.074 23.3826C32.999 22.7023 34.1212 22.5947 35.1402 23.1739Z" fill="#210243"/>
</g>
<defs>
<clipPath id="clip0_1722_1943">
<rect width="50" height="50" fill="white"/>
</clipPath>
</defs>
</svg>
