<svg width="50" height="50" viewBox="0 0 50 50" fill="none" xmlns="http://www.w3.org/2000/svg">
<path d="M18.892 4.07474C19.0399 4.07432 19.1878 4.07381 19.3357 4.07323C19.734 4.07193 20.1323 4.07186 20.5306 4.07211C20.8647 4.07222 21.1989 4.07174 21.533 4.07127C22.3222 4.07019 23.1113 4.07014 23.9005 4.07074C24.711 4.07133 25.5214 4.07012 26.3319 4.06804C27.031 4.06632 27.7302 4.06574 28.4294 4.06605C28.8455 4.06623 29.2616 4.06599 29.6777 4.06462C30.0695 4.06338 30.4612 4.06359 30.8529 4.06485C30.9954 4.06508 31.138 4.06483 31.2805 4.06401C33.4181 4.05268 35.3697 4.59294 36.9333 6.11572C38.2485 7.4532 38.9295 9.19331 38.9963 11.0596C38.9495 13.0879 38.1386 14.9546 36.68 16.3651C35.7081 17.2319 34.4703 17.7985 33.2041 18.0664C33.2892 18.0878 33.3743 18.1092 33.4619 18.1313C34.7159 18.4651 35.7395 18.9554 36.7197 19.8242C36.7796 19.875 36.8395 19.9257 36.9013 19.978C38.2535 21.2092 38.8281 22.9775 38.9871 24.7498C39.0651 26.6726 38.3209 28.3993 37.0912 29.8412C36.5755 30.3856 36.0015 30.7812 35.3525 31.1523C35.2885 31.1904 35.2246 31.2284 35.1587 31.2675C33.5773 32.1393 31.681 32.2002 29.9665 31.7562C28.0411 31.164 26.6658 29.9354 25.6708 28.2146C25.5055 27.8945 25.3945 27.5643 25.2826 27.2222C25.2479 27.1169 25.2133 27.0116 25.1777 26.9031C25.1516 26.8229 25.1255 26.7427 25.0986 26.6602C25.0984 26.7278 25.0983 26.7954 25.0982 26.865C25.0945 28.5158 25.0888 30.1666 25.0806 31.8174C25.0768 32.6158 25.0736 33.4141 25.0721 34.2125C25.0709 34.9089 25.0682 35.6054 25.064 36.3019C25.0618 36.6701 25.0602 37.0383 25.0603 37.4065C25.0604 37.7543 25.0586 38.102 25.0555 38.4498C25.0543 38.6358 25.055 38.8218 25.0557 39.0078C25.0337 40.8681 24.3502 42.5636 23.0333 43.8816C21.5294 45.2805 19.7726 45.9426 17.7309 45.919C15.7457 45.8012 14.0962 44.9505 12.7306 43.5307C11.5832 42.187 10.9709 40.4424 11.0117 38.6761C11.1764 36.671 11.959 34.8504 13.4775 33.4961C14.4516 32.7244 15.5827 32.1906 16.7978 31.9336C16.7127 31.9122 16.6276 31.8908 16.5399 31.8687C15.286 31.5349 14.2624 31.0446 13.2822 30.1758C13.2223 30.1251 13.1623 30.0743 13.1006 30.0221C11.7455 28.7882 11.1591 27.004 11.0147 25.2251C10.9458 23.302 11.6797 21.6022 12.9106 20.1588C13.4264 19.6144 14.0004 19.2188 14.6494 18.8477C14.7133 18.8096 14.7773 18.7716 14.8432 18.7325C15.4511 18.3973 16.1308 18.2425 16.7978 18.0664C16.6473 18.0237 16.6473 18.0237 16.4938 17.9802C14.565 17.4169 12.9632 16.4033 11.9516 14.6137C11.0173 12.8168 10.7984 10.9449 11.3291 8.98438C11.9514 7.12318 13.2076 5.69084 14.9423 4.78516C16.2344 4.18351 17.4808 4.07203 18.892 4.07474ZM25.0009 18.0664C25.0009 19.9678 25.0009 21.8691 25.0009 23.8281C25.0332 23.8281 25.0654 23.8281 25.0986 23.8281C25.1189 23.7371 25.1391 23.6461 25.16 23.5523C25.6042 21.7143 26.5695 20.1443 28.1985 19.1329C28.9795 18.6681 29.791 18.4002 30.665 18.1641C30.665 18.1318 30.665 18.0996 30.665 18.0664C28.7959 18.0664 26.9267 18.0664 25.0009 18.0664Z" fill="#48516F"/>
<path d="M18.7241 18.0283C18.9061 18.029 19.088 18.0295 19.27 18.0299C19.7442 18.0314 20.2184 18.0352 20.6927 18.0396C21.1785 18.0436 21.6643 18.0454 22.1501 18.0473C23.0998 18.0515 24.0495 18.0581 24.9993 18.0664C25.0082 20.8407 25.0151 23.6149 25.0192 26.3892C25.0197 26.7173 25.0202 27.0455 25.0207 27.3737C25.0208 27.439 25.0209 27.5043 25.021 27.5716C25.0227 28.6268 25.0258 29.682 25.0294 30.7372C25.0331 31.8214 25.0352 32.9056 25.036 33.9899C25.0365 34.5982 25.0377 35.2066 25.0406 35.8149C25.0432 36.3885 25.044 36.9619 25.0434 37.5355C25.0436 37.7451 25.0443 37.9547 25.0458 38.1643C25.0603 40.2885 24.6806 42.1544 23.1708 43.7423C21.7634 45.151 20.0348 45.8675 18.0596 45.9229C16.0662 45.8998 14.4056 45.1294 12.9692 43.7805C11.7065 42.4677 11.0685 40.7474 11.0039 38.9404C11.0507 36.9121 11.8616 35.0454 13.3202 33.6349C14.2921 32.7681 15.5299 32.2015 16.7961 31.9336C16.711 31.9122 16.6259 31.8908 16.5383 31.8687C15.2843 31.5349 14.2608 31.0446 13.2805 30.1758C13.2206 30.1251 13.1607 30.0743 13.0989 30.0221C11.7438 28.7882 11.1574 27.004 11.0131 25.2251C10.9442 23.302 11.678 21.6022 12.909 20.1588C13.4247 19.6144 13.9987 19.2188 14.6477 18.8477C14.7117 18.8096 14.7756 18.7716 14.8415 18.7325C16.0819 18.0486 17.3496 18.0119 18.7241 18.0283Z" fill="#A4A9B6"/>
<path d="M19.1642 4.08249C19.3142 4.08278 19.4643 4.08298 19.6143 4.08309C20.1647 4.0841 20.715 4.08683 21.2653 4.08936C22.498 4.09339 23.7306 4.09741 25.0007 4.10156C25.0007 8.70996 25.0007 13.3184 25.0007 18.0664C23.6874 18.0725 22.3742 18.0785 21.0212 18.0847C20.6087 18.0874 20.1962 18.0901 19.7712 18.0928C19.262 18.0941 19.262 18.0941 19.0225 18.0944C18.8576 18.0948 18.6927 18.0958 18.5278 18.0973C17.2392 18.1085 16.0942 18.0215 14.9299 17.4133C14.8637 17.3793 14.7975 17.3453 14.7294 17.3103C13.0627 16.4271 11.9169 14.9666 11.3288 13.1836C10.8231 11.2631 10.978 9.38224 11.9147 7.61719C12.906 5.99918 14.3755 4.81687 16.2116 4.29688C17.1958 4.07353 18.1617 4.076 19.1642 4.08249Z" fill="#767C94"/>
<path d="M18.8385 31.9145C19.0167 31.9149 19.1948 31.9152 19.373 31.9154C19.8389 31.9161 20.3047 31.918 20.7706 31.9202C21.2472 31.9222 21.7238 31.9231 22.2004 31.9241C23.1334 31.9261 24.0663 31.9295 24.9993 31.9336C25.0084 32.9651 25.0153 33.9966 25.0195 35.0282C25.0215 35.5073 25.0243 35.9864 25.0287 36.4655C25.033 36.929 25.0353 37.3925 25.0363 37.856C25.037 38.0317 25.0384 38.2074 25.0406 38.3831C25.0642 40.4187 24.6083 42.2304 23.1708 43.7423C21.7634 45.151 20.0348 45.8675 18.0596 45.9229C16.0662 45.8998 14.4056 45.1294 12.9692 43.7805C11.7065 42.4677 11.0685 40.7474 11.0039 38.9404C11.0507 36.9121 11.8616 35.0454 13.3202 33.6349C14.9352 32.1946 16.7637 31.902 18.8385 31.9145Z" fill="#D2D4DB"/>
<path d="M34.5711 18.457C34.6725 18.4996 34.774 18.5421 34.8785 18.586C35.5731 18.9061 36.1487 19.3183 36.7195 19.8242C36.7794 19.875 36.8393 19.9257 36.9011 19.978C38.2533 21.2092 38.8279 22.9775 38.9869 24.7498C39.0649 26.6726 38.3207 28.3993 37.091 29.8412C36.5753 30.3856 36.0013 30.7812 35.3523 31.1523C35.2884 31.1904 35.2244 31.2284 35.1585 31.2675C33.5771 32.1393 31.6808 32.2002 29.9663 31.7562C28.0577 31.1691 26.6018 29.93 25.6611 28.1815C24.8439 26.5217 24.6988 24.4543 25.262 22.6875C26.0778 20.6421 27.4726 19.2968 29.4483 18.3971C31.0148 17.8112 33.0257 17.8006 34.5711 18.457Z" fill="#1B264B"/>
</svg>
