<svg width="50" height="50" viewBox="0 0 50 50" fill="none" xmlns="http://www.w3.org/2000/svg">
<g clip-path="url(#clip0_1722_1967)">
<path d="M4.64773 1.72066C4.71951 1.72021 4.79129 1.71975 4.86525 1.71929C5.10535 1.71812 5.34539 1.71904 5.58548 1.71995C5.75953 1.71954 5.93358 1.719 6.10763 1.71835C6.58558 1.71694 7.06352 1.71736 7.54148 1.71808C8.05707 1.71854 8.57265 1.71732 9.08823 1.71632C10.0982 1.71464 11.1081 1.71456 12.118 1.71507C12.9388 1.71546 13.7595 1.71532 14.5803 1.7148C14.7555 1.71469 14.7555 1.71469 14.9341 1.71458C15.1713 1.71443 15.4085 1.71428 15.6458 1.71413C17.8707 1.71279 20.0956 1.71332 22.3206 1.71444C24.3566 1.71541 26.3926 1.71414 28.4286 1.71181C30.5187 1.70943 32.6088 1.70849 34.6989 1.70914C35.8725 1.70948 37.0461 1.70926 38.2198 1.70755C39.2188 1.70611 40.2178 1.70605 41.2169 1.70775C41.7267 1.70858 42.2364 1.70879 42.7462 1.7073C43.2129 1.70595 43.6795 1.7064 44.1462 1.7083C44.315 1.70867 44.4838 1.70838 44.6527 1.70736C46.3409 1.69792 46.3409 1.69792 47.0912 2.33001C47.143 2.39094 47.1947 2.45187 47.248 2.51464C47.301 2.57456 47.354 2.63448 47.4086 2.69622C47.8789 3.42486 47.9598 4.26264 48.0827 5.10279C48.1039 5.24295 48.1251 5.38309 48.1464 5.52322C48.2037 5.90231 48.2599 6.28154 48.3158 6.66083C48.3628 6.97916 48.4103 7.29741 48.4578 7.61567C48.5701 8.36832 48.6815 9.12111 48.7923 9.87398C48.9058 10.6456 49.0211 11.4169 49.1373 12.1881C49.2375 12.8539 49.3365 13.5198 49.4346 14.1859C49.493 14.582 49.5518 14.9781 49.6118 15.374C50.4219 20.7326 50.4219 20.7326 48.8471 23.0099C48.3423 23.6785 48.3423 23.6785 48.0092 23.8525C47.6397 24.0685 47.3331 24.2788 47.2099 24.7083C47.1173 25.3351 47.1434 25.9703 47.1542 26.6019C47.1543 26.8169 47.154 27.0319 47.1533 27.2469C47.1526 27.7093 47.1551 28.1714 47.1599 28.6337C47.1675 29.3651 47.1681 30.0963 47.1679 30.8277C47.1682 31.8534 47.1716 32.8791 47.1777 33.9047C47.1783 34.0023 47.1783 34.0023 47.1789 34.1017C47.1793 34.1668 47.1797 34.2319 47.1801 34.299C47.1856 35.2213 47.1902 36.1436 47.1936 37.0659C47.1939 37.1632 47.1939 37.1632 47.1943 37.2625C47.1982 38.3459 47.2002 39.4294 47.2011 40.5129C47.202 41.2395 47.2056 41.966 47.2114 42.6926C47.2145 43.1452 47.2157 43.5977 47.2164 44.0503C47.2172 44.2596 47.2188 44.469 47.2213 44.6783C47.2458 46.7795 47.2458 46.7795 46.6804 47.4609C46.0787 48.0211 45.5461 48.2663 44.716 48.2676C44.6468 48.2679 44.5776 48.2683 44.5063 48.2687C44.2739 48.2697 44.0414 48.2693 43.809 48.269C43.6409 48.2694 43.4728 48.2699 43.3047 48.2705C42.8423 48.2719 42.3798 48.272 41.9174 48.272C41.4189 48.2722 40.9203 48.2734 40.4218 48.2746C39.3314 48.2768 38.241 48.2776 37.1507 48.2781C36.4699 48.2784 35.7892 48.279 35.1084 48.2797C33.2237 48.2816 31.3391 48.2832 29.4544 48.2835C29.3338 48.2835 29.2131 48.2836 29.0889 48.2836C28.8443 48.2836 28.5998 48.2836 28.3552 48.2837C28.1731 48.2837 28.1731 48.2837 27.9873 48.2837C27.805 48.2838 27.805 48.2838 27.619 48.2838C25.6494 48.2841 23.6799 48.2868 21.7103 48.2904C19.6884 48.2941 17.6665 48.296 15.6446 48.2961C14.5092 48.2961 13.3739 48.297 12.2386 48.2998C11.2719 48.3022 10.3052 48.3029 9.33843 48.3014C8.84522 48.3007 8.35206 48.3008 7.85886 48.303C7.4071 48.305 6.95541 48.3048 6.50365 48.3027C6.34047 48.3024 6.17729 48.3029 6.01412 48.3043C5.13901 48.3113 4.34425 48.3073 3.61397 47.7539C2.98527 47.0851 2.80287 46.4979 2.81209 45.5967C2.81222 45.5071 2.81234 45.4176 2.81247 45.3252C2.81309 45.0249 2.8151 44.7246 2.81708 44.4243C2.81777 44.209 2.81836 43.9937 2.81886 43.7785C2.82005 43.3148 2.82177 42.8511 2.82383 42.3874C2.8269 41.6541 2.82767 40.9208 2.8279 40.1874C2.82795 40.0637 2.828 39.9399 2.82805 39.8124C2.82815 39.5594 2.82825 39.3063 2.82835 39.0532C2.82864 38.4031 2.82915 37.7529 2.8299 37.1027C2.82998 37.0375 2.83005 36.9723 2.83013 36.905C2.83143 35.8482 2.83561 34.7913 2.84067 33.7344C2.84579 32.6485 2.84711 31.5626 2.84527 30.4767C2.84439 29.8673 2.84529 29.258 2.85043 28.6486C2.85524 28.0754 2.85552 27.5023 2.85233 26.9291C2.85198 26.7188 2.85329 26.5086 2.8564 26.2984C2.91374 25.2036 2.91374 25.2036 2.52422 24.2251C2.27803 24.0286 2.03185 23.8852 1.7585 23.7305C0.537498 22.488 -0.0297442 20.908 -0.0351562 19.1936C-0.0153249 17.8346 0.219385 16.4891 0.421653 15.1477C0.481577 14.7486 0.539979 14.3492 0.598621 13.9499C0.697084 13.2811 0.796742 12.6124 0.897139 11.9439C1.01281 11.1735 1.12655 10.4029 1.23927 9.63211C1.34848 8.88563 1.45907 8.13936 1.57026 7.39317C1.61727 7.07759 1.6638 6.76195 1.70994 6.44624C1.7643 6.07469 1.81987 5.70334 1.87634 5.3321C1.89675 5.19666 1.91676 5.06117 1.93632 4.92561C2.08659 3.88694 2.25179 2.9524 3.02078 2.19459C3.54764 1.82053 4.00779 1.72117 4.64773 1.72066Z" fill="#7885CA"/>
<path d="M25.0006 19.9219C25.0328 19.9219 25.0651 19.9219 25.0983 19.9219C25.1067 19.9776 25.1151 20.0334 25.1238 20.0909C25.3284 21.2712 25.7519 22.4571 26.6325 23.3055C26.7584 23.4375 26.7584 23.4375 26.7584 23.6328C26.8432 23.6713 26.8432 23.6713 26.9297 23.7106C27.1601 23.834 27.3349 23.9762 27.5336 24.1455C28.9979 25.3048 30.6302 25.4133 32.4225 25.293C33.8024 25.1063 35.1673 24.2247 36.0541 23.175C36.7364 22.2771 37.1068 21.2948 37.403 20.2148C37.4674 20.2148 37.5319 20.2148 37.5983 20.2148C37.6498 20.3865 37.6498 20.3865 37.7024 20.5616C38.0101 21.5531 38.3222 22.5129 39.0837 23.2582C39.2584 23.4375 39.2584 23.4375 39.2584 23.6328C39.3432 23.6713 39.3432 23.6713 39.4297 23.7106C39.6601 23.834 39.8349 23.9762 40.0336 24.1455C41.3146 25.1535 42.9237 25.5605 44.5319 25.3906C45.3364 25.2609 46.0809 25.0003 46.7921 24.6048C46.9733 24.5117 46.9733 24.5117 47.1686 24.5117C47.1797 27.2943 47.1884 30.0768 47.1935 32.8594C47.1941 33.1882 47.1948 33.517 47.1954 33.8458C47.1955 33.9113 47.1957 33.9767 47.1958 34.0442C47.1979 35.1028 47.2018 36.1615 47.2063 37.2202C47.2108 38.3072 47.2135 39.3941 47.2145 40.4811C47.2152 41.0914 47.2167 41.7016 47.2202 42.3119C47.2235 42.8866 47.2245 43.4613 47.2238 44.036C47.2239 44.2466 47.2249 44.4572 47.2268 44.6678C47.2447 46.7814 47.2447 46.7814 46.6803 47.4609C46.0786 48.0211 45.5461 48.2663 44.7159 48.2676C44.6467 48.268 44.5775 48.2683 44.5062 48.2687C44.2738 48.2697 44.0414 48.2693 43.8089 48.269C43.6408 48.2694 43.4727 48.2699 43.3046 48.2705C42.8422 48.2719 42.3798 48.2721 41.9173 48.272C41.4188 48.2722 40.9202 48.2734 40.4217 48.2746C39.3313 48.2768 38.241 48.2776 37.1506 48.2781C36.4698 48.2784 35.7891 48.279 35.1083 48.2797C33.2237 48.2816 31.339 48.2832 29.4543 48.2835C29.3337 48.2835 29.2131 48.2836 29.0888 48.2836C28.8442 48.2836 28.5997 48.2837 28.3551 48.2837C28.173 48.2837 28.173 48.2837 27.9873 48.2837C27.8049 48.2838 27.8049 48.2838 27.6189 48.2838C25.6494 48.2841 23.6798 48.2868 21.7102 48.2904C19.6883 48.2942 17.6664 48.296 15.6445 48.2961C14.5092 48.2961 13.3739 48.297 12.2385 48.2998C11.2718 48.3022 10.3051 48.3029 9.33835 48.3014C8.84515 48.3007 8.35198 48.3008 7.85879 48.303C7.40703 48.305 6.95534 48.3048 6.50358 48.3027C6.3404 48.3024 6.17722 48.3029 6.01405 48.3043C5.13894 48.3113 4.34418 48.3073 3.61389 47.7539C2.98393 47.0838 2.80305 46.4943 2.80916 45.5915C2.80899 45.5013 2.80882 45.4112 2.80865 45.3183C2.80833 45.0162 2.8094 44.7141 2.81047 44.4119C2.81053 44.1954 2.8105 43.9788 2.81038 43.7623C2.81033 43.1742 2.81148 42.5861 2.81284 41.9979C2.81406 41.3834 2.81418 40.7689 2.81441 40.1544C2.81495 39.1228 2.81617 38.0913 2.81791 37.0598C2.8197 35.9974 2.82109 34.935 2.82192 33.8726C2.82197 33.8071 2.82202 33.7416 2.82207 33.6741C2.82233 33.3455 2.82257 33.0169 2.82282 32.6883C2.82486 29.9628 2.82829 27.2372 2.83264 24.5117C3.34004 24.6782 3.82593 24.8755 4.31656 25.0858C5.4956 25.5571 7.2502 25.4752 8.42728 25.0256C10.1113 24.2418 11.2881 23.2308 12.0123 21.4844C12.1568 21.0648 12.2856 20.6428 12.403 20.2148C12.4674 20.2148 12.5319 20.2148 12.5983 20.2148C12.6326 20.3293 12.667 20.4437 12.7024 20.5616C13.0101 21.5531 13.3222 22.5129 14.0837 23.2582C14.2584 23.4375 14.2584 23.4375 14.2584 23.6328C14.3149 23.6585 14.3715 23.6842 14.4297 23.7106C14.6601 23.834 14.8349 23.9762 15.0336 24.1455C16.4979 25.3048 18.1302 25.4133 19.9225 25.293C21.4178 25.0907 22.8462 24.1029 23.7456 22.924C24.2282 22.2093 24.5671 21.4321 24.8053 20.6055C24.8353 20.5035 24.8353 20.5035 24.866 20.3995C24.912 20.2406 24.9565 20.0813 25.0006 19.9219Z" fill="#1E88E4"/>
<path d="M36.1324 1.75781C37.4177 1.74876 38.7029 1.74182 39.9882 1.73758C40.585 1.73554 41.1818 1.73278 41.7787 1.72835C42.3549 1.7241 42.9311 1.72176 43.5073 1.72075C43.7269 1.72003 43.9465 1.71863 44.166 1.71651C44.4742 1.71367 44.7822 1.71329 45.0903 1.71347C45.1806 1.71206 45.271 1.71066 45.364 1.70921C46.0532 1.71357 46.5603 1.88365 47.0901 2.33002C47.1419 2.39095 47.1936 2.45188 47.2469 2.51465C47.2999 2.57457 47.3529 2.63449 47.4075 2.69623C47.8778 3.42487 47.9588 4.26265 48.0817 5.1028C48.1028 5.24296 48.124 5.3831 48.1453 5.52323C48.2026 5.90232 48.2588 6.28155 48.3147 6.66084C48.3617 6.97917 48.4092 7.29742 48.4567 7.61568C48.569 8.36833 48.6804 9.12112 48.7912 9.87399C48.9048 10.6456 49.0201 11.4169 49.1362 12.1881C49.2364 12.8539 49.3354 13.5198 49.4335 14.1859C49.4919 14.582 49.5507 14.9781 49.6107 15.374C50.4208 20.7326 50.4208 20.7326 48.8461 23.0099C47.8093 24.3831 46.2371 25.2485 44.5309 25.4883C42.6365 25.6453 40.9396 25.0756 39.4798 23.843C38.293 22.7213 37.609 21.2493 37.4937 19.6307C37.4861 19.538 37.4786 19.4453 37.4709 19.3498C37.455 19.1525 37.4397 18.9552 37.4248 18.7579C37.4023 18.462 37.3785 18.1662 37.3542 17.8705C37.3029 17.2428 37.2536 16.6149 37.2044 15.987C37.1859 15.7524 37.1674 15.5178 37.1489 15.2832C37.1004 14.6685 37.0522 14.0538 37.0039 13.4391C36.9561 12.8308 36.9082 12.2226 36.8603 11.6144C36.8036 10.8945 36.7469 10.1745 36.6904 9.45454C36.6062 8.381 36.5219 7.30748 36.4363 6.23405C36.3994 5.77002 36.3626 5.30597 36.3258 4.84193C36.3084 4.62382 36.291 4.40571 36.2735 4.18761C36.2495 3.88794 36.2257 3.58824 36.202 3.28853C36.1949 3.20087 36.1878 3.1132 36.1805 3.02288C36.1473 2.59986 36.1245 2.18258 36.1324 1.75781Z" fill="#3D4FB2"/>
<path d="M25.0003 1.75781C28.6741 1.75781 32.348 1.75781 36.1331 1.75781C36.2468 2.78123 36.3598 3.79961 36.4398 4.82547C36.4458 4.90126 36.4517 4.97705 36.4578 5.05515C36.464 5.13348 36.4701 5.21181 36.4764 5.29251C36.4899 5.46148 36.5033 5.63044 36.5168 5.79941C36.5528 6.25082 36.5883 6.70227 36.6238 7.15372C36.6459 7.43566 36.6682 7.71758 36.6905 7.9995C36.9156 10.844 37.1341 13.689 37.3477 16.5344C37.3542 16.62 37.3606 16.7056 37.3672 16.7938C37.404 17.2833 37.4407 17.7729 37.4771 18.2625C37.4881 18.4102 37.4992 18.5579 37.5103 18.7056C37.5253 18.9064 37.5402 19.1071 37.555 19.3078C37.5675 19.4762 37.5675 19.4762 37.5803 19.6479C37.5925 19.8366 37.598 20.0258 37.598 20.2148C37.5335 20.2148 37.4691 20.2148 37.4027 20.2148C37.3936 20.3448 37.3936 20.3448 37.3843 20.4773C37.2353 21.4861 36.7522 22.353 36.1331 23.1445C36.0626 23.2432 35.9921 23.3419 35.9195 23.4436C35.2598 24.2049 34.3379 24.7582 33.3987 25.0977C33.3302 25.1229 33.2617 25.1481 33.1911 25.1741C32.5274 25.3983 31.9111 25.44 31.2137 25.4333C31.0516 25.4322 31.0516 25.4322 30.8863 25.4311C30.1333 25.4159 29.4887 25.3442 28.8089 25C28.6737 24.9362 28.6737 24.9362 28.5358 24.8711C26.8188 24.0031 25.7487 22.6382 25.151 20.8233C25.016 20.2689 24.9862 19.7182 24.9886 19.1501C24.9884 19.038 24.9884 19.038 24.9883 18.9236C24.9882 18.6747 24.9887 18.4258 24.9892 18.1769C24.9892 17.9978 24.9892 17.8188 24.9892 17.6397C24.9891 17.1547 24.9897 16.6697 24.9904 16.1847C24.991 15.6775 24.9911 15.1702 24.9912 14.6629C24.9915 13.7028 24.9923 12.7428 24.9933 11.7827C24.9946 10.485 24.9951 9.18728 24.9957 7.88958C24.9966 5.84565 24.9985 3.80173 25.0003 1.75781Z" fill="#7885CA"/>
<path d="M13.8668 1.75781C17.5406 1.75781 21.2145 1.75781 24.9996 1.75781C25.0114 6.29015 25.0114 6.29015 25.0139 8.19206C25.0157 9.50434 25.0177 10.8166 25.0217 12.1289C25.0246 13.0847 25.0265 14.0405 25.0272 14.9963C25.0276 15.5021 25.0285 16.0078 25.0306 16.5136C25.0326 16.9904 25.0332 17.4671 25.0328 17.9439C25.0328 18.1182 25.0334 18.2925 25.0345 18.4668C25.0455 20.2417 24.7252 21.7083 23.6324 23.1445C23.5619 23.2432 23.4914 23.3419 23.4188 23.4436C22.7591 24.2049 21.8373 24.7582 20.8981 25.0977C20.8295 25.1229 20.761 25.1481 20.6904 25.1741C20.0267 25.3983 19.4104 25.44 18.713 25.4333C18.551 25.4322 18.551 25.4322 18.3856 25.4311C17.6326 25.4159 16.988 25.3442 16.3082 25C16.173 24.9362 16.173 24.9362 16.0351 24.8711C14.385 24.0369 13.3269 22.7493 12.7132 21.0144C12.3143 19.6979 12.5159 18.2739 12.6275 16.9246C12.6531 16.6153 12.6781 16.3059 12.7029 15.9966C12.7365 15.5775 12.7703 15.1584 12.8043 14.7393C12.9307 13.1772 13.0529 11.6148 13.1756 10.0524C13.2208 9.47796 13.266 8.90357 13.3114 8.32918C13.3402 7.96322 13.3691 7.59725 13.3979 7.23128C13.4119 7.05405 13.4258 6.87682 13.4398 6.69959C13.5067 5.85076 13.5731 5.00193 13.6344 4.15268C13.6433 4.0299 13.6522 3.90713 13.6613 3.78063C13.6771 3.56005 13.6927 3.33945 13.7079 3.11882C13.7147 3.02355 13.7215 2.92828 13.7285 2.83012C13.7368 2.70912 13.7368 2.70912 13.7454 2.58567C13.7727 2.3081 13.821 2.03292 13.8668 1.75781Z" fill="#3E51B5"/>
<path d="M39.672 30.249C39.9403 30.4701 40.1852 30.7091 40.4288 30.957C40.198 31.4882 39.7691 31.8519 39.3668 32.2571C39.2871 32.34 39.2074 32.4229 39.1253 32.5083C39.0096 32.6251 39.0096 32.6251 38.8915 32.7442C38.8211 32.8159 38.7508 32.8876 38.6783 32.9614C38.4757 33.1055 38.4757 33.1055 38.2673 33.0881C38.0336 32.9852 37.8535 32.847 37.6517 32.6904C36.5197 31.8754 35.2574 31.635 33.8858 31.7383C32.3297 32.0593 31.099 32.8949 30.2207 34.2228C29.5487 35.3933 29.3752 36.7682 29.6279 38.0949C29.7327 38.4728 29.8938 38.8149 30.0772 39.1602C30.123 39.2492 30.1689 39.3382 30.2161 39.4299C30.7498 40.3896 31.4673 40.9746 32.421 41.5039C32.4965 41.5467 32.572 41.5895 32.6499 41.6336C33.7597 42.1453 35.3526 42.0726 36.4981 41.6992C37.95 41.0775 38.8251 40.0924 39.4522 38.6719C39.4845 38.5752 39.5167 38.4785 39.5499 38.3789C37.9386 38.3789 36.3272 38.3789 34.6671 38.3789C34.6671 37.3799 34.6671 36.3809 34.6671 35.3516C37.3741 35.3516 40.0811 35.3516 42.8702 35.3516C42.8702 38.2573 42.6167 40.5228 40.5943 42.6083C38.925 44.2752 36.7709 45.1456 34.4111 45.1617C32.501 45.1273 30.743 44.3874 29.296 43.1641C29.2019 43.0893 29.1079 43.0145 29.011 42.9375C27.6571 41.8046 26.6261 39.8428 26.4639 38.0859C26.3511 35.4131 26.7858 33.2849 28.5452 31.2195C31.4519 28.1574 36.2909 27.6829 39.672 30.249Z" fill="#F8F9F9"/>
<path d="M47.168 24.5117C47.1791 27.2943 47.1878 30.0768 47.1929 32.8594C47.1935 33.1882 47.1941 33.517 47.1948 33.8458C47.1949 33.9113 47.195 33.9767 47.1952 34.0442C47.1973 35.1028 47.2012 36.1615 47.2056 37.2202C47.2102 38.3072 47.2129 39.3941 47.2139 40.4811C47.2145 41.0914 47.216 41.7016 47.2196 42.3119C47.2229 42.8866 47.2239 43.4613 47.2232 44.036C47.2233 44.2466 47.2243 44.4572 47.2262 44.6678C47.2441 46.7814 47.2441 46.7814 46.6797 47.4609C46.0604 48.0374 45.5081 48.2739 44.6575 48.2613C44.5513 48.2608 44.5513 48.2608 44.4429 48.2604C44.218 48.2593 43.9932 48.2569 43.7683 48.2544C43.6153 48.2534 43.4622 48.2525 43.3092 48.2517C42.9353 48.2496 42.5614 48.2462 42.1875 48.2422C42.2775 48.1978 42.2775 48.1978 42.3693 48.1524C43.0954 47.7854 43.5815 47.4018 43.9531 46.6662C44.0744 46.289 44.0711 45.9266 44.0702 45.5346C44.0707 45.4489 44.0713 45.3631 44.0719 45.2747C44.0735 44.9875 44.0738 44.7002 44.0741 44.4129C44.075 44.2069 44.076 44.0009 44.0771 43.795C44.0797 43.2357 44.0812 42.6765 44.0825 42.1172C44.084 41.5328 44.0866 40.9484 44.0891 40.364C44.0937 39.2572 44.0973 38.1505 44.1005 37.0438C44.1043 35.7838 44.1091 34.5238 44.114 33.2639C44.1241 30.672 44.1328 28.0802 44.1406 25.4883C44.1937 25.4749 44.2468 25.4616 44.3016 25.4478C44.545 25.3862 44.7882 25.3238 45.0314 25.2613C45.1149 25.2403 45.1984 25.2193 45.2845 25.1977C45.8288 25.057 46.3147 24.8815 46.8052 24.6014C46.9727 24.5117 46.9727 24.5117 47.168 24.5117Z" fill="#1976D2"/>
<path d="M-0.000580777 18.9453C4.12442 18.9453 8.24942 18.9453 12.4994 18.9453C12.5316 19.3643 12.5639 19.7832 12.5971 20.2148C12.5326 20.2148 12.4682 20.2148 12.4018 20.2148C12.3927 20.3719 12.3927 20.3719 12.3835 20.5322C12.2552 21.5269 11.7322 22.3648 11.1322 23.1445C11.0265 23.2926 11.0265 23.2926 10.9186 23.4436C10.2589 24.2049 9.33706 24.7582 8.39786 25.0977C8.29506 25.1355 8.29506 25.1355 8.19019 25.1741C7.52649 25.3983 6.91024 25.4401 6.2128 25.4333C6.10456 25.4325 5.99632 25.4317 5.88481 25.4309C5.12752 25.4152 4.49351 25.3388 3.80801 25C3.69295 24.948 3.5779 24.896 3.45935 24.8425C1.79177 24.0708 0.841373 22.8059 0.184814 21.1086C-0.0548779 20.3481 -0.000580777 19.7949 -0.000580777 18.9453Z" fill="#5B6BC0"/>
<path d="M25 18.9453C29.125 18.9453 33.25 18.9453 37.5 18.9453C37.5322 19.3643 37.5645 19.7832 37.5977 20.2148C37.5332 20.2148 37.4688 20.2148 37.4023 20.2148C37.3933 20.3448 37.3933 20.3448 37.384 20.4773C37.235 21.4861 36.7519 22.353 36.1328 23.1445C36.0271 23.2926 36.0271 23.2926 35.9192 23.4436C35.2595 24.2049 34.3376 24.7582 33.3984 25.0977C33.2956 25.1355 33.2956 25.1355 33.1908 25.1741C32.5271 25.3983 31.9108 25.44 31.2134 25.4333C31.1054 25.4326 30.9973 25.4319 30.886 25.4311C30.133 25.4159 29.4884 25.3442 28.8086 25C28.7185 24.9575 28.6283 24.9149 28.5355 24.8711C26.8853 24.0369 25.8273 22.7493 25.2136 21.0144C24.9987 20.3089 25 19.6952 25 18.9453Z" fill="#5B6BC0"/>
<path d="M50 18.9453C50.0018 19.165 50.003 19.3846 50.0041 19.6042C50.0048 19.7265 50.0056 19.8489 50.0063 19.9749C49.9778 21.4949 49.0795 22.8992 48.0301 23.941C46.7223 25.0821 44.8806 25.6225 43.167 25.5085C41.4901 25.3375 39.9247 24.4472 38.8428 23.169C38.0251 22.0936 37.4919 20.8196 37.4981 19.4611C37.4985 19.3433 37.4985 19.3433 37.4989 19.2232C37.4993 19.1637 37.4996 19.1043 37.5 19.043C38.6828 19.03 39.8656 19.0173 41.0484 19.0048C41.598 18.9989 42.1476 18.9931 42.6971 18.987C45.1315 18.9604 47.5655 18.9359 50 18.9453Z" fill="#3849AB"/>
<path d="M12.5 19.043C16.625 19.043 20.75 19.043 25 19.043C25 20.6341 24.5936 21.8818 23.6328 23.1445C23.5271 23.2926 23.5271 23.2926 23.4192 23.4436C22.7595 24.2049 21.8376 24.7582 20.8984 25.0977C20.7956 25.1355 20.7956 25.1355 20.6908 25.1741C20.0271 25.3983 19.4108 25.44 18.7134 25.4333C18.6054 25.4326 18.4973 25.4319 18.386 25.4311C17.633 25.4159 16.9884 25.3442 16.3086 25C16.2185 24.9575 16.1283 24.9149 16.0355 24.8711C14.3853 24.0369 13.3273 22.7493 12.7136 21.0144C12.5088 20.3434 12.5 19.753 12.5 19.043Z" fill="#3849AB"/>
<path d="M46.9727 18.9453C47.9717 18.9453 48.9707 18.9453 50 18.9453C50 20.8763 49.5625 22.3057 48.2422 23.7305C47.0679 24.8963 45.3299 25.5085 43.6951 25.5127C43.3361 25.5113 43.0204 25.5055 42.6758 25.3906C42.7734 25.0977 42.7734 25.0977 42.923 24.9961C42.9864 24.9658 43.0499 24.9355 43.1152 24.9043C43.1854 24.8696 43.2555 24.835 43.3277 24.7993C43.4026 24.7628 43.4775 24.7263 43.5547 24.6887C45.1252 23.8846 46.1169 22.6772 46.6797 20.9961C46.886 20.3169 46.9129 19.6619 46.9727 18.9453Z" fill="#303F9F"/>
</g>
<defs>
<clipPath id="clip0_1722_1967">
<rect width="50" height="50" fill="white"/>
</clipPath>
</defs>
</svg>
