<svg width="50" height="50" viewBox="0 0 50 50" fill="none" xmlns="http://www.w3.org/2000/svg">
<g clip-path="url(#clip0_1722_1980)">
<path d="M11.9149 11.9141C14.9977 11.9074 18.0805 11.9022 21.1633 11.8991C21.5275 11.8987 21.8916 11.8984 22.2557 11.898C22.3282 11.8979 22.4007 11.8978 22.4754 11.8977C23.6484 11.8965 24.8215 11.8942 25.9945 11.8915C27.1986 11.8887 28.4027 11.8871 29.6067 11.8865C30.3494 11.8861 31.0921 11.8848 31.8348 11.8825C32.4047 11.8807 32.9747 11.8805 33.5446 11.8809C33.7781 11.8809 34.0116 11.8803 34.2451 11.8791C34.5642 11.8777 34.8833 11.878 35.2025 11.8788C35.2945 11.878 35.3866 11.8771 35.4814 11.8763C36.2129 11.8812 36.8188 12.0146 37.4337 12.4207C38.0369 13.0519 38.1441 13.6523 38.1338 14.5048C38.1341 14.6059 38.1344 14.7071 38.1348 14.8113C38.1354 15.149 38.1333 15.4866 38.1311 15.8243C38.131 16.0669 38.1311 16.3095 38.1313 16.552C38.1314 17.0736 38.1303 17.5952 38.1281 18.1167C38.1249 18.8708 38.1239 19.6249 38.1234 20.379C38.1226 21.6026 38.12 22.8262 38.1163 24.0498C38.1127 25.238 38.1099 26.4263 38.1083 27.6146C38.1081 27.6879 38.108 27.7612 38.1079 27.8367C38.1074 28.2045 38.1069 28.5722 38.1065 28.94C38.1024 31.9887 38.0955 35.0373 38.0868 38.0859C37.8365 38.0715 37.5862 38.0567 37.3359 38.0418C37.2654 38.0377 37.195 38.0337 37.1224 38.0295C36.616 37.9989 36.1321 37.9415 35.6393 37.8235C35.5666 37.8065 35.4938 37.7896 35.4189 37.7721C33.7526 37.3628 32.2531 36.5702 30.9579 35.4492C30.8801 35.3867 30.8023 35.3241 30.7221 35.2596C29.2221 34.0048 28.1655 32.2137 27.5949 30.3589C27.5719 30.2845 27.5489 30.21 27.5253 30.1333C27.0793 28.5604 27.1252 26.9668 27.1371 25.3479C27.1381 25.1146 27.139 24.8814 27.1398 24.6481C27.1419 24.0818 27.1451 23.5155 27.1493 22.9492C26.9605 22.9508 26.9605 22.9508 26.7679 22.9523C26.2911 22.9559 25.8142 22.9581 25.3373 22.96C25.1328 22.9609 24.9282 22.9622 24.7237 22.964C20.9934 22.9944 17.6897 22.3568 14.924 19.6533C13.1879 17.889 11.894 15.3223 11.9063 12.8067C11.9072 12.7418 11.908 12.6768 11.9088 12.6099C11.9093 12.5426 11.9097 12.4754 11.9102 12.4062C11.9113 12.2421 11.913 12.0781 11.9149 11.9141Z" fill="#1D78F3"/>
<path d="M-0.000615264 23.9258C3.09297 23.9169 6.18655 23.91 9.28014 23.9058C9.64561 23.9054 10.0111 23.9048 10.3766 23.9043C10.4857 23.9042 10.4857 23.9042 10.597 23.904C11.7741 23.9023 12.9512 23.8992 14.1283 23.8957C15.3366 23.892 16.545 23.8898 17.7534 23.889C18.4986 23.8885 19.2439 23.8868 19.9891 23.8836C20.5612 23.8813 21.1332 23.8811 21.7053 23.8816C21.9395 23.8815 22.1738 23.8807 22.408 23.8792C22.7284 23.8773 23.0487 23.8778 23.3692 23.8788C23.5074 23.8771 23.5074 23.8771 23.6484 23.8754C24.3455 23.8816 25.046 24.0078 25.5805 24.4873C26.1464 25.1035 26.1996 25.6686 26.1947 26.4776C26.195 26.6283 26.195 26.6283 26.1953 26.7821C26.1956 27.1194 26.1945 27.4566 26.1934 27.7938C26.1934 28.0354 26.1934 28.2769 26.1935 28.5185C26.1936 29.0388 26.193 29.5591 26.1919 30.0794C26.1903 30.8316 26.1898 31.5839 26.1896 32.3361C26.1891 33.5566 26.1878 34.7772 26.186 35.9977C26.1842 37.1832 26.1828 38.3687 26.182 39.5543C26.1819 39.6274 26.1819 39.7005 26.1818 39.7758C26.1816 40.1424 26.1813 40.5091 26.1811 40.8758C26.1791 43.9172 26.1756 46.9586 26.1713 50C25.9357 50.0013 25.7001 50.0022 25.4646 50.0029C25.3982 50.0033 25.3318 50.0037 25.2633 50.0041C22.5827 50.0104 20.1296 48.5751 18.2489 46.7697C16.1215 44.6509 15.2133 41.7555 15.2051 38.8115C15.206 38.3377 15.2105 37.8639 15.2154 37.3901C15.2169 37.1441 15.2183 36.898 15.2195 36.652C15.2226 36.0557 15.2275 35.4595 15.2338 34.8633C15.165 34.8639 15.0963 34.8646 15.0255 34.8653C14.3707 34.8712 13.7159 34.8756 13.061 34.8785C12.7245 34.88 12.3881 34.882 12.0516 34.8854C8.51671 34.9197 5.58729 34.1823 3.00842 31.665C1.62311 30.2574 0.66351 28.4818 0.194697 26.5625C0.172919 26.4763 0.151141 26.39 0.128703 26.3012C0.00969408 25.7547 -0.01008 25.2287 -0.0051929 24.6723C-0.00486245 24.6003 -0.004532 24.5283 -0.00419154 24.4541C-0.00333564 24.278 -0.00202228 24.1019 -0.000615264 23.9258Z" fill="#1B76F1"/>
<path d="M23.8272 -6.07478e-06C26.9739 -0.0111478 30.1206 -0.0197876 33.2673 -0.0249403C33.6389 -0.025551 34.0104 -0.026183 34.382 -0.0268282C34.456 -0.0269562 34.53 -0.0270843 34.6062 -0.0272163C35.8036 -0.0293403 37.001 -0.0331898 38.1985 -0.0376783C39.4274 -0.0422464 40.6562 -0.044957 41.8851 -0.0459477C42.6433 -0.0466173 43.4014 -0.0487313 44.1596 -0.0526997C44.7411 -0.0555886 45.3227 -0.0558919 45.9043 -0.0552344C46.1427 -0.0553688 46.3811 -0.0563403 46.6195 -0.0582119C46.9452 -0.0606429 47.2707 -0.0600566 47.5963 -0.0587241C47.6905 -0.0601464 47.7848 -0.0615687 47.8819 -0.0630341C48.5117 -0.0560729 48.9242 0.0862952 49.4132 0.488275C49.7866 0.891159 50.0237 1.24492 50.0232 1.80111C50.0235 1.88795 50.0239 1.97479 50.0243 2.06426C50.0238 2.15926 50.0232 2.25426 50.0226 2.35213C50.0229 2.50397 50.0229 2.50397 50.0231 2.65888C50.0234 2.99911 50.0224 3.33932 50.0213 3.67956C50.0212 3.92303 50.0213 4.1665 50.0214 4.40998C50.0214 4.93469 50.0209 5.45941 50.0198 5.98412C50.0182 6.74278 50.0177 7.50143 50.0174 8.26008C50.017 9.49093 50.0157 10.7218 50.0139 11.9526C50.0121 13.1483 50.0107 14.344 50.0098 15.5397C50.0098 15.6134 50.0097 15.6871 50.0097 15.763C50.0094 16.1327 50.0092 16.5024 50.0089 16.8722C50.0069 19.9395 50.0035 23.0069 49.9991 26.0742C49.7323 26.0598 49.4655 26.045 49.1987 26.03C49.0858 26.024 49.0858 26.024 48.9707 26.0178C46.2592 25.8638 43.7692 24.4754 41.8936 22.5586C39.9198 20.3403 39.0375 17.5942 39.0521 14.6568C39.0523 14.4963 39.0523 14.4963 39.0525 14.3326C39.053 13.9943 39.0543 13.6561 39.0555 13.3179C39.056 13.0871 39.0565 12.8563 39.0569 12.6255C39.0579 12.0628 39.0596 11.5002 39.0616 10.9375C39.0041 10.9379 38.9466 10.9384 38.8874 10.9388C38.2805 10.9432 37.6736 10.9461 37.0667 10.9482C36.8412 10.9492 36.6157 10.9505 36.3902 10.9522C34.584 10.9655 32.8816 10.933 31.1515 10.3516C31.0474 10.3176 30.9432 10.2836 30.836 10.2486C28.076 9.27366 25.9468 7.08698 24.6928 4.48269C24.1441 3.27378 23.8179 1.93654 23.8243 0.608867C23.8247 0.494777 23.8252 0.380687 23.8256 0.263139C23.8264 0.132882 23.8264 0.132882 23.8272 -6.07478e-06Z" fill="#2584FF"/>
</g>
<defs>
<clipPath id="clip0_1722_1980">
<rect width="50" height="50" fill="white"/>
</clipPath>
</defs>
</svg>
