<svg width="50" height="50" viewBox="0 0 50 50" fill="none" xmlns="http://www.w3.org/2000/svg">
<g clip-path="url(#clip0_1722_1958)">
<path d="M31.2786 26.4505C31.4048 26.4498 31.531 26.4491 31.661 26.4484C31.8007 26.4481 31.9404 26.4478 32.0801 26.4476C32.2274 26.4469 32.3747 26.4463 32.522 26.4456C33.0056 26.4436 33.4893 26.4425 33.973 26.4416C34.1398 26.4412 34.3067 26.4408 34.4735 26.4404C35.2578 26.4385 36.0421 26.4371 36.8265 26.4363C37.7299 26.4354 38.6333 26.4328 39.5367 26.4288C40.2361 26.4259 40.9355 26.4244 41.6349 26.4241C42.0521 26.4239 42.4692 26.423 42.8864 26.4206C43.2795 26.4183 43.6725 26.4179 44.0656 26.4189C44.2091 26.4189 44.3525 26.4183 44.4959 26.417C46.1287 26.4025 47.4145 26.8714 48.6054 27.9903C49.7451 29.1748 50.0596 30.594 50.0336 32.1789C49.9734 33.6214 49.2886 34.7388 48.2674 35.7239C46.9174 36.8845 45.4002 37.0265 43.6946 37.0259C43.5628 37.0262 43.431 37.0265 43.2992 37.0269C42.9435 37.0278 42.5877 37.028 42.232 37.0281C42.0091 37.0281 41.7861 37.0283 41.5632 37.0286C40.7835 37.0295 40.0039 37.0299 39.2242 37.0298C38.5006 37.0298 37.777 37.0308 37.0533 37.0323C36.4295 37.0336 35.8056 37.0341 35.1817 37.0341C34.8103 37.034 34.4388 37.0343 34.0674 37.0354C33.7176 37.0363 33.3678 37.0363 33.0179 37.0356C32.8305 37.0354 32.6431 37.0363 32.4557 37.0371C30.6273 37.0306 29.2476 36.6763 27.8832 35.4214C26.7967 34.3003 26.4259 32.9645 26.4297 31.4446C26.4428 30.7355 26.5489 30.1373 26.8563 29.4922C26.8905 29.4159 26.9248 29.3396 26.96 29.261C27.6589 27.8585 28.8432 27.0823 30.2742 26.5625C30.6123 26.4574 30.9254 26.4518 31.2786 26.4505Z" fill="#FDCB01"/>
<path d="M34.4766 0.660323C35.6857 1.48364 36.6117 2.6476 36.9134 4.10156C37.0154 4.83833 37.0256 5.56305 37.0253 6.30617C37.0256 6.43797 37.0259 6.56978 37.0263 6.70158C37.0271 7.05732 37.0274 7.41306 37.0274 7.76881C37.0275 7.99174 37.0277 8.21467 37.028 8.4376C37.0289 9.21725 37.0293 9.99691 37.0292 10.7766C37.0291 11.5002 37.0302 12.2238 37.0317 12.9475C37.033 13.5713 37.0335 14.1952 37.0334 14.8191C37.0334 15.1905 37.0337 15.562 37.0347 15.9334C37.0357 16.2832 37.0357 16.633 37.035 16.9829C37.0348 17.1703 37.0356 17.3577 37.0365 17.5451C37.03 19.3639 36.6852 20.7776 35.4104 22.121C34.3683 23.1091 33.1345 23.5947 31.701 23.5779C31.6113 23.5771 31.5215 23.5763 31.4291 23.5754C30.0911 23.5422 28.8722 23.0106 27.8924 22.0886C27.051 21.1826 26.4546 19.9666 26.4498 18.7222C26.4491 18.596 26.4485 18.4698 26.4477 18.3398C26.4475 18.2001 26.4472 18.0604 26.4469 17.9207C26.4463 17.7734 26.4457 17.6261 26.445 17.4788C26.4429 16.9952 26.4419 16.5115 26.441 16.0278C26.4406 15.861 26.4402 15.6941 26.4397 15.5273C26.4379 14.743 26.4365 13.9587 26.4357 13.1743C26.4347 12.2709 26.4322 11.3675 26.4282 10.4641C26.4253 9.76469 26.4238 9.06529 26.4235 8.36587C26.4233 7.94871 26.4224 7.53159 26.4199 7.11444C26.4176 6.72134 26.4173 6.32829 26.4183 5.93519C26.4183 5.79175 26.4177 5.6483 26.4163 5.50486C26.4018 3.87212 26.8708 2.58625 27.9897 1.39541C29.7025 -0.252691 32.4377 -0.518583 34.4766 0.660323Z" fill="#0CC46D"/>
<path d="M20.5078 26.8555C20.6222 26.9068 20.6222 26.9068 20.739 26.9592C22.1415 27.6581 22.9177 28.8424 23.4375 30.2734C23.5426 30.6115 23.5482 30.9246 23.5495 31.2778C23.5502 31.404 23.5509 31.5302 23.5516 31.6602C23.5519 31.7999 23.5522 31.9396 23.5524 32.0793C23.553 32.2266 23.5537 32.3739 23.5544 32.5212C23.5564 33.0048 23.5574 33.4885 23.5584 33.9722C23.5588 34.139 23.5592 34.3059 23.5596 34.4727C23.5615 35.257 23.5629 36.0413 23.5637 36.8257C23.5646 37.7291 23.5672 38.6325 23.5712 39.5359C23.5741 40.2353 23.5756 40.9347 23.5759 41.6341C23.5761 42.0513 23.577 42.4684 23.5794 42.8856C23.5817 43.2787 23.5821 43.6717 23.5811 44.0648C23.5811 44.2083 23.5817 44.3517 23.583 44.4951C23.5968 46.0415 23.1676 47.4252 22.0886 48.5718C20.7654 49.8006 19.2675 50.0791 17.5318 50.0179C17.017 49.9805 16.5758 49.8297 16.1133 49.6094C16.037 49.5751 15.9607 49.5409 15.8821 49.5056C14.5115 48.8227 13.6756 47.6605 13.1782 46.249C12.957 45.4089 12.9738 44.5566 12.9741 43.6938C12.9738 43.562 12.9735 43.4302 12.9731 43.2984C12.9722 42.9427 12.972 42.5869 12.9719 42.2312C12.9719 42.0083 12.9717 41.7853 12.9714 41.5624C12.9705 40.7827 12.9701 40.0031 12.9702 39.2234C12.9702 38.4998 12.9692 37.7762 12.9677 37.0525C12.9664 36.4287 12.9659 35.8048 12.9659 35.1809C12.966 34.8095 12.9657 34.438 12.9646 34.0666C12.9637 33.7168 12.9637 33.367 12.9644 33.0171C12.9645 32.8297 12.9637 32.6423 12.9629 32.4549C12.9694 30.6265 13.3237 29.2468 14.5786 27.8824C16.0958 26.4121 18.5782 25.936 20.5078 26.8555Z" fill="#FF423F"/>
<path d="M6.30657 12.9741C6.43838 12.9738 6.57018 12.9735 6.70198 12.9731C7.05772 12.9722 7.41346 12.972 7.76921 12.972C7.99214 12.9719 8.21507 12.9717 8.438 12.9714C9.21765 12.9705 9.99731 12.9701 10.777 12.9702C11.5006 12.9702 12.2242 12.9692 12.9479 12.9677C13.5717 12.9664 14.1956 12.9659 14.8195 12.9659C15.1909 12.966 15.5624 12.9657 15.9338 12.9646C16.2836 12.9637 16.6334 12.9637 16.9833 12.9644C17.1707 12.9646 17.3581 12.9637 17.5455 12.9629C19.3643 12.9694 20.778 13.3142 22.1214 14.5889C23.1095 15.631 23.5951 16.8649 23.5783 18.2983C23.5775 18.3881 23.5767 18.4778 23.5758 18.5703C23.5426 19.9083 23.011 21.1272 22.089 22.1069C21.183 22.9484 19.967 23.5448 18.7226 23.5495C18.5964 23.5502 18.4702 23.5509 18.3402 23.5516C18.2005 23.5519 18.0608 23.5522 17.9211 23.5524C17.7738 23.5531 17.6265 23.5537 17.4792 23.5544C16.9956 23.5564 16.5119 23.5575 16.0282 23.5584C15.8614 23.5588 15.6945 23.5592 15.5277 23.5596C14.7434 23.5615 13.9591 23.5629 13.1747 23.5637C12.2713 23.5647 11.3679 23.5672 10.4645 23.5712C9.76509 23.5741 9.06569 23.5756 8.36627 23.5759C7.94911 23.5761 7.53199 23.577 7.11484 23.5794C6.72174 23.5817 6.32869 23.5821 5.93559 23.5811C5.79215 23.5811 5.6487 23.5817 5.50526 23.583C3.95889 23.5968 2.57521 23.1676 1.42862 22.0886C0.199779 20.7655 -0.0786885 19.2675 -0.0175297 17.5318C0.0198929 17.017 0.170654 16.5758 0.391024 16.1133C0.425265 16.037 0.459506 15.9607 0.494784 15.8821C1.17772 14.5115 2.33995 13.6756 3.75139 13.1783C4.59153 12.957 5.44378 12.9738 6.30657 12.9741Z" fill="#35C6FF"/>
<path d="M20.6064 0.390626C20.7212 0.441987 20.7212 0.441987 20.8384 0.494385C22.0997 1.12504 22.9152 2.15607 23.3641 3.4687C23.4952 3.89555 23.5481 4.25153 23.5472 4.70171C23.5472 4.8835 23.5472 4.8835 23.5472 5.06895C23.5467 5.20069 23.5462 5.33243 23.5457 5.46417C23.5455 5.59936 23.5453 5.73455 23.5452 5.86974C23.5449 6.22487 23.5439 6.57999 23.5428 6.93511C23.5418 7.29776 23.5414 7.66042 23.5409 8.02307C23.5398 8.73413 23.5382 9.44519 23.5361 10.1563C22.7814 10.1654 22.0266 10.1723 21.2718 10.1765C20.9212 10.1785 20.5706 10.1813 20.22 10.1857C19.8806 10.19 19.5412 10.1923 19.2018 10.1933C19.0116 10.1944 18.8214 10.1974 18.6312 10.2005C17.1473 10.2009 15.827 9.72229 14.7471 8.69141C13.633 7.43956 13.2793 6.0431 13.3608 4.41499C13.4687 3.19484 14.1387 1.96105 15.0728 1.17531C16.6546 -0.041613 18.7478 -0.470703 20.6064 0.390626Z" fill="#35C6FF"/>
<path d="M26.4642 39.8437C27.219 39.8346 27.9737 39.8277 28.7285 39.8235C29.0792 39.8215 29.4298 39.8187 29.7804 39.8143C30.1198 39.81 30.4591 39.8077 30.7985 39.8067C30.9888 39.8056 31.179 39.8026 31.3692 39.7995C32.7655 39.7991 34.0476 40.2168 35.1068 41.1526C36.2575 42.3782 36.6877 43.7099 36.651 45.3564C36.5912 46.5515 36.0332 47.8049 35.1556 48.6328C33.7967 49.7759 32.4059 50.1354 30.6634 50C29.2492 49.7486 28.0579 48.9856 27.2272 47.8271C26.7385 47.0654 26.4513 46.2013 26.4531 45.2983C26.4531 45.1771 26.4531 45.0559 26.4532 44.931C26.4537 44.7993 26.4542 44.6676 26.4547 44.5358C26.4549 44.4006 26.455 44.2654 26.4551 44.1303C26.4555 43.7751 26.4564 43.42 26.4575 43.0649C26.4585 42.7022 26.459 42.3396 26.4595 41.9769C26.4605 41.2659 26.4622 40.5548 26.4642 39.8437Z" fill="#FDCB01"/>
<path d="M44.848 13.3484C44.9202 13.3489 44.9924 13.3495 45.0668 13.3501C46.3345 13.3778 47.5246 13.7964 48.4677 14.6671C49.6529 15.9403 50.0533 17.2711 50.026 18.9644C49.9799 20.1366 49.3991 21.3074 48.5955 22.1558C47.6791 22.9928 46.5518 23.5488 45.2976 23.5462C45.1764 23.5462 45.0552 23.5462 44.9304 23.5462C44.7986 23.5457 44.6669 23.5452 44.5352 23.5447C44.4 23.5445 44.2648 23.5444 44.1296 23.5443C43.7745 23.5439 43.4194 23.5429 43.0642 23.5419C42.7016 23.5409 42.3389 23.5404 41.9763 23.5399C41.2652 23.5389 40.5541 23.5372 39.8431 23.5352C39.834 22.7804 39.8271 22.0256 39.8228 21.2708C39.8208 20.9202 39.8181 20.5696 39.8136 20.219C39.8093 19.8796 39.807 19.5403 39.806 19.2008C39.805 19.0106 39.8019 18.8204 39.7988 18.6302C39.7985 17.1463 40.277 15.8261 41.3079 14.7461C42.3039 13.8597 43.5163 13.3376 44.848 13.3484Z" fill="#0CC46D"/>
<path d="M4.70262 26.4538C4.82381 26.4538 4.945 26.4538 5.06987 26.4538C5.20161 26.4543 5.33335 26.4548 5.46509 26.4553C5.60028 26.4555 5.73546 26.4556 5.87065 26.4557C6.22578 26.4561 6.5809 26.4571 6.93602 26.4581C7.29868 26.4591 7.66133 26.4596 8.02399 26.4601C8.73505 26.4611 9.4461 26.4628 10.1572 26.4648C10.1663 27.2196 10.1732 27.9744 10.1774 28.7292C10.1794 29.0798 10.1822 29.4304 10.1866 29.781C10.1909 30.1204 10.1932 30.4597 10.1942 30.7992C10.1953 30.9894 10.1983 31.1796 10.2014 31.3698C10.2018 32.7662 9.78413 34.0483 8.84834 35.1074C7.63021 36.2511 6.32473 36.6878 4.68155 36.6451C3.48589 36.5702 2.18686 36.0546 1.3681 35.1562C0.195594 33.7642 -0.14011 32.3431 0.000913646 30.5664C0.0844518 30.1483 0.212558 29.7807 0.391539 29.3945C0.425779 29.318 0.46002 29.2415 0.495298 29.1626C1.12595 27.9013 2.15699 27.0858 3.46962 26.6369C3.89646 26.5058 4.25244 26.4528 4.70262 26.4538Z" fill="#FF433F"/>
</g>
<defs>
<clipPath id="clip0_1722_1958">
<rect width="50" height="50" fill="white"/>
</clipPath>
</defs>
</svg>
