<svg width="50" height="50" viewBox="0 0 50 50" fill="none" xmlns="http://www.w3.org/2000/svg">
<g clip-path="url(#clip0_1722_2005)">
<path d="M28.5729 11.2038C28.7907 11.3671 28.9954 11.5377 29.1986 11.7187C29.2633 11.7744 29.328 11.83 29.3946 11.8874C30.7544 13.1404 31.4357 14.8905 31.5637 16.7099C31.6222 18.7089 30.8956 20.5823 29.5308 22.0333C28.1212 23.4292 26.3877 24.1464 24.4134 24.1699C23.4041 24.1626 22.3883 24.0039 21.4837 23.5352C21.4847 23.6657 21.4847 23.6657 21.4857 23.7988C21.4916 24.6192 21.496 25.4397 21.4989 26.2601C21.5004 26.6819 21.5025 27.1037 21.5058 27.5255C21.509 27.9326 21.5107 28.3398 21.5115 28.7469C21.512 28.9022 21.5131 29.0574 21.5147 29.2126C21.5168 29.4303 21.5171 29.6479 21.517 29.8655C21.5179 30.0513 21.5179 30.0513 21.5189 30.2408C21.4809 30.5923 21.4051 30.7763 21.1907 31.0547C20.9662 31.1414 20.9662 31.1414 20.7048 31.1764C20.6089 31.1898 20.5131 31.2033 20.4144 31.2171C20.2669 31.2334 20.2669 31.2334 20.1165 31.25C20.026 31.2602 19.9356 31.2704 19.8423 31.2809C19.5636 31.3091 19.285 31.3323 19.0057 31.3538C18.8517 31.3658 18.8517 31.3658 18.6946 31.3781C18.3874 31.4015 18.0801 31.4237 17.7728 31.4453C17.691 31.4512 17.6092 31.4572 17.525 31.4633C14.619 31.6653 11.6894 31.5776 8.7884 31.3477C8.63467 31.3359 8.63467 31.3359 8.47784 31.324C8.21493 31.3032 7.95236 31.2804 7.68977 31.2561C7.61767 31.25 7.54558 31.2439 7.4713 31.2376C7.06282 31.1947 6.77459 31.1068 6.44465 30.8594C6.28367 30.5374 6.32994 30.1789 6.32816 29.8249C6.32736 29.738 6.32656 29.6512 6.32574 29.5616C6.32331 29.2734 6.3217 28.9851 6.32029 28.6968C6.31977 28.5985 6.31925 28.5002 6.31872 28.3988C6.3161 27.8784 6.31421 27.358 6.3128 26.8376C6.31118 26.2997 6.3068 25.7618 6.30183 25.2239C6.29855 24.8106 6.29742 24.3974 6.29686 23.9841C6.29621 23.7858 6.29472 23.5875 6.29238 23.3892C6.2893 23.1117 6.28929 22.8343 6.29001 22.5568C6.28841 22.4748 6.28681 22.3929 6.28516 22.3084C6.28964 21.8889 6.30948 21.7278 6.57617 21.3858C6.88657 21.1529 7.07733 21.1152 7.46203 21.0831C7.5847 21.0719 7.70738 21.0607 7.83377 21.0491C7.96148 21.0397 8.08919 21.0302 8.22077 21.0205C8.40497 21.0041 8.40497 21.0041 8.5929 20.9873C8.9834 20.9537 9.37394 20.9251 9.76496 20.8984C9.83169 20.8937 9.89841 20.8889 9.96716 20.884C11.1582 20.8006 12.3464 20.7856 13.5401 20.788C13.8404 20.7886 14.1407 20.7881 14.441 20.7874C15.7494 20.787 17.0523 20.8277 18.3587 20.8984C18.3177 20.8215 18.2767 20.7446 18.2345 20.6653C17.2487 18.7979 17.0244 16.8837 17.5775 14.8437C18.1602 12.9994 19.4884 11.5302 21.1907 10.6445C23.6464 9.53651 26.3162 9.70156 28.5729 11.2038Z" fill="#FD2AA8"/>
<path d="M26.4648 28.125C30.8477 28.125 35.2305 28.125 39.7461 28.125C40.0139 33.2446 40.0139 33.2446 39.959 34.5787C39.9551 34.6721 39.9513 34.7655 39.9473 34.8617C39.8709 36.3979 39.6285 37.6312 38.4887 38.7561C37.412 39.7226 36.4199 40.2803 34.9533 40.2344C34.7273 40.2217 34.5035 40.2039 34.2784 40.1796C33.5144 40.0971 32.9005 40.0656 32.2536 40.5307C31.3463 41.2721 30.5714 42.1703 29.8305 43.0741C29.7511 43.1682 29.6717 43.2624 29.5898 43.3594C29.5576 43.3594 29.5254 43.3594 29.4922 43.3594C29.4922 42.2959 29.4922 41.2324 29.4922 40.1367C28.4932 40.1367 27.4941 40.1367 26.4648 40.1367C26.4648 36.1729 26.4648 32.209 26.4648 28.125Z" fill="#B289C9"/>
<path d="M28.5738 11.2038C28.7915 11.3671 28.9962 11.5377 29.1994 11.7187C29.2641 11.7744 29.3288 11.83 29.3955 11.8874C30.7552 13.1404 31.4365 14.8905 31.5645 16.7099C31.623 18.7089 30.8964 20.5823 29.5316 22.0333C28.1222 23.429 26.3884 24.1466 24.4142 24.1699C23.4879 24.1625 22.0907 24.0942 21.3869 23.4375C21.3171 23.1268 21.3186 22.8211 21.3197 22.5037C21.3181 22.3347 21.3158 22.1657 21.3125 21.9967C21.3125 21.9218 21.3126 21.847 21.3126 21.7699C21.3058 21.5587 21.3058 21.5587 21.0939 21.3867C20.829 21.3407 20.829 21.3407 20.5187 21.32C20.403 21.3078 20.2873 21.2957 20.1681 21.2831C19.9245 21.2588 19.6806 21.2376 19.4364 21.2198C18.5659 21.1203 18.5659 21.1203 18.2503 20.7597C18.0982 20.4844 17.9797 20.2169 17.8713 19.9219C17.8323 19.8274 17.7933 19.7329 17.7532 19.6355C17.0505 17.9024 17.1261 15.9827 17.7858 14.2456C18.6014 12.4344 20.0083 11.1012 21.8508 10.3638C24.1142 9.51647 26.5764 9.87418 28.5738 11.2038Z" fill="#08A9F1"/>
<path d="M5.22241 -0.0188421C5.30692 -0.0196407 5.39144 -0.0204393 5.47851 -0.021262C5.7585 -0.0236872 6.03849 -0.0253017 6.31849 -0.0267099C6.46208 -0.0274897 6.46208 -0.0274897 6.60856 -0.0282853C7.11538 -0.0308952 7.6222 -0.0327873 8.12902 -0.0341963C8.54799 -0.0354982 8.96691 -0.0382169 9.38587 -0.0422071C9.89213 -0.0470288 10.3984 -0.0494431 10.9046 -0.0501364C11.0973 -0.0507911 11.2899 -0.0522753 11.4825 -0.0546179C11.7527 -0.0577166 12.0227 -0.0577113 12.293 -0.0569891C12.3719 -0.0585912 12.4508 -0.0601932 12.5321 -0.0618439C13.1834 -0.0547519 13.6515 0.178159 14.1145 0.636086C14.6967 1.30666 14.7611 1.93711 14.7605 2.80413C14.7608 2.87725 14.7611 2.95038 14.7615 3.02572C14.7624 3.26608 14.7626 3.50643 14.7627 3.74679C14.763 3.91486 14.7633 4.08293 14.7637 4.251C14.7643 4.60283 14.7645 4.95465 14.7644 5.30648C14.7644 5.75588 14.7657 6.20528 14.7674 6.65468C14.7685 7.0017 14.7687 7.34872 14.7686 7.69574C14.7688 7.86136 14.7692 8.02698 14.7699 8.1926C14.7709 8.42485 14.7706 8.65708 14.77 8.88934C14.7706 8.95683 14.7711 9.02433 14.7717 9.09387C14.767 9.82946 14.6273 10.4515 14.1604 11.0352C13.5752 11.603 13.1494 11.748 12.3419 11.7456C12.2571 11.7461 12.1723 11.7466 12.0849 11.7471C11.8044 11.7484 11.5241 11.7483 11.2436 11.7481C11.0486 11.7485 10.8535 11.7489 10.6584 11.7494C10.2494 11.7501 9.84041 11.7501 9.43143 11.7496C8.90777 11.749 8.38414 11.7507 7.86048 11.7529C7.45751 11.7544 7.05454 11.7544 6.65157 11.7541C6.45853 11.7542 6.26549 11.7547 6.07245 11.7557C5.80223 11.7569 5.53208 11.7562 5.26187 11.7551C5.1824 11.7558 5.10294 11.7566 5.02107 11.7574C4.33162 11.751 3.81945 11.5209 3.32052 11.0352C2.92584 10.3928 2.81764 9.84741 2.8165 9.09778C2.81602 9.02103 2.81553 8.94428 2.81504 8.86521C2.81361 8.61158 2.81294 8.35795 2.8124 8.10432C2.81184 7.92744 2.81128 7.75057 2.81072 7.5737C2.80969 7.20272 2.80912 6.83175 2.80878 6.46078C2.80825 5.98707 2.8059 5.51338 2.80312 5.03968C2.80129 4.67414 2.80079 4.30861 2.80064 3.94307C2.80035 3.76853 2.79957 3.59399 2.79828 3.41946C2.78516 1.50422 2.78516 1.50422 3.30221 0.701897C3.89872 0.105388 4.40814 -0.0146027 5.22241 -0.0188421Z" fill="#FE93D3"/>
<path d="M44.3359 4.98047C44.4387 5.09225 44.4387 5.09225 44.5435 5.2063C44.7271 5.40852 44.7271 5.40852 45.0623 5.37109C45.553 5.28313 46.0258 5.12054 46.4985 4.96483C46.7773 4.88281 46.7773 4.88281 47.0703 4.88281C46.9398 5.29609 46.8087 5.69357 46.6274 6.08787C46.2467 6.91845 46.1483 7.57353 46.1823 8.48274C46.2462 10.2966 45.5603 12.1506 44.3817 13.5159C43.007 14.9623 41.272 15.715 39.2904 15.7686C37.7129 15.782 36.3621 15.6001 35.1616 14.4695C34.8793 14.1566 34.7174 13.8738 34.5703 13.4766C34.7174 13.4728 34.7174 13.4728 34.8675 13.4689C35.9741 13.428 37.0931 13.3138 37.9883 12.5977C37.9198 12.5503 37.8513 12.503 37.7808 12.4542C36.1814 11.3243 35.3642 10.0405 35.0044 8.10737C34.928 7.54887 34.9429 6.98342 34.9426 6.4209C34.9414 6.30533 34.9402 6.18977 34.939 6.07071C34.9388 5.96018 34.9386 5.84965 34.9384 5.73578C34.938 5.63529 34.9376 5.5348 34.9372 5.43127C34.9609 5.17578 34.9609 5.17578 35.1562 4.88281C35.2361 4.99441 35.2361 4.99441 35.3176 5.10826C36.3074 6.46346 37.5133 7.73174 39.2578 8.00781C39.8101 8.06225 40.3635 8.08681 40.918 8.10547C40.8696 7.99469 40.8213 7.88391 40.7715 7.76977C40.5266 7.10864 40.5458 6.49289 40.823 5.8445C41.1279 5.26519 41.5199 4.96731 42.0898 4.6875C42.8891 4.4482 43.6092 4.58733 44.3359 4.98047Z" fill="#98E6FC"/>
<path d="M35.7422 28.125C37.0635 28.125 38.3848 28.125 39.7461 28.125C40.3162 36.4745 40.3162 36.4745 38.915 38.3044C38.0606 39.2747 36.962 40.1399 35.6334 40.2367C35.1789 40.2473 34.7305 40.2284 34.2784 40.1796C33.5144 40.0971 32.9005 40.0656 32.2536 40.5307C31.3463 41.2721 30.5714 42.1703 29.8305 43.0741C29.7114 43.2153 29.7114 43.2153 29.5898 43.3594C29.5576 43.3594 29.5254 43.3594 29.4922 43.3594C29.4922 42.2959 29.4922 41.2324 29.4922 40.1367C29.891 40.1891 30.2898 40.2415 30.7007 40.2954C31.9079 40.341 32.6087 39.9249 33.4782 39.1221C33.7078 38.9003 33.9322 38.6744 34.1553 38.446C34.2662 38.3347 34.2662 38.3347 34.3795 38.2211C35.3575 37.2718 35.3575 37.2718 35.7864 36.0249C35.779 35.7561 35.779 35.7561 35.7422 35.5469C35.863 35.5529 35.9839 35.559 36.1084 35.5652C36.354 35.5775 36.5025 35.556 36.7288 35.4572C37.0323 35.1242 36.9678 34.7514 36.9625 34.317C36.9627 34.1789 36.9627 34.1789 36.9629 34.0379C36.9628 33.8432 36.9616 33.6485 36.9596 33.4538C36.9568 33.1554 36.9576 32.8572 36.9589 32.5588C36.9583 32.3697 36.9575 32.1807 36.9564 31.9916C36.9567 31.9022 36.957 31.8127 36.9573 31.7206C36.956 31.6375 36.9548 31.5544 36.9535 31.4688C36.9527 31.3592 36.9527 31.3592 36.9519 31.2474C36.9239 31.0101 36.9239 31.0101 36.6211 30.7617C36.3311 30.7295 36.041 30.6973 35.7422 30.6641C35.7422 29.8262 35.7422 28.9883 35.7422 28.125Z" fill="#A274BF"/>
<path d="M8.98438 -7.46478e-06C9.5681 -0.012131 10.1517 -0.0209642 10.7356 -0.0268296C10.9339 -0.0292761 11.1322 -0.0326015 11.3306 -0.0368431C11.6166 -0.042806 11.9026 -0.0455448 12.1887 -0.0476912C12.3205 -0.0514714 12.3205 -0.0514714 12.4548 -0.055328C13.1477 -0.0556322 13.6202 0.146329 14.1139 0.636122C14.6971 1.30567 14.7608 1.93761 14.7603 2.80413C14.7606 2.87725 14.7609 2.95038 14.7613 3.02572C14.7622 3.26608 14.7624 3.50643 14.7625 3.74679C14.7628 3.91486 14.7631 4.08293 14.7635 4.251C14.7641 4.60282 14.7642 4.95465 14.7642 5.30647C14.7642 5.75588 14.7655 6.20528 14.7672 6.65468C14.7683 7.0017 14.7685 7.34872 14.7684 7.69574C14.7685 7.86136 14.769 8.02698 14.7697 8.1926C14.7707 8.42485 14.7704 8.65708 14.7698 8.88933C14.7704 8.95683 14.7709 9.02433 14.7715 9.09387C14.7668 9.82946 14.627 10.4515 14.1602 11.0351C13.7398 11.4431 13.3526 11.7444 12.7538 11.7409C12.6277 11.7409 12.6277 11.7409 12.4991 11.7409C12.4093 11.7399 12.3194 11.7389 12.2269 11.7378C12.1342 11.7375 12.0416 11.7373 11.9461 11.737C11.6506 11.7359 11.3551 11.7334 11.0596 11.7309C10.859 11.73 10.6585 11.7291 10.458 11.7283C9.96678 11.7261 9.47558 11.7228 8.98438 11.7187C9.27734 11.5234 9.27734 11.5234 9.45969 11.425C9.52439 11.389 9.5891 11.353 9.65576 11.3159C9.71996 11.2814 9.78416 11.2469 9.85031 11.2114C10.2827 10.8455 10.5171 10.4925 10.5885 9.92088C10.6028 9.52873 10.606 9.13863 10.6018 8.74633C10.5892 7.19642 10.5892 7.19642 10.9463 6.52043C11.0615 6.29639 11.0875 6.11007 11.084 5.85937C11.085 5.78686 11.086 5.71435 11.087 5.63964C11.0366 5.37857 10.9617 5.22782 10.8391 4.99572C10.5173 4.30349 10.5987 3.52392 10.6113 2.77628C10.6215 2.00848 10.6197 1.37314 10.1223 0.74753C9.91119 0.536127 9.71162 0.402305 9.43604 0.286858C9.35069 0.24947 9.26534 0.212082 9.1774 0.173561C9.1137 0.14851 9.05 0.123459 8.98438 0.0976488C8.98438 0.0654222 8.98438 0.0331957 8.98438 -7.46478e-06Z" fill="#FE73C5"/>
<path d="M44.3359 4.98047C44.4387 5.09226 44.4387 5.09226 44.5435 5.2063C44.7271 5.40852 44.7271 5.40852 45.0623 5.3711C45.553 5.28313 46.0258 5.12055 46.4985 4.96483C46.7773 4.88281 46.7773 4.88281 47.0703 4.88281C46.9398 5.29609 46.8087 5.69357 46.6274 6.08788C46.2467 6.91845 46.1483 7.57353 46.1823 8.48274C46.2462 10.2966 45.5603 12.1506 44.3817 13.5159C43.1128 14.851 41.4546 15.6883 39.6046 15.7528C37.7524 15.782 37.7524 15.782 36.9141 15.5273C37.2069 15.3321 37.463 15.2313 37.793 15.1123C39.4043 14.4989 40.9095 13.4987 41.6992 11.9141C41.9873 11.2192 42.266 10.524 42.2852 9.76563C42.2889 9.66454 42.2927 9.56346 42.2966 9.45931C42.321 8.22798 42.2071 7.05266 41.6016 5.95703C41.4939 5.85601 41.4939 5.85601 41.3841 5.75295C41.2109 5.56641 41.2109 5.56641 41.2121 5.36309C41.3336 5.12729 41.4532 5.04725 41.6809 4.91333C41.748 4.87267 41.8151 4.83201 41.8842 4.79012C42.6981 4.38395 43.5642 4.563 44.3359 4.98047Z" fill="#63DBFB"/>
<path d="M4.49219 34.668C4.76806 34.9704 4.95233 35.2809 5.12924 35.6464C5.72757 36.8745 6.14791 37.5587 7.42188 38.0859C7.66493 38.2108 7.90325 38.3438 8.14209 38.4766C8.3251 38.5744 8.50817 38.6721 8.69141 38.7695C8.59375 39.0625 8.59375 39.0625 8.36508 39.1918C8.21561 39.2577 8.21561 39.2577 8.06313 39.325C6.64962 39.9869 5.74022 40.5479 5.16829 42.0688C5.02049 42.4235 4.83245 42.7673 4.58984 43.0664C4.52539 43.0664 4.46094 43.0664 4.39453 43.0664C4.34008 42.9556 4.34008 42.9556 4.28452 42.8426C4.14651 42.5652 4.00611 42.2892 3.86405 42.0138C3.80345 41.8951 3.74378 41.776 3.68514 41.6564C3.26846 40.8084 2.90574 40.3429 2.05078 39.9414C1.89024 39.8522 1.73026 39.7619 1.57089 39.6706C1.41764 39.5857 1.26429 39.501 1.11084 39.4165C1.03141 39.3726 0.951973 39.3286 0.870132 39.2834C0.67783 39.177 0.485443 39.0709 0.292969 38.9648C0.526814 38.6969 0.756887 38.5819 1.08261 38.4445C2.64518 37.733 3.39502 36.969 4.08661 35.3977C4.20557 35.1426 4.34374 34.9069 4.49219 34.668Z" fill="#FEDF2F"/>
<path d="M26.2946 12.6526C26.5315 12.9825 26.5294 13.177 26.4655 13.5742C26.3374 13.8061 26.3374 13.8061 26.0749 13.9648C25.714 14.0261 25.3679 14.045 25.0007 14.0625C24.9685 14.4814 24.9362 14.9004 24.903 15.332C25.0541 15.324 25.2052 15.3159 25.3608 15.3076C25.7084 15.3091 25.8674 15.3259 26.1848 15.4846C26.3679 15.7227 26.3679 15.7227 26.4228 16.0644C26.3679 16.4062 26.3679 16.4062 26.2397 16.6443C25.9322 16.8231 25.775 16.8128 25.4237 16.8064C25.2777 16.8043 25.2777 16.8043 25.1288 16.8022C25.017 16.7996 25.017 16.7996 24.903 16.7969C24.9039 16.8511 24.9048 16.9052 24.9057 16.9611C24.9143 17.525 24.9202 18.089 24.9245 18.653C24.9265 18.8634 24.9291 19.0739 24.9325 19.2844C24.9372 19.5869 24.9395 19.8894 24.9412 20.192C24.9432 20.2861 24.9452 20.3802 24.9473 20.4771C24.9475 21.1273 24.9475 21.1273 24.7267 21.4457C24.4078 21.6485 24.1979 21.6413 23.8288 21.582C23.5875 21.3727 23.4557 21.2037 23.4046 20.8835C23.3929 20.6235 23.3943 20.3664 23.4 20.1061C23.4006 20.0114 23.4011 19.9168 23.4017 19.8192C23.4039 19.5177 23.4088 19.2163 23.4138 18.9148C23.4157 18.71 23.4175 18.5052 23.4191 18.3004C23.4234 17.7992 23.4302 17.2981 23.4382 16.7969C23.2764 16.8016 23.2764 16.8016 23.1113 16.8064C22.7546 16.7969 22.7546 16.7969 22.5166 16.6443C22.305 16.3142 22.309 16.1074 22.364 15.7227C22.5166 15.4846 22.5166 15.4846 22.7546 15.332C22.9824 15.3259 23.2104 15.3254 23.4382 15.332C23.4348 15.226 23.4314 15.12 23.4279 15.0108C23.4251 14.8697 23.4225 14.7285 23.4199 14.5874C23.4174 14.5178 23.415 14.4482 23.4124 14.3764C23.4048 13.821 23.5118 13.4263 23.8956 13.0016C23.9521 12.9549 24.0086 12.9082 24.0668 12.8601C24.1513 12.7882 24.1513 12.7882 24.2374 12.7148C24.7972 12.3451 25.7125 12.3727 26.2946 12.6526Z" fill="#FDFEFE"/>
<path d="M9.79044 3.71704C10.4723 4.09705 10.904 4.61973 11.1332 5.37109C11.2473 6.12143 11.0715 6.70202 10.6449 7.32422C10.2162 7.80795 9.70008 8.13892 9.05191 8.23746C8.31143 8.28142 7.69872 8.04642 7.14342 7.55424C6.59676 6.95629 6.38493 6.34462 6.41252 5.53779C6.50143 4.82961 6.87155 4.39178 7.41579 3.95279C8.16819 3.41515 8.9535 3.3357 9.79044 3.71704Z" fill="#FEFDFE"/>
<path d="M26.8555 0C27.1484 0.0976562 27.1484 0.0976562 27.2478 0.269437C27.2782 0.343292 27.3086 0.417147 27.3399 0.49324C27.9698 1.88652 28.706 2.49556 30.0911 3.1239C30.2734 3.22266 30.2734 3.22266 30.3711 3.41797C30.3121 3.44222 30.2532 3.46647 30.1925 3.49145C28.5126 4.21227 27.7437 5.05389 27.0508 6.73828C26.9863 6.73828 26.9219 6.73828 26.8555 6.73828C26.8312 6.67934 26.807 6.62039 26.782 6.55966C26.0612 4.87977 25.2195 4.11088 23.5352 3.41797C23.7483 3.18673 23.9599 3.03527 24.2344 2.88277C24.3119 2.83965 24.3894 2.79654 24.4692 2.75211C24.5497 2.70799 24.6302 2.66387 24.7131 2.61841C24.794 2.57315 24.8749 2.5279 24.9582 2.48127C25.5607 2.14844 25.5607 2.14844 25.7812 2.14844C25.8042 2.06863 25.8271 1.98882 25.8507 1.90659C26.0027 1.49114 26.2072 1.12659 26.4282 0.744629C26.4693 0.672749 26.5103 0.600868 26.5526 0.52681C26.6531 0.35094 26.7542 0.175432 26.8555 0Z" fill="#FEDF2F"/>
<path d="M20.4102 43.6523C20.4746 43.6523 20.5391 43.6523 20.6055 43.6523C20.6556 43.7679 20.7057 43.8835 20.7573 44.0025C21.3608 45.2828 22.0529 45.8288 23.3398 46.3867C23.3398 46.4512 23.3398 46.5156 23.3398 46.582C23.0676 46.7292 22.7948 46.8754 22.522 47.0215C22.4444 47.0634 22.3669 47.1053 22.287 47.1485C22.2127 47.1882 22.1384 47.2278 22.0619 47.2687C21.9934 47.3055 21.9249 47.3423 21.8543 47.3803C21.6797 47.4609 21.6797 47.4609 21.4844 47.4609C21.4594 47.5438 21.4345 47.6266 21.4088 47.7119C21.2808 48.0701 21.1185 48.3853 20.9351 48.7183C20.8734 48.8308 20.8117 48.9433 20.7481 49.0593C20.7011 49.1441 20.654 49.229 20.6055 49.3164C20.541 49.3164 20.4766 49.3164 20.4102 49.3164C20.335 49.1431 20.335 49.1431 20.2583 48.9662C19.6549 47.6859 18.9627 47.14 17.6758 46.582C17.6758 46.5176 17.6758 46.4531 17.6758 46.3867C17.7913 46.3366 17.9069 46.2865 18.026 46.2349C19.3063 45.6314 19.8522 44.9393 20.4102 43.6523Z" fill="#FEDF2F"/>
<path d="M46.7773 25.1953C47.1203 25.5034 47.3195 25.8266 47.5342 26.2329C47.5941 26.3449 47.654 26.457 47.7158 26.5724C47.8516 26.8555 47.8516 26.8555 47.8516 27.0508C47.9355 27.076 48.0195 27.1011 48.106 27.1271C48.4489 27.2502 48.7401 27.4034 49.054 27.5879C49.1563 27.6473 49.2586 27.7067 49.3641 27.7679C49.6094 27.9297 49.6094 27.9297 49.707 28.125C49.4348 28.2721 49.162 28.4184 48.8892 28.5645C48.8116 28.6064 48.7341 28.6483 48.6542 28.6915C48.5799 28.7311 48.5056 28.7708 48.4291 28.8116C48.3606 28.8485 48.2921 28.8853 48.2214 28.9232C48.0469 29.0039 48.0469 29.0039 47.8516 29.0039C47.8263 29.0877 47.801 29.1716 47.7749 29.258C47.6523 29.6008 47.5017 29.8969 47.3206 30.2124C47.2623 30.3159 47.204 30.4194 47.1439 30.526C47.0874 30.6038 47.0309 30.6816 46.9727 30.7617C46.876 30.7617 46.7793 30.7617 46.6797 30.7617C46.6366 30.6532 46.5936 30.5447 46.5492 30.4329C45.9957 29.1691 45.2885 28.6718 44.043 28.125C44.043 28.0605 44.043 27.9961 44.043 27.9297C44.1585 27.8796 44.2741 27.8295 44.3932 27.7779C45.6735 27.1744 46.2194 26.4822 46.7773 25.1953Z" fill="#FEDE2F"/>
<path d="M15.8196 33.6914C16.0743 33.852 16.1686 33.9217 16.3078 34.1797C16.3817 34.6249 16.3739 35.0664 16.3693 35.5167C16.3693 35.6487 16.3696 35.7806 16.37 35.9125C16.3702 36.1884 16.3688 36.4643 16.3661 36.7402C16.3628 37.0935 16.3634 37.4466 16.3652 37.7998C16.3663 38.072 16.3654 38.3442 16.3639 38.6164C16.3632 38.8099 16.3639 39.0033 16.3646 39.1967C16.3631 39.3144 16.3615 39.4321 16.3599 39.5533C16.3593 39.6568 16.3587 39.7603 16.3581 39.8669C16.2951 40.2053 16.1866 40.3188 15.9172 40.5274C15.5815 40.625 15.5815 40.625 15.2336 40.625C14.96 40.4525 14.7927 40.3291 14.6477 40.0391C14.6378 39.8576 14.6342 39.6759 14.6335 39.4942C14.6329 39.3801 14.6322 39.266 14.6316 39.1485C14.6315 39.0247 14.6314 38.9009 14.6313 38.7734C14.631 38.6467 14.6306 38.52 14.6303 38.3895C14.6297 38.121 14.6295 37.8526 14.6296 37.5841C14.6296 37.2404 14.6283 36.8967 14.6266 36.553C14.6252 36.225 14.6253 35.897 14.6252 35.569C14.6245 35.4456 14.6238 35.3222 14.623 35.1951C14.6233 35.0804 14.6236 34.9657 14.624 34.8475C14.6238 34.7466 14.6237 34.6457 14.6235 34.5417C14.6482 34.2717 14.698 34.1138 14.843 33.8867C15.1574 33.6621 15.4412 33.6374 15.8196 33.6914Z" fill="#C8EFFE"/>
<path d="M35.0595 43.1641C35.3143 43.3256 35.4089 43.3943 35.5478 43.6523C35.6213 44.0893 35.6138 44.5224 35.6092 44.9646C35.6094 45.0928 35.6096 45.221 35.6099 45.3531C35.6102 45.624 35.6087 45.8948 35.6061 46.1658C35.6027 46.5122 35.6033 46.8585 35.6051 47.205C35.6064 47.5365 35.6046 47.868 35.6031 48.1995C35.6036 48.3236 35.604 48.4477 35.6045 48.5756C35.603 48.6913 35.6014 48.807 35.5999 48.9262C35.5993 49.0277 35.5986 49.1292 35.598 49.2338C35.535 49.5824 35.4017 49.7483 35.1571 50C34.9405 50.0648 34.9405 50.0648 34.7177 50.061C34.6442 50.0623 34.5707 50.0636 34.4949 50.0648C34.1723 49.9683 34.0722 49.7877 33.8876 49.5117C33.8373 49.2338 33.8373 49.2338 33.8355 48.9262C33.834 48.8105 33.8324 48.6948 33.8308 48.5756C33.8316 48.3894 33.8316 48.3894 33.8323 48.1995C33.8317 48.0713 33.8311 47.943 33.8305 47.811C33.8294 47.5401 33.8299 47.2692 33.8313 46.9983C33.833 46.6518 33.8307 46.3055 33.8273 45.959C33.8246 45.6276 33.8256 45.2961 33.8262 44.9646C33.8249 44.8405 33.8236 44.7164 33.8223 44.5885C33.8324 43.6323 33.8324 43.6323 34.1142 43.33C34.4631 43.1087 34.6537 43.0916 35.0595 43.1641Z" fill="#C8EEFD"/>
<path d="M38.7787 18.7111C39.0619 18.7704 39.1874 18.9126 39.3551 19.1406C39.4825 19.3955 39.4665 19.5848 39.4684 19.8703C39.4694 19.9821 39.4703 20.0939 39.4713 20.2091C39.4717 20.3305 39.4721 20.4518 39.4725 20.5769C39.4731 20.7012 39.4737 20.8254 39.4742 20.9535C39.4752 21.2169 39.4758 21.4804 39.4762 21.7438C39.4767 22.0807 39.4791 22.4176 39.4818 22.7545C39.4841 23.0764 39.4843 23.3983 39.4848 23.7202C39.486 23.8409 39.4872 23.9617 39.4884 24.0861C39.4881 24.1989 39.4878 24.3116 39.4875 24.4277C39.4879 24.5267 39.4882 24.6256 39.4886 24.7276C39.4466 25.0463 39.3482 25.2301 39.1597 25.4883C38.8541 25.6411 38.5142 25.654 38.1832 25.5859C37.9156 25.3759 37.8043 25.2601 37.743 24.9211C37.7426 24.8156 37.7423 24.7101 37.742 24.6014C37.7402 24.4215 37.7402 24.4215 37.7383 24.2379C37.739 24.1074 37.7398 23.9769 37.7407 23.8464C37.7404 23.7122 37.74 23.5779 37.7395 23.4437C37.739 23.1626 37.7398 22.8816 37.7416 22.6005C37.7439 22.2405 37.7426 21.8807 37.7402 21.5208C37.7388 21.2436 37.7393 20.9665 37.7403 20.6894C37.7405 20.5567 37.7402 20.424 37.7393 20.2913C37.7383 20.1057 37.7401 19.9201 37.742 19.7346C37.7423 19.6291 37.7426 19.5235 37.743 19.4148C37.851 18.8175 38.2342 18.6847 38.7787 18.7111Z" fill="#C8EFFE"/>
<path d="M12.1094 24.1211C12.513 24.2825 12.8581 24.4552 13.2332 24.6704C13.2925 24.7044 13.3518 24.7383 13.4129 24.7733C13.5376 24.8447 13.6622 24.9163 13.7866 24.988C13.977 25.0976 14.1675 25.2068 14.3581 25.3159C15.2838 25.8468 15.2838 25.8468 15.625 26.0742C15.625 26.1387 15.625 26.2031 15.625 26.2695C15.2405 26.4853 14.856 26.7009 14.4714 26.9165C14.364 26.9768 14.2565 27.0371 14.1459 27.0992C13.9858 27.1889 13.9858 27.1889 13.8226 27.2804C13.7259 27.3346 13.6292 27.3888 13.5297 27.4447C13.0577 27.7066 12.5833 27.9642 12.1094 28.2227C12.1094 26.8691 12.1094 25.5156 12.1094 24.1211Z" fill="#FFFCFD"/>
<path d="M33.3004 30.6091C33.3648 30.607 33.4293 30.6049 33.4957 30.6026C33.8121 30.7021 33.9069 30.8743 34.0816 31.1523C34.1364 31.449 34.1318 31.7398 34.1266 32.0408C34.1265 32.1684 34.1265 32.1684 34.1264 32.2986C34.1258 32.478 34.1242 32.6573 34.1218 32.8367C34.1182 33.111 34.1178 33.3852 34.1179 33.6596C34.1169 33.8341 34.1158 34.0086 34.1144 34.1831C34.1142 34.265 34.114 34.3469 34.1138 34.4313C34.1125 34.5079 34.1113 34.5845 34.11 34.6634C34.1092 34.7305 34.1085 34.7975 34.1077 34.8666C34.0762 35.0984 34.0101 35.251 33.8863 35.4492C33.523 35.6914 33.3396 35.6898 32.9097 35.6445C32.6959 35.5059 32.6959 35.5059 32.5191 35.2539C32.4608 34.9397 32.4644 34.6297 32.4672 34.3109C32.4669 34.2192 32.4665 34.1275 32.4661 34.033C32.4658 33.8392 32.4666 33.6455 32.4682 33.4518C32.4703 33.1553 32.4682 32.8591 32.4657 32.5626C32.466 32.3743 32.4665 32.186 32.4672 31.9977C32.4664 31.9091 32.4657 31.8205 32.4648 31.7292C32.474 31.1154 32.474 31.1154 32.7055 30.8039C32.925 30.6536 33.0366 30.6086 33.3004 30.6091Z" fill="#FDFCFE"/>
<path d="M36.035 30.6026C36.1317 30.6059 36.1317 30.6059 36.2304 30.6091C36.2948 30.609 36.3593 30.6089 36.4257 30.6087C36.7248 30.6935 36.8247 30.8035 37.0116 31.0547C37.072 31.3685 37.0687 31.6789 37.0669 31.9977C37.0678 32.1353 37.0678 32.1353 37.0688 32.2756C37.0694 32.4694 37.0691 32.6631 37.0679 32.8568C37.0665 33.1533 37.0699 33.4495 37.0736 33.746C37.0737 33.9343 37.0735 34.1226 37.073 34.3109C37.0743 34.3995 37.0756 34.4881 37.0769 34.5794C37.0679 35.1922 37.0679 35.1922 36.7823 35.5051C36.4656 35.6756 36.2919 35.7049 35.9374 35.6445C35.7125 35.4622 35.5782 35.3168 35.4491 35.0586C35.4358 34.7724 35.4283 34.4886 35.4258 34.2022C35.425 34.1169 35.4243 34.0317 35.4234 33.9438C35.4221 33.7631 35.421 33.5824 35.4203 33.4018C35.4186 33.1259 35.4143 32.8501 35.41 32.5743C35.409 32.3987 35.4082 32.2232 35.4075 32.0477C35.4058 31.9653 35.4041 31.883 35.4023 31.7982C35.4038 31.4 35.4183 31.2015 35.6348 30.8561C35.8397 30.6641 35.8397 30.6641 36.035 30.6026Z" fill="#FDFDFE"/>
<path d="M7.97437 14.3603C8.18764 14.6705 8.14701 15.0139 8.14426 15.3774C8.14455 15.4585 8.14483 15.5395 8.14511 15.623C8.14531 15.7943 8.14477 15.9656 8.14355 16.1369C8.14198 16.3989 8.14353 16.6606 8.14541 16.9226C8.14522 17.0891 8.14484 17.2556 8.14426 17.4221C8.14515 17.5395 8.14515 17.5395 8.14606 17.6592C8.14197 17.9843 8.12963 18.2188 7.96784 18.5049C7.73311 18.7275 7.54032 18.7412 7.22683 18.7672C6.9115 18.7395 6.75382 18.5831 6.54286 18.3594C6.39027 18.0542 6.42518 17.7283 6.42193 17.3931C6.42114 17.3165 6.42035 17.2399 6.41954 17.161C6.41819 16.9987 6.41714 16.8364 6.41637 16.6741C6.41469 16.4265 6.41041 16.1791 6.4061 15.9315C6.40511 15.7738 6.40428 15.616 6.40362 15.4583C6.40191 15.3845 6.4002 15.3108 6.39844 15.2348C6.39993 14.8709 6.43246 14.6682 6.63167 14.3594C7.06688 13.9347 7.47734 14.0459 7.97437 14.3603Z" fill="#C7EFFE"/>
<path d="M31.5488 45.1538C31.9333 45.2148 31.9333 45.2148 32.1713 45.3918C32.5131 45.8703 32.4395 46.3969 32.4399 46.9605C32.4411 47.0575 32.4423 47.1546 32.4435 47.2546C32.4438 47.3956 32.4438 47.3956 32.4441 47.5395C32.4445 47.6251 32.4449 47.7107 32.4453 47.7989C32.4184 48.0802 32.3546 48.2836 32.2263 48.5352C31.8681 48.7739 31.5686 48.801 31.152 48.7305C30.9146 48.5478 30.7965 48.41 30.6638 48.1445C30.6322 47.7627 30.6321 47.38 30.6271 46.9971C30.6235 46.8911 30.6198 46.7851 30.6161 46.6759C30.6064 45.7975 30.6064 45.7975 30.8854 45.4369C31.2443 45.1381 31.2443 45.1381 31.5488 45.1538Z" fill="#C8EFFE"/>
<path d="M12.598 33.6914C12.8617 33.8672 13.0415 33.9926 13.1839 34.2774C13.2103 34.6613 13.2066 35.0462 13.2083 35.4309C13.2104 35.5377 13.2124 35.6445 13.2145 35.7546C13.215 35.8579 13.2155 35.9612 13.216 36.0676C13.2173 36.2092 13.2173 36.2092 13.2187 36.3536C13.1772 36.6731 13.0841 36.8529 12.891 37.1094C12.4845 37.2934 12.3 37.339 11.8778 37.1826C11.6214 37.0117 11.6214 37.0117 11.5238 36.8164C11.492 36.3654 11.4921 35.9135 11.4872 35.4614C11.4835 35.3352 11.4799 35.2089 11.4761 35.0788C11.4744 34.897 11.4744 34.897 11.4727 34.7115C11.4707 34.6002 11.4688 34.4889 11.4668 34.3743C11.5238 34.082 11.5238 34.082 11.7528 33.8504C12.0717 33.6548 12.2299 33.6301 12.598 33.6914Z" fill="#C8EFFE"/>
<path d="M42.1879 18.75C42.4664 18.9582 42.5661 19.0745 42.6306 19.4193C42.634 19.7639 42.6365 20.1082 42.6334 20.4529C42.6357 20.5728 42.6381 20.6927 42.6405 20.8162C42.6389 21.7955 42.6389 21.7955 42.3523 22.1004C42.003 22.3206 41.8122 22.338 41.4066 22.2656C41.1544 22.1032 41.0573 22.0332 40.9183 21.7773C40.8448 21.3533 40.8502 20.9372 40.8573 20.5078C40.8554 20.393 40.8535 20.2782 40.8516 20.1599C40.8563 19.3272 40.8563 19.3272 41.1415 18.9182C41.5455 18.6619 41.7159 18.6826 42.1879 18.75Z" fill="#C8EFFE"/>
<path d="M10.937 14.3555C11.2475 14.8179 11.1683 15.3766 11.1689 15.9119C11.1713 16.0178 11.1737 16.1237 11.1762 16.2329C11.179 17.0113 11.179 17.0113 10.9469 17.4015C10.7008 17.6133 10.5957 17.6703 10.2717 17.7063C9.87874 17.6678 9.74719 17.5648 9.47215 17.2852C9.41051 16.996 9.41051 16.996 9.41073 16.6626C9.41054 16.5422 9.41035 16.4219 9.41016 16.2979C9.41249 16.1725 9.41481 16.0471 9.41721 15.918C9.41614 15.7926 9.41507 15.6672 9.41397 15.538C9.42123 14.6128 9.42123 14.6128 9.65985 14.3223C10.1311 13.9458 10.4175 14.0765 10.937 14.3555Z" fill="#C8EFFE"/>
<path d="M12.4023 1.85546C12.6465 2.06298 12.6465 2.06298 12.793 2.34375C12.793 2.68788 12.7619 2.85573 12.5305 3.11279C12.2298 3.25907 12.0491 3.27771 11.7188 3.22265C11.4807 3.01513 11.4807 3.01513 11.3281 2.73437C11.3343 2.42342 11.3759 2.23151 11.5356 1.96533C11.8364 1.78485 12.061 1.80755 12.4023 1.85546Z" fill="#FEF8FC"/>
</g>
<defs>
<clipPath id="clip0_1722_2005">
<rect width="50" height="50" fill="white"/>
</clipPath>
</defs>
</svg>
