<svg width="50" height="50" viewBox="0 0 50 50" fill="none" xmlns="http://www.w3.org/2000/svg">
<g clip-path="url(#clip0_1722_1989)">
<path d="M6.08181 2.04544C9.95868 2.27005 14.3284 4.6057 17.3722 6.8943C17.4824 6.97675 17.4824 6.97675 17.5949 7.06086C17.7296 7.1635 17.8626 7.26848 17.9933 7.37624C18.2445 7.56899 18.4393 7.71299 18.7635 7.71817C18.8389 7.70816 18.9143 7.69815 18.992 7.68783C19.0782 7.67711 19.1645 7.66639 19.2533 7.65534C19.3452 7.64275 19.437 7.63016 19.5317 7.61719C19.7225 7.59291 19.9134 7.5688 20.1043 7.54485C20.2055 7.53211 20.3066 7.51937 20.4109 7.50624C21.8245 7.3341 23.2192 7.27862 24.6424 7.28602C25.0003 7.2876 25.3581 7.28603 25.7161 7.28416C27.1238 7.28301 28.4998 7.36899 29.8966 7.54485C30.0411 7.56297 30.0411 7.56297 30.1886 7.58145C30.3749 7.60518 30.5611 7.62988 30.7471 7.65558C30.8333 7.66637 30.9195 7.67715 31.0082 7.68826C31.0835 7.69835 31.1588 7.70845 31.2363 7.71884C31.6429 7.71108 31.9125 7.45673 32.2148 7.20825C32.3586 7.09868 32.503 6.98973 32.6477 6.88133C32.7224 6.82505 32.797 6.76876 32.8739 6.71077C33.5655 6.21049 34.3205 5.79746 35.059 5.37109C35.1332 5.32804 35.2073 5.28499 35.2837 5.24063C37.8498 3.75759 41.0919 1.9443 44.141 2.05078C45.6734 5.44772 46.49 9.54249 46.3677 13.2633C46.3642 13.3945 46.3606 13.5256 46.3571 13.6567C46.3489 13.9077 46.3367 14.1586 46.3199 14.4092C46.2869 15.3982 46.6328 15.871 47.266 16.6016C49.0418 19.1343 50.0056 22.3457 50.0203 25.4265C50.0209 25.5226 50.0216 25.6187 50.0223 25.7177C50.024 26.0278 50.0247 26.3379 50.0248 26.6479C50.0249 26.8066 50.0249 26.8066 50.025 26.9684C50.0235 28.5456 49.9809 30.0836 49.7075 31.6406C49.6902 31.7422 49.6729 31.8438 49.6551 31.9484C49.0809 35.2494 47.9672 38.4412 45.8989 41.1133C45.8289 41.2051 45.7589 41.2968 45.6868 41.3914C42.9583 44.8518 38.8883 46.8315 34.6013 47.5891C34.5204 47.6035 34.4396 47.6178 34.3563 47.6326C32.4859 47.9369 30.6161 47.9801 28.7249 47.9787C28.4486 47.9786 28.1723 47.979 27.896 47.9795C27.2419 47.9806 26.5878 47.9806 25.9338 47.98C25.2677 47.9795 24.6017 47.9807 23.9356 47.9827C23.3561 47.9845 22.7765 47.985 22.197 47.9847C21.8543 47.9846 21.5115 47.9848 21.1688 47.9862C17.2003 48.0009 13.2414 47.5426 9.66839 45.7031C9.51374 45.6272 9.51374 45.6272 9.35597 45.5498C7.8978 44.8072 6.63425 43.8164 5.46917 42.6758C5.39742 42.6089 5.32566 42.5421 5.25173 42.4732C1.999 39.3825 0.604783 34.5934 0.0980773 30.2734C0.0888012 30.195 0.079525 30.1166 0.0699678 30.0358C-0.191127 27.4326 -0.250291 24.5199 0.391046 21.9727C0.411974 21.8874 0.432903 21.8021 0.454465 21.7143C0.99777 19.5707 2.01758 17.0258 3.6137 15.4297C3.61993 15.2345 3.61947 15.039 3.61637 14.8438C3.61433 14.6582 3.61433 14.6582 3.61225 14.4689C3.61143 14.4027 3.61062 14.3365 3.60978 14.2683C3.56599 10.1306 4.22551 6.0049 5.76214 2.14844C5.8598 2.05078 5.8598 2.05078 6.08181 2.04544Z" fill="#474747"/>
<path d="M16.0819 20.874C16.1883 20.8737 16.1883 20.8737 16.2968 20.8733C17.4738 20.8719 18.6401 20.9363 19.8134 21.0242C23.1911 21.276 26.582 21.3283 29.9577 21.0244C31.1626 20.9161 32.3586 20.8657 33.5685 20.8618C33.6838 20.8607 33.6838 20.8607 33.8015 20.8596C34.6586 20.8528 35.4905 20.8992 36.3383 21.0304C36.4504 21.0478 36.4504 21.0478 36.5647 21.0654C38.8364 21.4508 40.5957 22.7437 41.9135 24.5949C43.8739 27.4478 44.094 30.8465 43.5134 34.1845C43.1325 36.1012 42.4201 37.8853 41.1124 39.3555C41.0526 39.4291 40.9928 39.5028 40.9312 39.5786C39.6895 41.0712 37.8511 41.9863 36.0343 42.5781C35.9402 42.6092 35.8462 42.6402 35.7493 42.6722C34.999 42.9126 34.2523 43.0874 33.4769 43.2251C33.362 43.2458 33.2472 43.2666 33.1288 43.2879C31.0649 43.6522 28.9986 43.7646 26.9057 43.7698C26.7895 43.7702 26.7895 43.7702 26.671 43.7707C26.2603 43.7721 25.8495 43.773 25.4388 43.7735C25.1074 43.7739 24.7761 43.7752 24.4447 43.7775C20.1234 43.806 15.3621 43.7249 11.5226 41.5039C11.3764 41.4197 11.3764 41.4197 11.2273 41.3338C9.18732 40.0938 7.80697 38.369 7.03037 36.1328C6.99888 36.0446 6.96739 35.9563 6.93495 35.8654C5.86268 32.7789 5.79747 28.9531 7.22477 25.9743C8.26719 23.9323 9.88527 22.1823 12.0692 21.3928C13.3976 20.978 14.6991 20.8761 16.0819 20.874Z" fill="#E2C6B0"/>
<path d="M34.1865 26.2146C35.4275 26.9252 35.8828 28.3338 36.2545 29.6307C36.748 31.9513 36.6986 35.0554 35.4106 37.1354C34.9665 37.7689 34.3803 38.4237 33.5945 38.5742C33.0106 38.664 32.6499 38.4838 32.1712 38.1729C30.8483 37.1418 30.4436 35.3084 30.2326 33.7303C30.0684 32.3188 30.1604 30.9729 30.4695 29.5898C30.4895 29.4929 30.5095 29.396 30.5301 29.2961C30.7893 28.192 31.3073 27.064 32.2273 26.3672C32.855 26.002 33.513 25.9267 34.1865 26.2146Z" fill="#9F5330"/>
<path d="M17.3093 26.1448C18.2522 26.5867 18.8038 27.4554 19.201 28.3875C20.117 30.931 20.1845 34.1322 19.0205 36.6089C18.634 37.3725 18.1337 38.1861 17.2845 38.4766C16.7157 38.5546 16.2115 38.5676 15.6854 38.324C15.6008 38.2454 15.5162 38.1669 15.429 38.0859C15.3744 38.0407 15.3198 37.9956 15.2635 37.949C14.101 36.9199 13.7535 35.1689 13.5736 33.6914C13.548 33.2373 13.5462 32.7851 13.5492 32.3303C13.5484 32.2158 13.5477 32.1013 13.5469 31.9834C13.5508 30.2278 13.8346 28.1496 15.0689 26.8047C15.7491 26.1839 16.3771 25.8459 17.3093 26.1448Z" fill="#A55E3C"/>
<path d="M17.9005 25.2495C19.1497 25.9184 19.9595 27.2775 20.3694 28.6017C21.1844 31.4471 21.1071 34.7529 19.7266 37.4023C19.2012 38.3479 18.4512 39.2354 17.3828 39.5508C16.3945 39.6918 15.647 39.5617 14.8437 38.9648C13.4567 37.8975 12.7806 35.8665 12.5458 34.1911C12.368 32.5558 12.3477 30.7931 12.793 29.1992C12.8213 29.0962 12.8496 28.9933 12.8788 28.8872C13.3678 27.2872 14.18 25.9451 15.6555 25.1099C16.4286 24.874 17.1554 24.9455 17.9005 25.2495ZM14.7854 27.1332C13.3874 29.2827 13.2377 32.3028 13.739 34.7595C14.0726 36.2559 14.5867 37.4204 15.8203 38.3789C16.259 38.5983 16.8104 38.5328 17.2851 38.4766C18.2436 38.0935 18.7242 37.2271 19.1234 36.3285C20.1254 33.7686 20.1623 30.6417 19.0773 28.0956C18.668 27.2782 18.1613 26.536 17.308 26.1463C16.2623 25.8008 15.4325 26.3158 14.7854 27.1332Z" fill="#FDFCFB"/>
<path d="M34.4541 25.1865C35.7146 25.8157 36.4277 27.0439 36.9134 28.3203C37.8477 31.2061 37.7943 34.4341 36.5228 37.207C35.9826 38.2444 35.2399 39.142 34.0925 39.5126C33.3145 39.6564 32.5654 39.6334 31.8746 39.2304C30.3121 38.1124 29.6302 36.3482 29.2848 34.5161C29.1742 33.8199 29.1699 33.1316 29.1742 32.428C29.1734 32.3042 29.1727 32.1804 29.1719 32.0528C29.1764 29.8677 29.6673 27.5644 31.17 25.8972C32.1068 25.0296 33.2525 24.7217 34.4541 25.1865ZM31.4447 27.1484C29.9548 29.5755 29.9066 32.5605 30.4981 35.2782C30.8001 36.4767 31.3654 37.6445 32.4212 38.3362C32.9132 38.6025 33.2558 38.6736 33.8029 38.5124C34.753 38.1525 35.2926 37.4514 35.711 36.5509C35.9312 36.0006 36.0929 35.4395 36.2298 34.8633C36.2474 34.7945 36.2649 34.7257 36.2829 34.6548C36.4539 33.9179 36.4541 33.1938 36.4496 32.4402C36.4503 32.3155 36.4511 32.1908 36.4518 32.0623C36.448 30.1946 36.1406 28.0701 34.8138 26.648C34.3148 26.2011 33.7962 26.0135 33.1304 26.0407C32.4256 26.1478 31.8618 26.5877 31.4447 27.1484Z" fill="#FDFCFB"/>
<path d="M6.08139 2.04544C9.95826 2.27005 14.328 4.6057 17.3717 6.8943C17.482 6.97675 17.482 6.97675 17.5945 7.06086C17.7292 7.1635 17.8622 7.26848 17.9928 7.37624C18.2441 7.56899 18.4389 7.71299 18.7631 7.71817C18.8385 7.70816 18.9139 7.69815 18.9915 7.68783C19.0778 7.67711 19.164 7.66639 19.2529 7.65534C19.3448 7.64275 19.4366 7.63016 19.5312 7.61719C19.7221 7.59291 19.913 7.5688 20.1038 7.54485C20.205 7.53211 20.3062 7.51937 20.4105 7.50624C21.824 7.3341 23.2188 7.27862 24.642 7.28602C24.9999 7.2876 25.3577 7.28603 25.7156 7.28416C27.1234 7.28301 28.4994 7.36899 29.8962 7.54485C30.0407 7.56297 30.0407 7.56297 30.1881 7.58145C30.3745 7.60518 30.5607 7.62988 30.7467 7.65558C30.8329 7.66637 30.919 7.67715 31.0078 7.68826C31.0831 7.69835 31.1583 7.70845 31.2359 7.71884C31.6424 7.71108 31.9121 7.45673 32.2144 7.20825C32.3582 7.09868 32.5026 6.98973 32.6473 6.88133C32.722 6.82505 32.7966 6.76876 32.8735 6.71077C33.5651 6.21049 34.3201 5.79746 35.0586 5.37109C35.1327 5.32804 35.2069 5.28499 35.2833 5.24063C37.8494 3.75759 41.0915 1.9443 44.1406 2.05078C44.4576 2.75341 44.7209 3.46645 44.9585 4.19922C44.9987 4.32003 44.9987 4.32003 45.0398 4.44329C45.0641 4.51985 45.0884 4.59641 45.1134 4.67529C45.1463 4.77764 45.1463 4.77764 45.1799 4.88205C45.22 5.10693 45.187 5.25331 45.1172 5.46875C44.7361 4.5766 44.4417 3.65567 44.1406 2.73438C43.4405 2.70315 42.8265 2.77797 42.1509 2.96021C42.0073 2.99861 42.0073 2.99861 41.8607 3.03779C38.7161 3.91852 35.8019 5.45723 33.0933 7.25708C33.0337 7.2966 32.9742 7.33612 32.9129 7.37684C32.6506 7.5532 32.397 7.73452 32.1491 7.93076C31.4886 8.44896 31.4886 8.44896 30.9753 8.40454C30.8064 8.37051 30.6375 8.33584 30.4688 8.30078C29.4193 8.10438 28.3714 8.03926 27.3071 7.9895C27.2195 7.98531 27.1319 7.98111 27.0416 7.97679C24.7089 7.86817 22.417 7.94228 20.097 8.23059C20.0011 8.24176 19.9052 8.25294 19.8064 8.26445C19.6283 8.28797 19.4508 8.3172 19.2748 8.35314C18.7823 8.44108 18.5037 8.41076 18.0725 8.14667C17.906 8.02957 17.7412 7.90989 17.5781 7.78809C17.3974 7.66053 17.2164 7.53325 17.0353 7.40623C16.9458 7.34252 16.8563 7.27881 16.7641 7.21316C16.1143 6.75889 15.4299 6.35746 14.7461 5.95703C14.6713 5.91314 14.5965 5.86926 14.5195 5.82404C10.418 3.39054 10.418 3.39054 5.85938 2.83203C5.2638 4.53003 4.74056 6.23989 4.39453 8.00781C4.33008 7.97559 4.26563 7.94336 4.19922 7.91016C4.25929 7.24327 4.37815 6.61225 4.54102 5.96313C4.5659 5.86349 4.59079 5.76384 4.61643 5.66118C5.54864 2.05826 5.54864 2.05826 6.08139 2.04544Z" fill="#5C5C5C"/>
<path d="M16.0828 20.874C16.1892 20.8737 16.1892 20.8737 16.2977 20.8733C17.4747 20.8719 18.6409 20.9363 19.8143 21.0242C23.192 21.276 26.5829 21.3283 29.9586 21.0244C31.1635 20.9161 32.3595 20.8657 33.5693 20.8618C33.6847 20.8607 33.6847 20.8607 33.8024 20.8596C34.6595 20.8528 35.4914 20.8992 36.3392 21.0304C36.4513 21.0478 36.4513 21.0478 36.5656 21.0654C38.8373 21.4508 40.5966 22.7437 41.9144 24.5949C42.7464 25.8056 43.4635 27.2221 43.5547 28.7109C43.272 28.4283 43.2115 28.0774 43.0969 27.7039C42.4182 25.5954 41.0446 23.5596 39.0594 22.4979C37.4025 21.6916 35.7039 21.4452 33.8745 21.4539C33.7694 21.4539 33.7694 21.4539 33.6622 21.4539C32.5285 21.4556 31.4053 21.5216 30.2755 21.6102C26.9104 21.8731 23.5234 21.9167 20.16 21.6103C18.8792 21.4941 17.6068 21.4514 16.3208 21.4478C16.2337 21.447 16.1466 21.4463 16.0569 21.4455C13.6058 21.4284 11.2506 21.8543 9.40514 23.6023C8.79852 24.2099 8.30681 24.813 7.87506 25.5581C7.70685 25.7924 7.59034 25.8753 7.32422 25.9766C8.0118 24.1231 9.65778 22.4627 11.4349 21.637C12.9455 21.021 14.4692 20.8764 16.0828 20.874Z" fill="#CAB29F"/>
<path d="M22.8516 38.4766C23.0083 38.6433 23.0083 38.6433 23.1628 38.8489C23.6275 39.3937 24.0476 39.6098 24.7616 39.6851C25.5106 39.7092 26.2187 39.6876 26.8555 39.2578C27.0731 39.031 27.2667 38.8014 27.4525 38.5479C27.5133 38.4921 27.5741 38.4364 27.6367 38.3789C28.0268 38.4004 28.2904 38.5573 28.6133 38.7695C28.1314 39.68 27.4722 40.3009 26.4999 40.6551C25.4452 40.9642 24.2991 40.9184 23.3116 40.4129C23.1188 40.2959 22.9362 40.1717 22.7539 40.0391C22.6673 39.9807 22.5807 39.9222 22.4915 39.8621C22.1835 39.5707 21.9863 39.2336 21.7773 38.8672C22.1143 38.5197 22.3628 38.2912 22.8516 38.4766Z" fill="#A25836"/>
<path d="M25.4797 36.8454C25.6846 36.9141 25.6846 36.9141 25.9409 37.1216C26.1195 37.495 26.0923 37.6915 25.9775 38.0859C25.7612 38.4021 25.621 38.4666 25.2512 38.5742C24.9033 38.5742 24.9033 38.5742 24.6226 38.4399C24.3713 38.1296 24.3138 37.9137 24.293 37.5195C24.3174 37.3047 24.3174 37.3047 24.5005 36.9995C24.8682 36.7789 25.0655 36.7707 25.4797 36.8454Z" fill="#A35B38"/>
<path d="M16.0209 28.4622C16.388 28.5657 16.5185 28.7817 16.6987 29.1016C16.7132 29.5219 16.6705 29.7055 16.3936 30.0232C16.0387 30.2161 15.8278 30.2338 15.4292 30.1758C15.1062 29.9208 14.9588 29.724 14.9043 29.3152C14.9409 29.0039 14.9409 29.0039 15.1362 28.7231C15.4606 28.4934 15.6313 28.4356 16.0209 28.4622Z" fill="#FCF9F8"/>
<path d="M32.4716 28.4546C32.907 28.5323 33.0485 28.6434 33.3016 29.0039C33.3627 29.3457 33.3627 29.3457 33.3016 29.6875C33.0485 30.048 32.907 30.1591 32.4716 30.2368C32.0362 30.1591 31.8946 30.048 31.6415 29.6875C31.5804 29.3457 31.5804 29.3457 31.6415 29.0039C31.8946 28.6434 32.0362 28.5323 32.4716 28.4546Z" fill="#FDFCFB"/>
<path d="M5.66406 2.73438C5.76805 3.04851 5.75612 3.22067 5.64232 3.52936C5.61414 3.60867 5.58595 3.68797 5.55692 3.76968C5.52581 3.85503 5.4947 3.94038 5.46265 4.02832C5.0084 5.32604 4.65814 6.65815 4.39453 8.00781C4.33008 7.97559 4.26563 7.94336 4.19922 7.91016C4.25932 7.22505 4.38964 6.58026 4.55933 5.91431C4.58504 5.81258 4.61075 5.71084 4.63724 5.60603C4.8051 4.95539 4.9894 4.31236 5.2002 3.67432C5.2362 3.56471 5.2362 3.56471 5.27294 3.4529C5.44339 2.95505 5.44339 2.95505 5.66406 2.73438Z" fill="#646464"/>
<path d="M42.6758 26.0742C42.9614 26.405 43.0932 26.7629 43.2251 27.1729C43.2465 27.2379 43.2678 27.3029 43.2898 27.3699C43.4333 27.8201 43.5259 28.2405 43.5547 28.7109C43.3495 28.5058 43.3062 28.4021 43.219 28.1326C43.1941 28.0566 43.1691 27.9806 43.1435 27.9022C43.118 27.8227 43.0926 27.7431 43.0664 27.6611C43.041 27.5831 43.0155 27.505 42.9893 27.4246C42.9398 27.2724 42.8904 27.1202 42.8413 26.9678C42.7554 26.7019 42.667 26.4368 42.5781 26.1719C42.6104 26.1396 42.6426 26.1074 42.6758 26.0742Z" fill="#C1A794"/>
<path d="M5.66406 2.73438C5.80411 3.10432 5.71388 3.32668 5.57251 3.68652C5.53537 3.7827 5.49824 3.87888 5.45998 3.97797C5.43064 4.05098 5.40131 4.12399 5.37109 4.19922C5.30664 4.19922 5.24219 4.19922 5.17578 4.19922C5.22518 3.71515 5.29941 3.09903 5.66406 2.73438Z" fill="#696969"/>
</g>
<defs>
<clipPath id="clip0_1722_1989">
<rect width="50" height="50" fill="white"/>
</clipPath>
</defs>
</svg>
