<svg width="50" height="50" viewBox="0 0 50 50" fill="none" xmlns="http://www.w3.org/2000/svg">
<path d="M24.3305 1.24442C24.8512 1.24516 25.3719 1.24489 25.8927 1.24407C29.4562 1.23858 33.0102 1.27448 36.5703 1.45257C36.8163 1.46483 37.0622 1.47671 37.3082 1.48848C37.4617 1.49591 37.6153 1.50334 37.7688 1.51079C37.8367 1.51405 37.9046 1.51732 37.9746 1.52068C40.9896 1.66978 43.4492 2.53419 45.6056 4.6875C45.6839 4.76467 45.7622 4.84184 45.8429 4.92134C46.8418 5.96348 47.4883 7.23748 47.9493 8.59375C47.9875 8.70478 48.0256 8.81581 48.0649 8.93021C48.4401 10.2028 48.459 11.5247 48.5233 12.8417C48.5313 13.0045 48.5393 13.1673 48.5475 13.3301C48.7324 17.0284 48.766 20.722 48.7616 24.4238C48.7611 24.8061 48.761 25.1883 48.7609 25.5705C48.7601 29.1066 48.7587 32.6423 48.5963 36.1755C48.5932 36.2439 48.5901 36.3123 48.5869 36.3828C48.4113 40.2276 47.7814 43.2456 44.9098 46.0022C42.984 47.7107 40.5075 48.3715 37.9873 48.4863C37.9044 48.4903 37.8216 48.4943 37.7362 48.4983C37.5607 48.5067 37.3851 48.5149 37.2096 48.5229C36.9524 48.5348 36.6954 48.5471 36.4383 48.5596C33.9607 48.6773 31.4864 48.7465 29.006 48.75C28.7984 48.7503 28.5907 48.7508 28.383 48.7513C27.4155 48.7537 26.4481 48.7546 25.4806 48.7548C25.2497 48.7549 25.0188 48.755 24.7879 48.7551C17.4564 48.7591 17.4564 48.7591 13.9405 48.5962C13.8723 48.5931 13.8041 48.59 13.7338 48.5868C9.84159 48.4087 6.79128 47.8196 3.99792 44.9097C3.08997 43.8863 2.48872 42.6943 2.0509 41.4062C2.01275 41.2952 1.97461 41.1842 1.93531 41.0698C1.56012 39.7972 1.54126 38.4753 1.47692 37.1583C1.46895 36.9955 1.46088 36.8327 1.45273 36.6699C1.26781 32.9716 1.23425 29.278 1.23864 25.5762C1.23909 25.1939 1.23925 24.8117 1.23932 24.4295C1.24009 20.8934 1.24154 17.3577 1.40392 13.8245C1.40856 13.7219 1.40856 13.7219 1.41329 13.6172C1.58888 9.77236 2.21884 6.75437 5.09045 3.9978C6.11403 3.0897 7.30582 2.48906 8.59386 2.05078C8.70376 2.01264 8.81366 1.9745 8.92689 1.9352C10.0052 1.61487 11.1098 1.56442 12.2283 1.51081C12.3027 1.50721 12.3771 1.50362 12.4538 1.49991C12.6142 1.49218 12.7746 1.48449 12.935 1.47682C13.1835 1.46486 13.4319 1.45249 13.6803 1.44007C17.2311 1.26492 20.7764 1.23881 24.3305 1.24442Z" fill="#CDE9FF"/>
<path d="M31.0422 9.74731C31.1896 9.75942 31.1896 9.75942 31.3399 9.77178C33.8851 9.98695 36.4535 10.3016 38.2108 12.3718C39.5285 14.0585 39.8882 15.7943 40.0571 17.8711C40.0652 17.9665 40.0734 18.0619 40.0817 18.1601C40.2134 19.7087 40.3142 21.2522 40.3293 22.8068C40.3321 23.0815 40.3358 23.3562 40.3394 23.631C40.3743 26.4677 40.3431 29.2805 40.0605 32.1048C40.0371 32.3415 40.015 32.5784 39.9928 32.8152C39.9768 32.9799 39.9607 33.1445 39.9446 33.3092C39.9377 33.3841 39.9308 33.4591 39.9237 33.5363C39.7187 35.5579 38.7267 37.2498 37.1885 38.5498C36.8034 38.8298 36.3943 39.0603 35.9739 39.2822C35.9151 39.3144 35.8562 39.3466 35.7957 39.3798C34.6439 39.9577 33.2653 40.002 32.0005 40.1001C31.8574 40.112 31.7142 40.1239 31.5711 40.136C29.9646 40.2687 28.362 40.3479 26.7499 40.3553C26.6694 40.3558 26.5889 40.3562 26.5059 40.3567C25.8981 40.3602 25.2902 40.3618 24.6824 40.3625C24.5933 40.3627 24.5043 40.3628 24.4125 40.363C22.2233 40.3658 20.0406 40.3606 17.8586 40.1611C17.7719 40.1535 17.6852 40.1458 17.5958 40.1379C15.5328 39.9482 13.7951 39.4943 12.2068 38.0859C12.1447 38.0319 12.0827 37.9779 12.0187 37.9223C10.7561 36.7493 10.0892 34.9288 9.94772 33.2405C9.93971 33.154 9.9317 33.0675 9.92346 32.9784C9.89805 32.6994 9.87429 32.4203 9.85082 32.1411C9.84246 32.0446 9.83411 31.9481 9.82549 31.8486C9.69015 30.282 9.5856 28.7213 9.57006 27.1484C9.5691 27.0639 9.56813 26.9795 9.56714 26.8924C9.43063 14.7329 9.43063 14.7329 12.1091 11.9141C13.5454 10.6367 15.143 10.0768 17.0347 9.906C17.0985 9.90011 17.1624 9.89422 17.2282 9.88816C21.8048 9.47091 26.4619 9.36748 31.0422 9.74731Z" fill="#2593FF"/>
<path d="M16.5844 14.9241C16.7037 14.9229 16.823 14.9216 16.9459 14.9203C17.0768 14.9195 17.2077 14.9188 17.3386 14.9181C17.4045 14.9177 17.4704 14.9173 17.5383 14.9169C17.8872 14.9149 18.2362 14.9135 18.5851 14.9126C18.9448 14.9115 19.3044 14.9081 19.6641 14.9043C19.9412 14.9017 20.2184 14.9009 20.4955 14.9005C20.6923 14.8998 20.8891 14.8973 21.0859 14.8946C22.1957 14.8973 22.1957 14.8973 22.6563 15.332C23.0676 15.7989 23.1568 16.0313 23.159 16.6499C23.1593 16.7158 23.1597 16.7817 23.1601 16.8496C23.1612 17.0714 23.1615 17.2932 23.1619 17.5151C23.1625 17.6737 23.1632 17.8323 23.1638 17.991C23.1655 18.4228 23.1666 18.8546 23.1674 19.2864C23.1679 19.5561 23.1685 19.8259 23.1691 20.0956C23.171 20.9396 23.1723 21.7835 23.1732 22.6274C23.1741 23.6017 23.1767 24.576 23.1806 25.5502C23.1836 26.3031 23.185 27.056 23.1853 27.8089C23.1856 28.2586 23.1864 28.7083 23.1889 29.1581C23.1912 29.5814 23.1916 30.0046 23.1906 30.4279C23.1905 30.5831 23.1912 30.7382 23.1925 30.8934C23.2044 32.3551 23.2044 32.3551 22.754 32.9102C22.1424 33.4209 21.4858 33.3544 20.7177 33.3458C20.5863 33.3456 20.4549 33.3455 20.3235 33.3455C20.0491 33.3452 19.7749 33.3436 19.5005 33.341C19.1497 33.3377 18.799 33.3369 18.4482 33.3371C18.1772 33.337 17.9063 33.3359 17.6353 33.3345C17.4434 33.3336 17.2514 33.3333 17.0594 33.3329C16.8839 33.3311 16.8839 33.3311 16.7048 33.3292C16.6021 33.3284 16.4994 33.3277 16.3936 33.3269C16.0167 33.2918 15.7333 33.2049 15.4527 32.9472C15.4048 32.8886 15.357 32.8301 15.3077 32.7698C15.2344 32.6823 15.2344 32.6823 15.1597 32.5932C14.9096 32.2378 14.9286 31.9064 14.9271 31.4859C14.9268 31.4203 14.9264 31.3546 14.926 31.287C14.925 31.0666 14.9246 30.8462 14.9242 30.6258C14.9236 30.468 14.9229 30.3101 14.9223 30.1523C14.9202 29.6336 14.9192 29.1148 14.9182 28.5961C14.9178 28.4176 14.9174 28.239 14.917 28.0604C14.9152 27.2217 14.9138 26.3829 14.913 25.5442C14.912 24.5758 14.9094 23.6075 14.9055 22.6391C14.9025 21.8907 14.9011 21.1423 14.9008 20.3938C14.9005 19.9468 14.8997 19.4998 14.8972 19.0527C14.8949 18.6322 14.8945 18.2116 14.8955 17.791C14.8956 17.6368 14.895 17.4825 14.8936 17.3283C14.8919 17.1174 14.8926 16.9067 14.8939 16.6958C14.8936 16.5779 14.8934 16.46 14.8932 16.3386C14.9686 15.8348 15.2128 15.5348 15.5885 15.2039C15.9489 14.9478 16.1438 14.9281 16.5844 14.9241Z" fill="#CEEAFF"/>
<path d="M28.3821 14.9257C28.4972 14.9247 28.6123 14.9238 28.7308 14.9228C28.9184 14.9222 28.9184 14.9222 29.1097 14.9216C29.2378 14.921 29.366 14.9205 29.498 14.9199C29.7698 14.9189 30.0417 14.9183 30.3135 14.9179C30.6604 14.9174 31.0074 14.9151 31.3543 14.9123C31.6864 14.91 32.0185 14.9098 32.3506 14.9094C32.4747 14.9082 32.5987 14.907 32.7265 14.9057C34.0065 14.9089 34.0065 14.9089 34.546 15.3843C34.9434 15.9201 34.9767 16.2412 34.9775 16.8981C34.9783 17.0353 34.9783 17.0353 34.979 17.1753C34.9804 17.4789 34.9811 17.7826 34.9816 18.0862C34.9822 18.2969 34.9828 18.5076 34.9833 18.7183C34.9843 19.1607 34.9849 19.603 34.9853 20.0453C34.9858 20.6119 34.9881 21.1785 34.9909 21.745C34.9927 22.1805 34.9932 22.616 34.9934 23.0515C34.9937 23.2603 34.9945 23.4692 34.9958 23.678C34.9974 23.9705 34.9972 24.2628 34.9966 24.5553C34.9975 24.6415 34.9984 24.7276 34.9993 24.8164C34.996 25.3091 34.9424 25.6474 34.6688 26.0742C34.2034 26.5039 33.8517 26.6839 33.2186 26.6885C33.1035 26.6898 32.9884 26.691 32.8698 26.6923C32.6838 26.6926 32.6838 26.6926 32.4941 26.693C32.3662 26.6936 32.2383 26.6943 32.1065 26.6949C31.8359 26.6961 31.5653 26.6965 31.2946 26.6963C30.9492 26.6963 30.6038 26.699 30.2584 26.7024C29.9273 26.7051 29.5963 26.7049 29.2653 26.7052C29.1419 26.7066 29.0185 26.708 28.8913 26.7094C28.2242 26.706 27.7842 26.6793 27.247 26.2695C26.9 25.8952 26.7474 25.6068 26.7443 25.0974C26.7436 25.0181 26.7429 24.9389 26.7422 24.8572C26.7419 24.7706 26.7417 24.684 26.7414 24.5948C26.7407 24.5033 26.7401 24.4118 26.7394 24.3175C26.7375 24.0144 26.7364 23.7113 26.7354 23.4081C26.735 23.3046 26.7346 23.2011 26.7342 23.0945C26.7322 22.5467 26.7308 21.999 26.7298 21.4512C26.7288 20.8854 26.7254 20.3196 26.7215 19.7538C26.719 19.3188 26.7182 18.8837 26.7178 18.4486C26.7173 18.2401 26.7162 18.0315 26.7144 17.8229C26.712 17.5309 26.7121 17.239 26.7128 16.9471C26.7115 16.861 26.7103 16.775 26.709 16.6864C26.7135 16.154 26.7954 15.8522 27.1493 15.4297C27.5827 15.0479 27.8092 14.9294 28.3821 14.9257Z" fill="#D1EBFF"/>
</svg>
