<svg width="526" height="69" viewBox="0 0 526 69" fill="none" xmlns="http://www.w3.org/2000/svg">
<path d="M68.8548 63.8428C66.6272 65.3464 64.0274 66.5291 61.3447 66.8975C59.3333 67.1757 57.0076 66.9326 55.3733 65.6095C54.081 64.562 53.3418 62.9758 52.8918 61.377C52.3889 59.5678 52.1903 57.6808 51.5818 55.8992C51.1695 54.6863 50.5485 53.0124 49.4799 52.228C46.3144 49.8975 43.4456 57.4378 42.7341 59.2019C36.6999 73.9716 25.1343 63.0409 25.1343 63.0409C21.6773 59.6719 18.455 56.0718 15.4896 52.2656C13.1016 49.1967 10.9339 45.9636 9.00279 42.5904C3.52925 32.9703 -1.70292 20.3055 5.55827 10.2419C7.40305 7.7004 9.82426 5.62937 12.6245 4.19753C15.4248 2.76569 18.5249 2.01359 21.6722 2.00251C26.9334 2.00251 31.9791 4.08556 35.6994 7.79343C39.4197 11.5013 41.5097 16.5302 41.5097 21.774C41.5126 24.0923 41.1049 26.3929 40.3054 28.5699C39.272 32.3613 37.2003 36.9672 33.2252 42.0491C31.254 44.57 31.2465 47.9805 33.2579 49.9452C33.6768 50.3511 34.1623 50.6825 34.6935 50.925C35.6071 51.3304 36.618 51.467 37.6069 51.3187C38.5959 51.1704 39.5217 50.7434 40.2752 50.088C42.3067 48.3339 42.455 45.5148 43.1892 43.1241C43.9837 40.533 45.9348 38.0347 48.1448 36.4535C50.1286 35.0351 52.7484 34.326 55.0641 35.0953C57.2716 35.8295 58.7701 37.7716 59.5093 39.8991C60.4295 42.5453 59.6702 45.4947 60.5024 48.1936C61.6389 51.8822 66.3858 55.5609 70.3081 53.6363C70.9376 53.322 71.4871 52.8689 71.9149 52.3114C72.3427 51.7539 72.6376 51.1067 72.7771 50.4188C72.9049 49.7289 72.8735 49.0191 72.6853 48.3431C72.4971 47.6671 72.1571 47.0427 71.6909 46.5171C70.9693 45.7152 69.9913 45.199 69.0534 44.6577C66.3124 43.0755 63.7788 41.1606 61.5107 38.9568C60.4675 37.9486 59.4932 36.872 58.5941 35.7343C58.0912 35.0852 57.6085 34.4162 57.1635 33.7296C56.7939 33.1532 56.4871 32.226 56.0119 31.7424C56.0111 31.7366 56.0111 31.7307 56.0119 31.7248C54.2412 28.7051 53.3108 25.2691 53.3167 21.7715C53.3163 19.1751 53.8291 16.6042 54.8258 14.2054C55.8224 11.8067 57.2834 9.62706 59.1253 7.79107C60.9672 5.95509 63.1539 4.4987 65.5605 3.50506C67.9672 2.51142 70.5467 2 73.1517 2C76.7944 2.00115 80.3667 3.00068 83.4777 4.88928C86.5082 6.73781 88.9889 9.35895 90.6635 12.4821C92.5794 16.063 93.0445 19.8645 92.9967 23.8689C92.9565 27.4899 92.1394 31.0733 90.8973 34.4663C89.6319 37.8403 88.0219 41.0757 86.0926 44.1215C84.2674 47.0362 82.2517 49.8279 80.0584 52.4786C76.7999 56.4504 73.2497 60.8758 68.8548 63.8428Z" fill="url(#paint0_linear_710_1498)"/>
<path d="M111.8 51.5L103.208 17.9H110.048L115.52 39.38L120.992 17.9H127.064L132.536 39.38L138.008 17.9H144.848L136.304 51.5H128.816L124.04 32.828L119.288 51.5H111.8ZM159.718 52.124C157.51 52.124 155.494 51.556 153.67 50.42C151.862 49.284 150.414 47.756 149.326 45.836C148.254 43.916 147.718 41.796 147.718 39.476C147.718 37.732 148.03 36.1 148.654 34.58C149.278 33.044 150.134 31.7 151.222 30.548C152.326 29.38 153.606 28.468 155.062 27.812C156.518 27.156 158.07 26.828 159.718 26.828C161.622 26.828 163.358 27.236 164.926 28.052C166.51 28.868 167.846 29.98 168.934 31.388C170.038 32.796 170.822 34.388 171.286 36.164C171.766 37.94 171.846 39.788 171.526 41.708H154.87C155.078 42.412 155.398 43.052 155.83 43.628C156.278 44.188 156.822 44.636 157.462 44.972C158.118 45.308 158.87 45.484 159.718 45.5C160.55 45.516 161.318 45.324 162.022 44.924C162.726 44.524 163.326 43.988 163.822 43.316L170.59 44.876C169.614 47.004 168.158 48.748 166.222 50.108C164.286 51.452 162.118 52.124 159.718 52.124ZM154.63 36.812H164.83C164.622 36.012 164.27 35.292 163.774 34.652C163.278 34.012 162.678 33.508 161.974 33.14C161.286 32.772 160.534 32.588 159.718 32.588C158.918 32.588 158.166 32.772 157.462 33.14C156.774 33.508 156.182 34.012 155.686 34.652C155.206 35.276 154.854 35.996 154.63 36.812ZM191.835 26.828C194.171 26.828 196.291 27.396 198.195 28.532C200.115 29.668 201.643 31.196 202.779 33.116C203.915 35.02 204.483 37.132 204.483 39.452C204.483 41.196 204.155 42.836 203.499 44.372C202.843 45.908 201.931 47.26 200.763 48.428C199.611 49.58 198.267 50.484 196.731 51.14C195.211 51.796 193.579 52.124 191.835 52.124C190.459 52.124 189.235 51.82 188.163 51.212C187.091 50.604 186.171 49.836 185.403 48.908V51.5H178.779V15.5H185.403V30.044C186.171 29.1 187.091 28.332 188.163 27.74C189.235 27.132 190.459 26.828 191.835 26.828ZM191.739 45.716C192.843 45.716 193.843 45.436 194.739 44.876C195.651 44.316 196.371 43.564 196.899 42.62C197.427 41.66 197.691 40.604 197.691 39.452C197.691 38.3 197.419 37.252 196.875 36.308C196.347 35.364 195.627 34.612 194.715 34.052C193.819 33.476 192.827 33.188 191.739 33.188C190.651 33.188 189.667 33.476 188.787 34.052C187.923 34.612 187.235 35.372 186.723 36.332C186.227 37.276 185.979 38.316 185.979 39.452C185.979 40.62 186.227 41.676 186.723 42.62C187.235 43.564 187.923 44.316 188.787 44.876C189.667 45.436 190.651 45.716 191.739 45.716ZM210.44 42.716V27.5H217.064V40.892C217.064 41.74 217.264 42.508 217.664 43.196C218.08 43.868 218.632 44.404 219.32 44.804C220.008 45.204 220.76 45.404 221.576 45.404C222.408 45.404 223.168 45.204 223.856 44.804C224.544 44.404 225.088 43.868 225.488 43.196C225.888 42.508 226.088 41.74 226.088 40.892V27.5H232.712L232.736 51.5H226.112L226.088 49.676C225.288 50.444 224.344 51.044 223.256 51.476C222.184 51.908 221.048 52.124 219.848 52.124C218.12 52.124 216.544 51.7 215.12 50.852C213.696 50.004 212.56 48.876 211.712 47.468C210.864 46.044 210.44 44.46 210.44 42.716ZM241.42 51.5L241.396 27.5H248.02L248.044 29.276C248.844 28.508 249.78 27.908 250.852 27.476C251.94 27.044 253.084 26.828 254.284 26.828C255.164 26.828 256.044 26.956 256.924 27.212L254.308 33.908C253.732 33.668 253.148 33.548 252.556 33.548C251.724 33.548 250.964 33.748 250.276 34.148C249.588 34.548 249.044 35.092 248.644 35.78C248.244 36.452 248.044 37.212 248.044 38.06V51.5H241.42ZM272.812 52.124C270.604 52.124 268.588 51.556 266.764 50.42C264.956 49.284 263.508 47.756 262.42 45.836C261.348 43.916 260.812 41.796 260.812 39.476C260.812 37.732 261.124 36.1 261.748 34.58C262.372 33.044 263.228 31.7 264.316 30.548C265.42 29.38 266.7 28.468 268.156 27.812C269.612 27.156 271.164 26.828 272.812 26.828C274.716 26.828 276.452 27.236 278.02 28.052C279.604 28.868 280.94 29.98 282.028 31.388C283.132 32.796 283.916 34.388 284.38 36.164C284.86 37.94 284.94 39.788 284.62 41.708H267.964C268.172 42.412 268.492 43.052 268.924 43.628C269.372 44.188 269.916 44.636 270.556 44.972C271.212 45.308 271.964 45.484 272.812 45.5C273.644 45.516 274.412 45.324 275.116 44.924C275.82 44.524 276.42 43.988 276.916 43.316L283.684 44.876C282.708 47.004 281.252 48.748 279.316 50.108C277.38 51.452 275.212 52.124 272.812 52.124ZM267.724 36.812H277.924C277.716 36.012 277.364 35.292 276.868 34.652C276.372 34.012 275.772 33.508 275.068 33.14C274.38 32.772 273.628 32.588 272.812 32.588C272.012 32.588 271.26 32.772 270.556 33.14C269.868 33.508 269.276 34.012 268.78 34.652C268.3 35.276 267.948 35.996 267.724 36.812ZM310.098 27.5H316.722V51.5H310.074L309.762 49.004C309.138 49.932 308.338 50.684 307.362 51.26C306.386 51.836 305.242 52.124 303.93 52.124C302.138 52.124 300.466 51.788 298.914 51.116C297.362 50.444 295.994 49.516 294.81 48.332C293.626 47.148 292.698 45.78 292.026 44.228C291.37 42.66 291.042 40.98 291.042 39.188C291.042 37.476 291.354 35.876 291.978 34.388C292.602 32.9 293.482 31.588 294.618 30.452C295.754 29.316 297.058 28.428 298.53 27.788C300.018 27.148 301.618 26.828 303.33 26.828C304.802 26.828 306.122 27.14 307.29 27.764C308.474 28.388 309.506 29.18 310.386 30.14L310.098 27.5ZM303.762 45.764C304.85 45.764 305.834 45.484 306.714 44.924C307.594 44.364 308.29 43.612 308.802 42.668C309.314 41.708 309.57 40.652 309.57 39.5C309.57 38.332 309.314 37.276 308.802 36.332C308.29 35.388 307.594 34.636 306.714 34.076C305.834 33.516 304.85 33.236 303.762 33.236C302.658 33.236 301.658 33.516 300.762 34.076C299.866 34.636 299.154 35.396 298.626 36.356C298.098 37.3 297.834 38.348 297.834 39.5C297.834 40.652 298.098 41.708 298.626 42.668C299.17 43.612 299.89 44.364 300.786 44.924C301.682 45.484 302.674 45.764 303.762 45.764ZM351.988 17.9H359.524L371.716 51.5H364.684L362.668 45.932H348.844L346.828 51.5H339.796L351.988 17.9ZM351.268 39.308H360.244L355.732 26.996L351.268 39.308ZM395.395 27.5H402.019V51.836C402.019 53.612 401.659 55.212 400.939 56.636C400.219 58.076 399.235 59.308 397.987 60.332C396.755 61.356 395.331 62.14 393.715 62.684C392.115 63.228 390.419 63.5 388.627 63.5C386.931 63.5 385.307 63.164 383.755 62.492C382.203 61.836 380.827 60.924 379.627 59.756C378.427 58.588 377.491 57.244 376.819 55.724L382.867 52.964C383.203 53.764 383.659 54.452 384.235 55.028C384.827 55.604 385.499 56.044 386.251 56.348C387.019 56.668 387.811 56.828 388.627 56.828C389.507 56.828 390.347 56.724 391.147 56.516C391.963 56.308 392.691 55.996 393.331 55.58C393.971 55.164 394.475 54.644 394.843 54.02C395.211 53.396 395.395 52.668 395.395 51.836V49.052C394.659 49.964 393.763 50.708 392.707 51.284C391.667 51.844 390.459 52.124 389.083 52.124C387.355 52.124 385.731 51.796 384.211 51.14C382.707 50.484 381.379 49.58 380.227 48.428C379.075 47.26 378.171 45.916 377.515 44.396C376.859 42.876 376.531 41.244 376.531 39.5C376.531 37.756 376.859 36.124 377.515 34.604C378.171 33.084 379.075 31.748 380.227 30.596C381.379 29.428 382.707 28.516 384.211 27.86C385.731 27.204 387.355 26.876 389.083 26.876C390.459 26.876 391.667 27.164 392.707 27.74C393.763 28.3 394.659 29.036 395.395 29.948V27.5ZM389.179 45.764C390.267 45.764 391.251 45.484 392.131 44.924C393.011 44.348 393.699 43.588 394.195 42.644C394.707 41.7 394.963 40.652 394.963 39.5C394.963 38.348 394.707 37.3 394.195 36.356C393.699 35.396 393.011 34.636 392.131 34.076C391.251 33.516 390.267 33.236 389.179 33.236C388.107 33.236 387.123 33.516 386.227 34.076C385.347 34.636 384.643 35.396 384.115 36.356C383.587 37.3 383.323 38.348 383.323 39.5C383.323 40.652 383.587 41.708 384.115 42.668C384.643 43.612 385.347 44.364 386.227 44.924C387.123 45.484 388.107 45.764 389.179 45.764ZM421.527 52.124C419.319 52.124 417.303 51.556 415.479 50.42C413.671 49.284 412.223 47.756 411.135 45.836C410.063 43.916 409.527 41.796 409.527 39.476C409.527 37.732 409.839 36.1 410.463 34.58C411.087 33.044 411.943 31.7 413.031 30.548C414.135 29.38 415.415 28.468 416.871 27.812C418.327 27.156 419.879 26.828 421.527 26.828C423.431 26.828 425.167 27.236 426.735 28.052C428.319 28.868 429.655 29.98 430.743 31.388C431.847 32.796 432.631 34.388 433.095 36.164C433.575 37.94 433.655 39.788 433.335 41.708H416.679C416.887 42.412 417.207 43.052 417.639 43.628C418.087 44.188 418.631 44.636 419.271 44.972C419.927 45.308 420.679 45.484 421.527 45.5C422.359 45.516 423.127 45.324 423.831 44.924C424.535 44.524 425.135 43.988 425.631 43.316L432.399 44.876C431.423 47.004 429.967 48.748 428.031 50.108C426.095 51.452 423.927 52.124 421.527 52.124ZM416.439 36.812H426.639C426.431 36.012 426.079 35.292 425.583 34.652C425.087 34.012 424.487 33.508 423.783 33.14C423.095 32.772 422.343 32.588 421.527 32.588C420.727 32.588 419.975 32.772 419.271 33.14C418.583 33.508 417.991 34.012 417.495 34.652C417.015 35.276 416.663 35.996 416.439 36.812ZM463.307 36.236V51.5H456.683V38.06C456.683 37.212 456.475 36.452 456.059 35.78C455.659 35.092 455.115 34.548 454.427 34.148C453.755 33.748 453.003 33.548 452.171 33.548C451.339 33.548 450.579 33.748 449.891 34.148C449.203 34.548 448.659 35.092 448.259 35.78C447.859 36.452 447.659 37.212 447.659 38.06V51.5H441.035L441.011 27.5H447.635L447.659 29.276C448.459 28.508 449.395 27.908 450.467 27.476C451.555 27.044 452.699 26.828 453.899 26.828C455.643 26.828 457.219 27.252 458.627 28.1C460.051 28.948 461.187 30.084 462.035 31.508C462.883 32.916 463.307 34.492 463.307 36.236ZM485.684 43.916L491.636 47.132C490.532 48.636 489.148 49.844 487.484 50.756C485.82 51.668 484.004 52.124 482.036 52.124C479.828 52.124 477.812 51.556 475.988 50.42C474.18 49.284 472.732 47.764 471.644 45.86C470.572 43.94 470.036 41.82 470.036 39.5C470.036 37.74 470.348 36.1 470.972 34.58C471.596 33.044 472.452 31.7 473.54 30.548C474.644 29.38 475.924 28.468 477.38 27.812C478.836 27.156 480.388 26.828 482.036 26.828C484.004 26.828 485.82 27.284 487.484 28.196C489.148 29.108 490.532 30.332 491.636 31.868L485.684 35.084C485.188 34.556 484.62 34.156 483.98 33.884C483.356 33.596 482.708 33.452 482.036 33.452C481.012 33.452 480.092 33.732 479.276 34.292C478.476 34.852 477.836 35.596 477.356 36.524C476.892 37.436 476.66 38.428 476.66 39.5C476.66 40.556 476.9 41.54 477.38 42.452C477.86 43.364 478.5 44.1 479.3 44.66C480.116 45.22 481.028 45.5 482.036 45.5C482.724 45.5 483.38 45.356 484.004 45.068C484.628 44.78 485.188 44.396 485.684 43.916ZM514.092 27.5H521.148L507.996 63.5H500.988L505.308 51.5L496.668 27.5H503.916L508.62 42.452L514.092 27.5Z" fill="#1A1A1A"/>
<defs>
<linearGradient id="paint0_linear_710_1498" x1="47.8029" y1="-6.98361" x2="47.0386" y2="71.7139" gradientUnits="userSpaceOnUse">
<stop stop-color="#FBC31C"/>
<stop offset="1" stop-color="#EA3E3A"/>
</linearGradient>
</defs>
</svg>
